M48
; DRILL file {KiCad 6.0.5-a6ca702e91~116~ubuntu22.04.1} date Fri 22 Jul 2022 11:50:01 PM MDT
; FORMAT={-:-/ absolute / metric / decimal}
; #@! TF.CreationDate,2022-07-22T23:50:01-06:00
; #@! TF.GenerationSoftware,Kicad,Pcbnew,6.0.5-a6ca702e91~116~ubuntu22.04.1
; #@! TF.FileFunction,Plated,1,2,PTH
FMAT,2
METRIC
; #@! TA.AperFunction,Plated,PTH,ViaDrill
T1C0.400
; #@! TA.AperFunction,Plated,PTH,ComponentDrill
T2C1.000
%
G90
G05
T1
X104.572Y-100.355
X104.775Y-107.95
X117.475Y-69.85
X118.11Y-59.055
X118.339Y-94.971
X118.77Y-124.917
X118.796Y-79.553
X118.821Y-110.388
X119.101Y-63.449
X131.521Y-80.848
X133.477Y-95.021
X133.68Y-110.211
X133.731Y-64.567
X134.29Y-125.222
X146.914Y-95.682
X148.031Y-110.668
X148.768Y-79.273
X148.793Y-125.349
X148.946Y-64.389
X158.115Y-76.2
X162.382Y-81.255
X162.56Y-104.14
X162.56Y-111.76
X164.567Y-109.677
X166.446Y-94.818
T2
X110.49Y-69.348
X110.49Y-118.11
X111.76Y-67.149
X111.76Y-120.31
X113.03Y-64.949
X113.03Y-122.509
X114.3Y-62.749
X114.3Y-124.709
X161.29Y-124.074
X161.925Y-62.276
X162.56Y-121.874
X163.195Y-64.475
X163.83Y-119.675
X164.465Y-66.675
X165.1Y-117.475
X165.735Y-68.875
T0
M30
