G04 #@! TF.GenerationSoftware,KiCad,Pcbnew,6.0.5-a6ca702e91~116~ubuntu22.04.1*
G04 #@! TF.CreationDate,2022-07-22T23:48:50-06:00*
G04 #@! TF.ProjectId,catan_board,63617461-6e5f-4626-9f61-72642e6b6963,rev?*
G04 #@! TF.SameCoordinates,Original*
G04 #@! TF.FileFunction,Legend,Bot*
G04 #@! TF.FilePolarity,Positive*
%FSLAX46Y46*%
G04 Gerber Fmt 4.6, Leading zero omitted, Abs format (unit mm)*
G04 Created by KiCad (PCBNEW 6.0.5-a6ca702e91~116~ubuntu22.04.1) date 2022-07-22 23:48:50*
%MOMM*%
%LPD*%
G01*
G04 APERTURE LIST*
G04 Aperture macros list*
%AMHorizOval*
0 Thick line with rounded ends*
0 $1 width*
0 $2 $3 position (X,Y) of the first rounded end (center of the circle)*
0 $4 $5 position (X,Y) of the second rounded end (center of the circle)*
0 Add line between two ends*
20,1,$1,$2,$3,$4,$5,0*
0 Add two circle primitives to create the rounded ends*
1,1,$1,$2,$3*
1,1,$1,$4,$5*%
%AMRotRect*
0 Rectangle, with rotation*
0 The origin of the aperture is its center*
0 $1 length*
0 $2 width*
0 $3 Rotation angle, in degrees counterclockwise*
0 Add horizontal line*
21,1,$1,$2,0,0,$3*%
G04 Aperture macros list end*
%ADD10C,0.360000*%
%ADD11RotRect,1.700000X1.700000X330.000000*%
%ADD12HorizOval,1.700000X0.000000X0.000000X0.000000X0.000000X0*%
%ADD13RotRect,1.700000X1.700000X30.000000*%
%ADD14HorizOval,1.700000X0.000000X0.000000X0.000000X0.000000X0*%
G04 APERTURE END LIST*
D10*
X132827829Y-85121719D02*
X132742498Y-84750457D01*
X132659606Y-84376713D01*
X132579087Y-84000486D01*
X132500875Y-83621777D01*
X126203102Y-84496758D02*
X125950889Y-84149216D01*
X125706053Y-83813115D01*
X125468618Y-83488474D01*
X125238606Y-83175312D01*
X125016041Y-82873649D01*
X124943512Y-82775654D01*
X120261051Y-82044931D02*
X120571062Y-82366052D01*
X120819717Y-82631063D01*
X121068953Y-82903286D01*
X121318777Y-83182722D01*
X121569196Y-83469370D01*
X121820217Y-83763231D01*
X122071847Y-84064305D01*
X122260973Y-84294844D01*
X141221676Y-83948701D02*
X141003821Y-83636355D01*
X140786470Y-83330255D01*
X140569620Y-83030401D01*
X140353271Y-82736795D01*
X140065584Y-82355042D01*
X139778784Y-81984403D01*
X139492870Y-81624882D01*
X139207838Y-81276482D01*
X138923688Y-80939209D01*
X121799430Y-102592119D02*
X121996612Y-102272563D01*
X122145543Y-101928662D01*
X134147585Y-77238041D02*
X135903031Y-77460482D01*
X137624315Y-77701126D01*
X139310021Y-77959558D01*
X140958735Y-78235364D01*
X142569044Y-78528130D01*
X144139532Y-78837441D01*
X145668786Y-79162884D01*
X147155392Y-79504044D01*
X148597934Y-79860507D01*
X149995000Y-80231859D01*
X151345174Y-80617685D01*
X152647042Y-81017571D01*
X153899191Y-81431103D01*
X155100205Y-81857867D01*
X156248672Y-82297449D01*
X157343175Y-82749434D01*
X158382302Y-83213408D01*
X159364638Y-83688957D01*
X160288769Y-84175666D01*
X161153280Y-84673122D01*
X161956758Y-85180911D01*
X162697787Y-85698617D01*
X163374954Y-86225826D01*
X163986845Y-86762126D01*
X164532045Y-87307100D01*
X165009140Y-87860336D01*
X165416716Y-88421418D01*
X165753359Y-88989933D01*
X166017654Y-89565467D01*
X166208187Y-90147604D01*
X166323544Y-90735931D01*
X166362311Y-91330035D01*
X135741168Y-77775879D02*
X135450457Y-77533303D01*
X135158852Y-77301701D01*
X134866316Y-77081096D01*
X134572811Y-76871508D01*
X134404645Y-76756699D01*
X122809000Y-80035400D02*
X122552441Y-79733819D01*
X122282616Y-79424948D01*
X122035658Y-79148728D01*
X121778583Y-78866967D01*
X121703278Y-78785449D01*
X132154762Y-80881523D02*
X132167516Y-80508709D01*
X132217992Y-80141183D01*
X132231696Y-80083476D01*
X121703278Y-78785449D02*
X121435063Y-78500406D01*
X121160424Y-78217124D01*
X120879325Y-77935641D01*
X120591734Y-77655992D01*
X120424469Y-77497031D01*
X143606207Y-95803916D02*
X143755744Y-96173204D01*
X143910977Y-96559924D01*
X144071903Y-96964072D01*
X144238521Y-97385646D01*
X144410831Y-97824641D01*
X144543797Y-98165319D01*
X144679962Y-98515792D01*
X144819327Y-98876061D01*
X144961891Y-99246123D01*
X134154684Y-90448418D02*
X134060790Y-90094761D01*
X133966550Y-89736887D01*
X133871963Y-89374792D01*
X133777033Y-89008473D01*
X133681761Y-88637928D01*
X133586148Y-88263152D01*
X133490196Y-87884144D01*
X133393908Y-87500900D01*
X133297284Y-87113416D01*
X133200326Y-86721691D01*
X133135504Y-86458183D01*
X134587340Y-103669014D02*
X134851453Y-103947856D01*
X135168051Y-104150659D01*
X135544504Y-104243615D01*
X135616129Y-104245869D01*
X128635680Y-79227744D02*
X128650971Y-79595619D01*
X128683727Y-79881562D01*
X116405407Y-75227900D02*
X116031065Y-75268418D01*
X115695305Y-75401644D01*
X115636247Y-75439424D01*
X138923688Y-80939209D02*
X138679660Y-80667671D01*
X138424244Y-80385214D01*
X138167077Y-80102047D01*
X138106422Y-80035400D01*
X137154567Y-102592119D02*
X137137989Y-102205212D01*
X137092942Y-101845822D01*
X137068024Y-101707529D01*
X115636247Y-75439424D02*
X115357494Y-75687139D01*
X115148403Y-75984643D01*
X115136266Y-76006728D01*
X134020036Y-80314219D02*
X134316449Y-80524440D01*
X134614157Y-80758260D01*
X134913179Y-81015703D01*
X135213537Y-81296791D01*
X135515252Y-81601548D01*
X135616129Y-81708398D01*
X134404645Y-76756699D02*
X134070567Y-76541656D01*
X133741246Y-76348168D01*
X133416715Y-76176258D01*
X133097008Y-76025947D01*
X133097008Y-76025947D02*
X132747687Y-75891252D01*
X132377403Y-75793202D01*
X131991717Y-75748220D01*
X131924020Y-75747129D01*
X115136266Y-76006728D02*
X114990186Y-76342074D01*
X114893929Y-76696109D01*
X114867028Y-76843213D01*
X130943278Y-91284873D02*
X130740454Y-90977565D01*
X130519381Y-90647949D01*
X130292231Y-90312745D01*
X130135622Y-90083056D01*
X119107223Y-102207510D02*
X119309277Y-102523127D01*
X119554435Y-102806127D01*
X119741793Y-102976728D01*
X136885329Y-100861435D02*
X136783772Y-100438723D01*
X136681027Y-100016584D01*
X136577086Y-99595025D01*
X136471942Y-99174052D01*
X136365586Y-98753672D01*
X136258011Y-98333893D01*
X136149210Y-97914720D01*
X136039176Y-97496162D01*
X136356520Y-104111279D02*
X136666430Y-103921014D01*
X136827614Y-103755498D01*
X130971394Y-107970395D02*
X133115710Y-107948288D01*
X135231873Y-107882681D01*
X137317263Y-107774640D01*
X139369263Y-107625234D01*
X141385255Y-107435529D01*
X143362621Y-107206593D01*
X145298744Y-106939493D01*
X147191004Y-106635298D01*
X149036786Y-106295074D01*
X150833470Y-105919889D01*
X152578438Y-105510811D01*
X154269074Y-105068907D01*
X155902758Y-104595244D01*
X157476874Y-104090891D01*
X158988802Y-103556914D01*
X160435926Y-102994381D01*
X161815628Y-102404359D01*
X163125289Y-101787917D01*
X164362292Y-101146121D01*
X165524018Y-100480038D01*
X166607851Y-99790738D01*
X167611172Y-99079286D01*
X168531363Y-98346751D01*
X169365806Y-97594200D01*
X170111883Y-96822701D01*
X170766977Y-96033320D01*
X171328470Y-95227126D01*
X171793744Y-94405186D01*
X172160180Y-93568568D01*
X172425162Y-92718338D01*
X172586071Y-91855565D01*
X172640289Y-90981316D01*
X114297460Y-106554639D02*
X114777750Y-106638812D01*
X115261111Y-106720592D01*
X115747498Y-106799961D01*
X116236867Y-106876900D01*
X116729174Y-106951390D01*
X117224376Y-107023414D01*
X117722428Y-107092953D01*
X118223286Y-107159990D01*
X118726906Y-107224504D01*
X119233245Y-107286479D01*
X119742258Y-107345897D01*
X120253901Y-107402737D01*
X120768130Y-107456984D01*
X121284902Y-107508618D01*
X121804172Y-107557620D01*
X122325897Y-107603974D01*
X122850032Y-107647659D01*
X123376533Y-107688659D01*
X123905357Y-107726954D01*
X124436459Y-107762527D01*
X124969796Y-107795360D01*
X125505323Y-107825433D01*
X126042996Y-107852729D01*
X126582773Y-107877229D01*
X127124607Y-107898915D01*
X127668456Y-107917769D01*
X128214276Y-107933773D01*
X128762022Y-107946908D01*
X129311651Y-107957156D01*
X129863119Y-107964499D01*
X130416381Y-107968917D01*
X130971394Y-107970395D01*
X129549098Y-76708623D02*
X129297496Y-77014930D01*
X129103179Y-77321119D01*
X128939199Y-77656176D01*
X128876032Y-77814346D01*
X115876598Y-84814043D02*
X115946459Y-85224842D01*
X116017722Y-85645978D01*
X116090379Y-86077444D01*
X116164423Y-86519235D01*
X116224653Y-86880097D01*
X116285763Y-87247560D01*
X116347750Y-87621621D01*
X116857340Y-90688799D02*
X116922244Y-91077606D01*
X116987145Y-91465225D01*
X117052043Y-91851648D01*
X117116939Y-92236867D01*
X117181836Y-92620875D01*
X117246734Y-93003664D01*
X117311634Y-93385227D01*
X117376539Y-93765556D01*
X118155368Y-81400722D02*
X118197631Y-81037901D01*
X118203414Y-81016113D01*
X130972106Y-96909639D02*
X131211961Y-97288734D01*
X131444777Y-97662638D01*
X131670552Y-98031348D01*
X131889284Y-98394866D01*
X132100974Y-98753191D01*
X132305618Y-99106324D01*
X132385504Y-99246123D01*
X114924743Y-79477734D02*
X114994479Y-79881608D01*
X115068978Y-80266223D01*
X115148278Y-80631579D01*
X115232418Y-80977676D01*
X133343965Y-77142671D02*
X133722251Y-77187352D01*
X134097732Y-77232157D01*
X134147585Y-77238041D01*
X135125758Y-94073232D02*
X135007574Y-93633853D01*
X134888482Y-93190543D01*
X134768478Y-92743305D01*
X134647560Y-92292146D01*
X134525724Y-91837072D01*
X134402967Y-91378089D01*
X134279288Y-90915202D01*
X134185922Y-90565479D01*
X134154684Y-90448418D01*
X150038629Y-102342099D02*
X149942834Y-101971679D01*
X149838002Y-101591016D01*
X149724136Y-101200114D01*
X149601241Y-100798981D01*
X149469321Y-100387622D01*
X149328379Y-99966045D01*
X149178421Y-99534253D01*
X149019450Y-99092256D01*
X137077633Y-103236299D02*
X137141898Y-102865446D01*
X137154567Y-102592119D01*
X118741891Y-101303701D02*
X118851953Y-101647169D01*
X118994323Y-101985218D01*
X119107223Y-102207510D01*
X132520153Y-79785410D02*
X132880767Y-79818474D01*
X133250956Y-79917648D01*
X133582721Y-80058635D01*
X133921809Y-80250199D01*
X134020036Y-80314219D01*
X138712164Y-85987060D02*
X138932202Y-86355934D01*
X139147535Y-86723398D01*
X139358158Y-87089453D01*
X139564070Y-87454099D01*
X139765268Y-87817339D01*
X139961749Y-88179174D01*
X140039020Y-88323515D01*
X135616129Y-104245869D02*
X135975657Y-104220044D01*
X136337757Y-104119542D01*
X136356520Y-104111279D01*
X142587028Y-93419443D02*
X142754675Y-93790393D01*
X142902661Y-94126356D01*
X143058165Y-94486720D01*
X143221179Y-94871491D01*
X143391695Y-95280672D01*
X143533505Y-95625594D01*
X143606207Y-95803916D01*
X115491989Y-82516055D02*
X115555378Y-82901556D01*
X115622801Y-83307986D01*
X115694253Y-83735356D01*
X115756868Y-84107500D01*
X115822270Y-84494200D01*
X115876598Y-84814043D01*
X130587497Y-75997090D02*
X130260461Y-76154497D01*
X129929205Y-76368567D01*
X129631746Y-76623943D01*
X129549098Y-76708623D01*
X149663629Y-104438174D02*
X149891468Y-104115518D01*
X150044663Y-103753389D01*
X150118234Y-103398255D01*
X150134782Y-103111318D01*
X118559196Y-100572978D02*
X118645419Y-100936741D01*
X118741891Y-101303701D01*
X122260973Y-84294844D02*
X122513353Y-84607330D01*
X122765738Y-84924630D01*
X123018128Y-85246741D01*
X123270521Y-85573659D01*
X123522917Y-85905381D01*
X123775314Y-86241903D01*
X124027714Y-86583223D01*
X124280114Y-86929336D01*
X127722262Y-92034873D02*
X127926791Y-92337897D01*
X128131602Y-92641226D01*
X128336694Y-92944858D01*
X128542069Y-93248789D01*
X128747726Y-93553016D01*
X128953667Y-93857537D01*
X129159892Y-94162350D01*
X129366403Y-94467451D01*
X122145543Y-101928662D02*
X122248662Y-101569718D01*
X122289801Y-101284482D01*
X118405329Y-80381543D02*
X118734241Y-80639262D01*
X119015053Y-80873114D01*
X119301966Y-81124324D01*
X119594978Y-81392900D01*
X119894084Y-81678849D01*
X120199281Y-81982178D01*
X120261051Y-82044931D01*
X126193493Y-89727305D02*
X126418458Y-90072648D01*
X126648573Y-90423626D01*
X126883839Y-90780239D01*
X127124254Y-91142487D01*
X127369819Y-91510370D01*
X127620534Y-91883888D01*
X127722262Y-92034873D01*
X121299450Y-103101709D02*
X121579533Y-102857364D01*
X121799430Y-102592119D01*
X124280114Y-86929336D02*
X124530846Y-87278094D01*
X124778283Y-87627133D01*
X125022422Y-87976454D01*
X125263258Y-88326057D01*
X125500787Y-88675942D01*
X125735006Y-89026112D01*
X125965909Y-89376566D01*
X126193493Y-89727305D01*
X114790094Y-77843174D02*
X114798534Y-78248236D01*
X114823822Y-78655718D01*
X114859730Y-79014209D01*
X114908466Y-79374478D01*
X114924743Y-79477734D01*
X132385504Y-99246123D02*
X132560174Y-99573388D01*
X132717936Y-99905106D01*
X132878048Y-100275243D01*
X133020075Y-100630635D01*
X114867028Y-76843213D02*
X114820232Y-77209225D01*
X114794929Y-77585984D01*
X114790094Y-77843174D01*
X118261129Y-98957666D02*
X118327344Y-99330848D01*
X118398536Y-99725210D01*
X118471959Y-100121823D01*
X118544510Y-100499061D01*
X118559196Y-100572978D01*
X133020075Y-100630635D02*
X133166427Y-100999066D01*
X133319169Y-101363726D01*
X133478297Y-101724663D01*
X133643806Y-102081925D01*
X133741247Y-102284443D01*
X148192516Y-104976650D02*
X148604744Y-104950858D01*
X148966336Y-104873512D01*
X149317580Y-104722040D01*
X149633674Y-104471283D01*
X149663629Y-104438174D01*
X145625348Y-91419521D02*
X145431823Y-91045490D01*
X145236936Y-90673316D01*
X145040687Y-90302996D01*
X144843074Y-89934530D01*
X144644099Y-89567919D01*
X144443762Y-89203162D01*
X144242061Y-88840259D01*
X144038999Y-88479209D01*
X143834573Y-88120012D01*
X143628785Y-87762668D01*
X143490836Y-87525469D01*
X132500875Y-83621777D02*
X132427648Y-83245050D01*
X132361590Y-82874293D01*
X132302684Y-82509506D01*
X132250914Y-82150693D01*
X147509899Y-95361650D02*
X147347974Y-94997010D01*
X147182993Y-94631353D01*
X147014956Y-94264677D01*
X146843865Y-93896981D01*
X146669723Y-93528264D01*
X146492529Y-93158525D01*
X146312288Y-92787761D01*
X146128999Y-92415973D01*
X145942666Y-92043160D01*
X145753289Y-91669319D01*
X145625348Y-91419521D01*
X136039176Y-97496162D02*
X135928200Y-97076714D01*
X135816314Y-96654868D01*
X135703517Y-96230620D01*
X135589806Y-95803967D01*
X135475177Y-95374905D01*
X135359627Y-94943430D01*
X135243155Y-94509540D01*
X135125758Y-94073232D01*
X128808766Y-80554599D02*
X130943278Y-91284873D01*
X141856247Y-91871396D02*
X142013788Y-92195329D01*
X142188063Y-92561352D01*
X142354321Y-92916104D01*
X142507087Y-93245764D01*
X142587028Y-93419443D01*
X110645055Y-76148654D02*
X111120894Y-76138731D01*
X111598081Y-76130189D01*
X112076564Y-76123009D01*
X112556293Y-76117174D01*
X112916878Y-76113670D01*
X113278114Y-76110904D01*
X113639982Y-76108871D01*
X114002459Y-76107562D01*
X114365524Y-76106970D01*
X114486674Y-76106931D01*
X118289957Y-82285312D02*
X118217051Y-81928201D01*
X118193805Y-81804551D01*
X127597282Y-86448574D02*
X127375711Y-86134736D01*
X127155513Y-85824193D01*
X126936692Y-85516936D01*
X126719257Y-85212959D01*
X126503213Y-84912256D01*
X126288567Y-84614819D01*
X126203102Y-84496758D01*
X137212223Y-83689072D02*
X137456808Y-84039296D01*
X137697609Y-84392781D01*
X137934624Y-84749535D01*
X138167854Y-85109566D01*
X138397300Y-85472882D01*
X138622959Y-85839492D01*
X138712164Y-85987060D01*
X128876032Y-77814346D02*
X128759888Y-78186716D01*
X128681716Y-78578765D01*
X128644138Y-78943777D01*
X128635680Y-79227744D01*
X132250914Y-82150693D02*
X132204485Y-81762756D01*
X132173203Y-81399062D01*
X132156269Y-81023401D01*
X132154762Y-80881523D01*
X116347750Y-87621621D02*
X116410425Y-87999812D01*
X116473384Y-88379478D01*
X116536631Y-88760623D01*
X116600172Y-89143256D01*
X116664008Y-89527383D01*
X116728146Y-89913012D01*
X116792588Y-90300148D01*
X116857340Y-90688799D01*
X172640289Y-90981316D02*
X172586071Y-90107066D01*
X172425162Y-89244292D01*
X172160180Y-88394062D01*
X171793744Y-87557443D01*
X171328470Y-86735502D01*
X170766977Y-85929308D01*
X170111883Y-85139927D01*
X169365806Y-84368427D01*
X168531363Y-83615876D01*
X167611172Y-82883341D01*
X166607851Y-82171890D01*
X165524018Y-81482589D01*
X164362292Y-80816507D01*
X163125289Y-80174712D01*
X161815628Y-79558269D01*
X160435926Y-78968248D01*
X158988802Y-78405715D01*
X157476874Y-77871738D01*
X155902758Y-77367385D01*
X154269074Y-76893723D01*
X152578438Y-76451819D01*
X150833470Y-76042741D01*
X149036786Y-75667556D01*
X147191004Y-75327333D01*
X145298744Y-75023138D01*
X143362621Y-74756038D01*
X141385255Y-74527103D01*
X139369263Y-74337398D01*
X137317263Y-74187991D01*
X135231873Y-74079951D01*
X133115710Y-74014344D01*
X130971394Y-73992238D01*
X122289801Y-101284482D02*
X118289957Y-82285312D01*
X114486674Y-106554639D02*
X114297460Y-106554639D01*
X120424469Y-77497031D02*
X120129132Y-77225868D01*
X119831917Y-76967606D01*
X119532845Y-76722207D01*
X119231938Y-76489634D01*
X119059176Y-76362480D01*
X114486674Y-76106931D02*
X115109451Y-76108007D01*
X115730481Y-76111227D01*
X116349722Y-76116580D01*
X116967132Y-76124051D01*
X117582671Y-76133629D01*
X118196297Y-76145301D01*
X118807968Y-76159055D01*
X119417645Y-76174877D01*
X120025284Y-76192756D01*
X120630846Y-76212679D01*
X121234288Y-76234633D01*
X121835570Y-76258605D01*
X122434650Y-76284584D01*
X123031488Y-76312557D01*
X123626041Y-76342511D01*
X124218268Y-76374433D01*
X124808129Y-76408311D01*
X125395581Y-76444133D01*
X125980584Y-76481885D01*
X126563097Y-76521556D01*
X127143078Y-76563133D01*
X127720486Y-76606603D01*
X128295279Y-76651954D01*
X128867417Y-76699173D01*
X129436858Y-76748247D01*
X130003560Y-76799164D01*
X130567484Y-76851912D01*
X131128586Y-76906478D01*
X131686827Y-76962850D01*
X132242164Y-77021014D01*
X132794557Y-77080958D01*
X133343965Y-77142671D01*
X131924020Y-75747129D02*
X131522888Y-75766936D01*
X131141485Y-75826303D01*
X130779850Y-75925148D01*
X130587497Y-75997090D01*
X129366403Y-94467451D02*
X129572405Y-94772791D01*
X129776889Y-95078107D01*
X129979859Y-95383401D01*
X130181317Y-95688676D01*
X130381267Y-95993935D01*
X130579713Y-96299179D01*
X130776658Y-96604413D01*
X130972106Y-96909639D01*
X120712926Y-103303623D02*
X121068260Y-103232432D01*
X121299450Y-103101709D01*
X123655094Y-81073799D02*
X123423786Y-80782411D01*
X123189924Y-80494423D01*
X122931647Y-80182055D01*
X122809000Y-80035400D01*
X118193805Y-81804551D02*
X118155707Y-81436970D01*
X118155368Y-81400722D01*
X137010309Y-78920068D02*
X136742537Y-78668140D01*
X136469248Y-78417144D01*
X136190441Y-78167062D01*
X135906116Y-77917876D01*
X135741168Y-77775879D01*
X149019450Y-99092256D02*
X148852895Y-98642762D01*
X148723823Y-98302497D01*
X148591192Y-97959533D01*
X148455003Y-97613866D01*
X148315255Y-97265492D01*
X148171951Y-96914409D01*
X148025092Y-96560612D01*
X147874678Y-96204099D01*
X147720712Y-95844865D01*
X147563194Y-95482908D01*
X147509899Y-95361650D01*
X137068024Y-101707529D02*
X136996165Y-101354570D01*
X136915199Y-100988564D01*
X136885329Y-100861435D01*
X133135504Y-86458183D02*
X133047708Y-86071633D01*
X132962156Y-85699544D01*
X132870501Y-85304585D01*
X132827829Y-85121719D01*
X118289957Y-80689219D02*
X118405329Y-80381543D01*
X150134782Y-103111318D02*
X150110809Y-102746000D01*
X150044560Y-102368478D01*
X150038629Y-102342099D01*
X118203414Y-81016113D02*
X118289957Y-80689219D01*
X135616129Y-81708398D02*
X135868071Y-81984939D01*
X136119074Y-82273699D01*
X136369133Y-82574664D01*
X136618245Y-82887822D01*
X136866405Y-83213160D01*
X137113609Y-83550665D01*
X137212223Y-83689072D01*
X143490836Y-87525469D02*
X143283032Y-87172222D01*
X143074210Y-86822684D01*
X142864371Y-86476854D01*
X142653512Y-86134732D01*
X142441633Y-85796319D01*
X142228733Y-85461615D01*
X142014811Y-85130619D01*
X141799867Y-84803332D01*
X141583899Y-84479754D01*
X141366907Y-84159886D01*
X141221676Y-83948701D01*
X124943512Y-82775654D02*
X124701252Y-82449200D01*
X124479254Y-82151279D01*
X124250321Y-81845713D01*
X124024317Y-81546440D01*
X124001266Y-81516094D01*
X147298317Y-104688193D02*
X147626884Y-104863971D01*
X147991983Y-104962846D01*
X148192516Y-104976650D01*
X141096696Y-90400342D02*
X141269888Y-90733017D01*
X141375543Y-90929150D01*
X156768913Y-102679936D02*
X156683079Y-102224982D01*
X156531624Y-101461428D01*
X156428035Y-100957866D01*
X156306055Y-100380354D01*
X156165819Y-99734324D01*
X156007464Y-99025204D01*
X155831127Y-98258425D01*
X155636943Y-97439418D01*
X155425050Y-96573612D01*
X155195583Y-95666439D01*
X154948680Y-94723327D01*
X154684476Y-93749708D01*
X154403109Y-92751012D01*
X154104714Y-91732668D01*
X153789428Y-90700108D01*
X153457387Y-89658760D01*
X153108728Y-88614057D01*
X152743587Y-87571427D01*
X152362101Y-86536302D01*
X151964406Y-85514111D01*
X151550639Y-84510284D01*
X151120936Y-83530253D01*
X150675433Y-82579446D01*
X150214267Y-81663295D01*
X149737574Y-80787229D01*
X149245491Y-79956679D01*
X148738155Y-79177075D01*
X148215700Y-78453848D01*
X147678266Y-77792427D01*
X133741247Y-102284443D02*
X133916537Y-102626743D01*
X134097327Y-102946968D01*
X134310655Y-103285904D01*
X134531114Y-103595998D01*
X134587340Y-103669014D01*
X138106422Y-80035400D02*
X137854034Y-79763855D01*
X137587215Y-79487413D01*
X137305972Y-79206131D01*
X137010309Y-78920068D01*
X128962575Y-88390810D02*
X128715462Y-88038394D01*
X128506392Y-87740563D01*
X128294474Y-87438962D01*
X128079714Y-87133597D01*
X127862121Y-86824474D01*
X127641703Y-86511599D01*
X127597282Y-86448574D01*
X119059176Y-76362480D02*
X118757232Y-76152520D01*
X118414435Y-75933930D01*
X118074017Y-75738155D01*
X117735925Y-75565223D01*
X117693825Y-75545215D01*
X128683727Y-79881562D02*
X128747079Y-80255474D01*
X128808766Y-80554599D01*
X119741793Y-102976728D02*
X120063192Y-103176024D01*
X120435901Y-103283222D01*
X120712926Y-103303623D01*
X144961891Y-99246123D02*
X145107838Y-99627239D01*
X145257156Y-100020510D01*
X145409848Y-100425936D01*
X145565911Y-100843519D01*
X145725349Y-101273261D01*
X145888160Y-101715163D01*
X146054346Y-102169226D01*
X146223907Y-102635451D01*
X146396843Y-103113841D01*
X146573156Y-103604396D01*
X146692575Y-103938193D01*
X117376539Y-93765556D02*
X117440851Y-94142238D01*
X117503972Y-94512602D01*
X117565893Y-94876644D01*
X117626610Y-95234362D01*
X117700801Y-95672615D01*
X117773088Y-96100981D01*
X117843458Y-96519455D01*
X117857301Y-96601963D01*
X117857301Y-96601963D02*
X117925511Y-97006829D01*
X117991826Y-97398063D01*
X118056247Y-97775669D01*
X118118776Y-98139652D01*
X118191313Y-98558459D01*
X118261129Y-98957666D01*
X146692575Y-103938193D02*
X146858918Y-104260001D01*
X147098233Y-104533144D01*
X147298317Y-104688193D01*
X141375543Y-90929150D02*
X141557586Y-91275181D01*
X141731447Y-91619282D01*
X141856247Y-91871396D01*
X132231696Y-80083476D02*
X132457356Y-79792693D01*
X132520153Y-79785410D01*
X124001266Y-81516094D02*
X123655094Y-81073799D01*
X166362311Y-91330035D02*
X166294808Y-92113472D01*
X166094475Y-92886628D01*
X165764571Y-93648544D01*
X165308356Y-94398264D01*
X164729088Y-95134831D01*
X164030029Y-95857289D01*
X163214438Y-96564681D01*
X162285575Y-97256050D01*
X161246700Y-97930440D01*
X160101072Y-98586893D01*
X158851951Y-99224454D01*
X157502597Y-99842165D01*
X156056270Y-100439069D01*
X154516229Y-101014211D01*
X152885735Y-101566632D01*
X151168047Y-102095378D01*
X149366425Y-102599490D01*
X147484129Y-103078012D01*
X145524418Y-103529988D01*
X143490553Y-103954461D01*
X141385793Y-104350473D01*
X139213397Y-104717069D01*
X136976627Y-105053292D01*
X134678741Y-105358185D01*
X132323000Y-105630790D01*
X129912662Y-105870153D01*
X127450989Y-106075315D01*
X124941239Y-106245320D01*
X122386673Y-106379212D01*
X119790550Y-106476033D01*
X117156130Y-106534828D01*
X114486674Y-106554639D01*
X115232418Y-80977676D02*
X115299199Y-81359337D01*
X115362011Y-81729540D01*
X115423810Y-82100745D01*
X115491989Y-82516055D01*
X130135622Y-90083056D02*
X129902024Y-89742510D01*
X129691562Y-89437422D01*
X129471634Y-89120142D01*
X129242224Y-88790656D01*
X129003317Y-88448950D01*
X128962575Y-88390810D01*
X140039020Y-88323515D02*
X140227170Y-88678440D01*
X140406832Y-89022099D01*
X140578012Y-89354491D01*
X140772245Y-89738489D01*
X140954291Y-90106261D01*
X141096696Y-90400342D01*
X130971394Y-73992238D02*
X130280721Y-73994524D01*
X129592764Y-74001360D01*
X128907608Y-74012710D01*
X128225339Y-74028540D01*
X127546044Y-74048814D01*
X126869810Y-74073498D01*
X126196723Y-74102557D01*
X125526869Y-74135955D01*
X124860334Y-74173659D01*
X124197206Y-74215632D01*
X123537570Y-74261841D01*
X122881513Y-74312250D01*
X122229122Y-74366823D01*
X121580482Y-74425527D01*
X120935681Y-74488327D01*
X120294804Y-74555187D01*
X119657938Y-74626072D01*
X119025170Y-74700947D01*
X118396586Y-74779779D01*
X117772272Y-74862531D01*
X117152315Y-74949169D01*
X116536802Y-75039657D01*
X115925817Y-75133962D01*
X115319449Y-75232047D01*
X114717784Y-75333879D01*
X114120907Y-75439421D01*
X113528906Y-75548640D01*
X112941866Y-75661500D01*
X112359875Y-75777966D01*
X111783018Y-75898004D01*
X111211383Y-76021578D01*
X110645055Y-76148654D01*
X136827614Y-103755498D02*
X137013475Y-103432278D01*
X137077633Y-103236299D01*
X117693825Y-75545215D02*
X117360978Y-75406385D01*
X116995106Y-75297619D01*
X116638282Y-75239054D01*
X116405407Y-75227900D01*
%LPC*%
D11*
X114300000Y-62749104D03*
D12*
X113030000Y-64948809D03*
X111760000Y-67148513D03*
X110490000Y-69348218D03*
D13*
X110490000Y-118110000D03*
D14*
X111760000Y-120309705D03*
X113030000Y-122509409D03*
X114300000Y-124709114D03*
D13*
X161925000Y-62275591D03*
D14*
X163195000Y-64475296D03*
X164465000Y-66675000D03*
X165735000Y-68874705D03*
D11*
X165100000Y-117475000D03*
D12*
X163830000Y-119674705D03*
X162560000Y-121874409D03*
X161290000Y-124074114D03*
M02*
