G04 #@! TF.GenerationSoftware,KiCad,Pcbnew,6.0.5-a6ca702e91~116~ubuntu22.04.1*
G04 #@! TF.CreationDate,2022-07-22T23:48:50-06:00*
G04 #@! TF.ProjectId,catan_board,63617461-6e5f-4626-9f61-72642e6b6963,rev?*
G04 #@! TF.SameCoordinates,Original*
G04 #@! TF.FileFunction,Legend,Top*
G04 #@! TF.FilePolarity,Positive*
%FSLAX46Y46*%
G04 Gerber Fmt 4.6, Leading zero omitted, Abs format (unit mm)*
G04 Created by KiCad (PCBNEW 6.0.5-a6ca702e91~116~ubuntu22.04.1) date 2022-07-22 23:48:50*
%MOMM*%
%LPD*%
G01*
G04 APERTURE LIST*
G04 Aperture macros list*
%AMRoundRect*
0 Rectangle with rounded corners*
0 $1 Rounding radius*
0 $2 $3 $4 $5 $6 $7 $8 $9 X,Y pos of 4 corners*
0 Add a 4 corners polygon primitive as box body*
4,1,4,$2,$3,$4,$5,$6,$7,$8,$9,$2,$3,0*
0 Add four circle primitives for the rounded corners*
1,1,$1+$1,$2,$3*
1,1,$1+$1,$4,$5*
1,1,$1+$1,$6,$7*
1,1,$1+$1,$8,$9*
0 Add four rect primitives between the rounded corners*
20,1,$1+$1,$2,$3,$4,$5,0*
20,1,$1+$1,$4,$5,$6,$7,0*
20,1,$1+$1,$6,$7,$8,$9,0*
20,1,$1+$1,$8,$9,$2,$3,0*%
%AMHorizOval*
0 Thick line with rounded ends*
0 $1 width*
0 $2 $3 position (X,Y) of the first rounded end (center of the circle)*
0 $4 $5 position (X,Y) of the second rounded end (center of the circle)*
0 Add line between two ends*
20,1,$1,$2,$3,$4,$5,0*
0 Add two circle primitives to create the rounded ends*
1,1,$1,$2,$3*
1,1,$1,$4,$5*%
%AMRotRect*
0 Rectangle, with rotation*
0 The origin of the aperture is its center*
0 $1 length*
0 $2 width*
0 $3 Rotation angle, in degrees counterclockwise*
0 Add horizontal line*
21,1,$1,$2,0,0,$3*%
G04 Aperture macros list end*
%ADD10C,0.125000*%
%ADD11C,0.150000*%
%ADD12C,0.120000*%
%ADD13RoundRect,0.250000X-0.337500X-0.475000X0.337500X-0.475000X0.337500X0.475000X-0.337500X0.475000X0*%
%ADD14R,1.000000X1.500000*%
%ADD15RotRect,1.700000X1.700000X330.000000*%
%ADD16HorizOval,1.700000X0.000000X0.000000X0.000000X0.000000X0*%
%ADD17RotRect,1.700000X1.700000X30.000000*%
%ADD18HorizOval,1.700000X0.000000X0.000000X0.000000X0.000000X0*%
G04 APERTURE END LIST*
D10*
X160685186Y-129442873D02*
X160663552Y-129571878D01*
X160641919Y-129699270D01*
X160543364Y-130266555D02*
X160528140Y-130327448D01*
X159328672Y-129090322D02*
X159354312Y-128978950D01*
X159207686Y-130524558D02*
X159121953Y-130572629D01*
X159508955Y-129961277D02*
X159439744Y-130072980D01*
X159391172Y-130155984D01*
X159000962Y-130361101D02*
X159016187Y-130290593D01*
X160857456Y-128372404D02*
X160847591Y-128500013D01*
X160846235Y-128508618D01*
X160565801Y-128609575D02*
X160556187Y-128583935D01*
X159541006Y-128218564D02*
X159627539Y-128277859D01*
X158073921Y-130633527D02*
X157953824Y-130591413D01*
X157951328Y-130588654D01*
X160882741Y-128227718D02*
X160727486Y-128228522D01*
X160573605Y-128230915D01*
X160421190Y-128234870D01*
X160270332Y-128240357D01*
X160121127Y-128247349D01*
X159973665Y-128255817D01*
X159828040Y-128265734D01*
X159684345Y-128277071D01*
X159542673Y-128289799D01*
X159403116Y-128303890D01*
X159311300Y-128314029D01*
X159429629Y-128197734D02*
X159541006Y-128218564D01*
X158914429Y-128555090D02*
X159002626Y-128465147D01*
X159005772Y-128462146D01*
X159511357Y-129492546D02*
X159578662Y-129392395D01*
X159391172Y-130155984D02*
X159338291Y-130271360D01*
X159779775Y-129555046D02*
X159707176Y-129662541D01*
X159642764Y-129757761D01*
X158130806Y-129832277D02*
X158186308Y-129710221D01*
X158240761Y-129597141D01*
X158287852Y-129503767D01*
X158343140Y-130155984D02*
X158297171Y-130277388D01*
X158252101Y-130399575D01*
X158208867Y-130519172D01*
X158198916Y-130546989D01*
X159111533Y-128366797D02*
X159212397Y-128289012D01*
X159222910Y-128281865D01*
X160727651Y-129187275D02*
X160706616Y-129314078D01*
X160685186Y-129442873D01*
X160118706Y-128641623D02*
X160189214Y-128555090D01*
X158005010Y-130143161D02*
X158052046Y-130019962D01*
X158100407Y-129902481D01*
X158130806Y-129832277D01*
X158465728Y-129179262D02*
X158535504Y-129063367D01*
X158606641Y-128952417D01*
X158654824Y-128881198D01*
X160565801Y-128742583D02*
X160573814Y-128702519D01*
X158988945Y-128859563D02*
X158917045Y-128965903D01*
X158863950Y-129051062D01*
X159060254Y-130561413D02*
X159020996Y-130531765D01*
X160281357Y-128450927D02*
X160370529Y-128360125D01*
X160387925Y-128343559D01*
X158456113Y-129869133D02*
X158406936Y-129992025D01*
X158358921Y-130115047D01*
X158343140Y-130155984D01*
X159509014Y-128051493D02*
X159680996Y-128053199D01*
X159850812Y-128058264D01*
X160018269Y-128066611D01*
X160183171Y-128078160D01*
X160345323Y-128092833D01*
X160504533Y-128110551D01*
X160660604Y-128131237D01*
X160813343Y-128154810D01*
X160962555Y-128181192D01*
X161108045Y-128210306D01*
X161202876Y-128231194D01*
X160882741Y-130765027D02*
X160898509Y-130765027D01*
X159121953Y-130572629D02*
X159060254Y-130561413D01*
X159254961Y-128578325D02*
X159155502Y-128660205D01*
X159121953Y-128694506D01*
X158654824Y-128881198D02*
X158733191Y-128772166D01*
X158810776Y-128672914D01*
X158846323Y-128630407D01*
X159578662Y-129392395D02*
X159649870Y-129289341D01*
X159676416Y-129251374D01*
X159906372Y-128926870D02*
X159980426Y-128825341D01*
X160011338Y-128783444D01*
X158863950Y-129051062D02*
X158799774Y-129161174D01*
X158753379Y-129245766D01*
X159410400Y-128625600D02*
X159403989Y-128559096D01*
X160363887Y-130494109D02*
X160315010Y-130477282D01*
X159020996Y-130531765D02*
X159000161Y-130488498D01*
X160556187Y-128583935D02*
X160457049Y-128668215D01*
X160401543Y-128722551D01*
X159627539Y-128277859D02*
X159683628Y-128370002D01*
X159005772Y-128462146D02*
X159101209Y-128375669D01*
X159111533Y-128366797D01*
X159683628Y-128370002D02*
X159703657Y-128487785D01*
X160528140Y-130327448D02*
X160497695Y-130402766D01*
X160851045Y-128289074D02*
X160857456Y-128372404D01*
X159699653Y-128542270D02*
X159689233Y-128598357D01*
X159162817Y-129724909D02*
X159197619Y-129595324D01*
X159230772Y-129471413D01*
X159243740Y-129422841D01*
X160766914Y-128953310D02*
X160745410Y-129080580D01*
X160727651Y-129187275D01*
X159689233Y-128598357D02*
X159511357Y-129492546D01*
X156559771Y-129496310D02*
X156582090Y-129626025D01*
X156647600Y-129751995D01*
X156754127Y-129873580D01*
X156899498Y-129990144D01*
X157081540Y-130101047D01*
X157298080Y-130205653D01*
X157418607Y-130255395D01*
X157546944Y-130303324D01*
X157682818Y-130349359D01*
X157825959Y-130393421D01*
X157976094Y-130435430D01*
X158132952Y-130475307D01*
X158296262Y-130512972D01*
X158465750Y-130548345D01*
X158641147Y-130581346D01*
X158822180Y-130611896D01*
X159008578Y-130639914D01*
X159200068Y-130665322D01*
X159396380Y-130688039D01*
X159597241Y-130707986D01*
X159802381Y-130725083D01*
X160011527Y-130739250D01*
X160224407Y-130750408D01*
X160440751Y-130758476D01*
X160660286Y-130763376D01*
X160882741Y-130765027D01*
X160501699Y-128249013D02*
X160611970Y-128182575D01*
X160615479Y-128180908D01*
X160846235Y-128508618D02*
X160820596Y-128633613D01*
X160244502Y-130379528D02*
X160232481Y-130325847D01*
X160820596Y-128633613D02*
X160798965Y-128761811D01*
X160189214Y-128555090D02*
X160271969Y-128461102D01*
X160281357Y-128450927D01*
X159016187Y-130290593D02*
X159046241Y-130167512D01*
X159077529Y-130045033D01*
X159086699Y-130010153D01*
X157359221Y-130442135D02*
X157387627Y-130298629D01*
X157422675Y-130137574D01*
X157453551Y-130005425D01*
X157490331Y-129857676D01*
X157532923Y-129697949D01*
X157581237Y-129529862D01*
X157635181Y-129357037D01*
X157694664Y-129183092D01*
X157759596Y-129011649D01*
X157829885Y-128846328D01*
X157905441Y-128690748D01*
X157986172Y-128548530D01*
X158071988Y-128423294D01*
X158116775Y-128368176D01*
X160234883Y-128910044D02*
X160156012Y-129009763D01*
X160077137Y-129115113D01*
X160066621Y-129129585D01*
X160798965Y-128761811D02*
X160777953Y-128888132D01*
X160766914Y-128953310D01*
X157912065Y-130478083D02*
X157920078Y-130413982D01*
X160577017Y-128668867D02*
X160573013Y-128636816D01*
X160641919Y-129699270D02*
X160619830Y-129829040D01*
X160601856Y-129935637D01*
X159331880Y-128220969D02*
X159429629Y-128197734D01*
X157951328Y-130588654D02*
X157912065Y-130478083D01*
X158287852Y-129503767D02*
X158347539Y-129390235D01*
X158408753Y-129278781D01*
X158465728Y-129179262D01*
X159790190Y-129089521D02*
X159863359Y-128986553D01*
X159906372Y-128926870D01*
X159311300Y-128314029D02*
X159244332Y-128321977D01*
X160011338Y-128783444D02*
X160087937Y-128681009D01*
X160089858Y-128678481D01*
X160568203Y-130131945D02*
X160545215Y-130257202D01*
X160543364Y-130266555D01*
X160573814Y-128702519D02*
X160577017Y-128668867D01*
X158665239Y-129418835D02*
X158642002Y-129462902D01*
X158541045Y-129670427D02*
X158488198Y-129791430D01*
X158456113Y-129869133D01*
X159403989Y-128559096D02*
X159379951Y-128534257D01*
X160444815Y-130466867D02*
X160363887Y-130494109D01*
X160387925Y-128343559D02*
X160483710Y-128262312D01*
X160501699Y-128249013D01*
X159509014Y-130883006D02*
X159330321Y-130881163D01*
X159153974Y-130875696D01*
X158980191Y-130866693D01*
X158809191Y-130854242D01*
X158641192Y-130838433D01*
X158476412Y-130819355D01*
X158315068Y-130797097D01*
X158157380Y-130771747D01*
X158003565Y-130743395D01*
X157853841Y-130712130D01*
X157708427Y-130678040D01*
X157567541Y-130641215D01*
X157431400Y-130601743D01*
X157300224Y-130559714D01*
X157174230Y-130515215D01*
X157053637Y-130468338D01*
X156938661Y-130419169D01*
X156726439Y-130314316D01*
X156539310Y-130201368D01*
X156379017Y-130081035D01*
X156247307Y-129954031D01*
X156145925Y-129821067D01*
X156076616Y-129682854D01*
X156041125Y-129540104D01*
X156036607Y-129467250D01*
X159703657Y-128487785D02*
X159699653Y-128542270D01*
X158601943Y-129541423D02*
X158547706Y-129655953D01*
X158541045Y-129670427D01*
X159354312Y-128978950D02*
X159381558Y-128853955D01*
X159086699Y-130010153D02*
X159119399Y-129886939D01*
X159153034Y-129761268D01*
X159162817Y-129724909D01*
X159278193Y-130409177D02*
X159212371Y-130518473D01*
X159207686Y-130524558D01*
X160497695Y-130402766D02*
X160444815Y-130466867D01*
X156036607Y-129467250D02*
X156054534Y-129322497D01*
X156107152Y-129181927D01*
X156192716Y-129046249D01*
X156309480Y-128916175D01*
X156455700Y-128792418D01*
X156629629Y-128675688D01*
X156829523Y-128566699D01*
X157053637Y-128466160D01*
X157174230Y-128419282D01*
X157300224Y-128374784D01*
X157431400Y-128332755D01*
X157567541Y-128293283D01*
X157708427Y-128256458D01*
X157853841Y-128222368D01*
X158003565Y-128191102D01*
X158157380Y-128162750D01*
X158315068Y-128137401D01*
X158476412Y-128115143D01*
X158641192Y-128096065D01*
X158809191Y-128080256D01*
X158980191Y-128067805D01*
X159153974Y-128058802D01*
X159330321Y-128053335D01*
X159509014Y-128051493D01*
X161202876Y-128231194D02*
X161073598Y-128228925D01*
X160943235Y-128227836D01*
X160882741Y-128227718D01*
X159907173Y-129362749D02*
X159837674Y-129468549D01*
X159779775Y-129555046D01*
X159676416Y-129251374D02*
X159749987Y-129146606D01*
X159790190Y-129089521D01*
X159000161Y-130488498D02*
X158993750Y-130434817D01*
X160828608Y-128219367D02*
X160851045Y-128289074D01*
X160615479Y-128180908D02*
X160722847Y-128154465D01*
X158846323Y-128630407D02*
X158914429Y-128555090D01*
X159222910Y-128281865D02*
X159331880Y-128220969D01*
X159642764Y-129757761D02*
X159570676Y-129865889D01*
X159508955Y-129961277D01*
X159244332Y-128321977D02*
X159098044Y-128340513D01*
X158954604Y-128360567D01*
X158814128Y-128382103D01*
X158676735Y-128405087D01*
X158542543Y-128429484D01*
X158411669Y-128455260D01*
X158284231Y-128482380D01*
X158160347Y-128510810D01*
X157923713Y-128571461D01*
X157702710Y-128636937D01*
X157498279Y-128706962D01*
X157311365Y-128781259D01*
X157142910Y-128859553D01*
X156993856Y-128941567D01*
X156865148Y-129027025D01*
X156757726Y-129115650D01*
X156672535Y-129207168D01*
X156588492Y-129349262D01*
X156559771Y-129496310D01*
X160573013Y-128636816D02*
X160565801Y-128609575D01*
X160273345Y-130434817D02*
X160244502Y-130379528D01*
X160401543Y-128722551D02*
X160313399Y-128817366D01*
X160234883Y-128910044D01*
X158148438Y-130609489D02*
X158073921Y-130633527D01*
X160722847Y-128154465D02*
X160786943Y-128172092D01*
X158642002Y-129462902D02*
X158601943Y-129541423D01*
X160066621Y-129129585D02*
X159989683Y-129238692D01*
X159916621Y-129348131D01*
X159907173Y-129362749D01*
X159379951Y-128534257D02*
X159259059Y-128575614D01*
X159254961Y-128578325D01*
X158198916Y-130546989D02*
X158148438Y-130609489D01*
X159338291Y-130271360D02*
X159288316Y-130388066D01*
X159278193Y-130409177D01*
X160601856Y-129935637D02*
X160580066Y-130063777D01*
X160568203Y-130131945D01*
X157920078Y-130413982D02*
X157956527Y-130285388D01*
X157998292Y-130161683D01*
X158005010Y-130143161D01*
X160089858Y-128678481D02*
X160118706Y-128641623D01*
X158993750Y-130434817D02*
X159000962Y-130361101D01*
X158753379Y-129245766D02*
X158694904Y-129358441D01*
X158665239Y-129418835D01*
X159243740Y-129422841D02*
X159277854Y-129292592D01*
X159309819Y-129166490D01*
X159328672Y-129090322D01*
X160315010Y-130477282D02*
X160273345Y-130434817D01*
X159402388Y-128731364D02*
X159410400Y-128625600D01*
X160898509Y-130765027D02*
X160736891Y-130791881D01*
X160613094Y-130809886D01*
X160487193Y-130826013D01*
X160359286Y-130840222D01*
X160229472Y-130852471D01*
X160097850Y-130862719D01*
X159964520Y-130870925D01*
X159829579Y-130877049D01*
X159693128Y-130881048D01*
X159555265Y-130882882D01*
X159509014Y-130883006D01*
X159381558Y-128853955D02*
X159402388Y-128731364D01*
X160786943Y-128172092D02*
X160828608Y-128219367D01*
X159121953Y-128694506D02*
X159038443Y-128792792D01*
X158988945Y-128859563D01*
X160232481Y-130325847D02*
X160565801Y-128742583D01*
D11*
X116241404Y-124057963D02*
X115741404Y-123191938D01*
X115947600Y-123072890D01*
X116095128Y-123042701D01*
X116225225Y-123077561D01*
X116314084Y-123136230D01*
X116450561Y-123277377D01*
X116521990Y-123401095D01*
X116575989Y-123589862D01*
X116582368Y-123696150D01*
X116547509Y-123826248D01*
X116447600Y-123938916D01*
X116241404Y-124057963D01*
X117107429Y-123557963D02*
X116774096Y-122980613D01*
X116607429Y-122691938D02*
X116590000Y-122756987D01*
X116655048Y-122774417D01*
X116672478Y-122709368D01*
X116607429Y-122691938D01*
X116655048Y-122774417D01*
X117186489Y-122742518D02*
X117519822Y-123319868D01*
X117234108Y-122824996D02*
X117251538Y-122759948D01*
X117310207Y-122671089D01*
X117433925Y-122599661D01*
X117540213Y-122593281D01*
X117629071Y-122651950D01*
X117890976Y-123105582D01*
X115173391Y-121767963D02*
X114673391Y-120901938D01*
X114879588Y-120782890D01*
X115027115Y-120752701D01*
X115157213Y-120787561D01*
X115246071Y-120846230D01*
X115382549Y-120987377D01*
X115453977Y-121111095D01*
X115507976Y-121299862D01*
X115514356Y-121406150D01*
X115479496Y-121536248D01*
X115379588Y-121648916D01*
X115173391Y-121767963D01*
X116163134Y-121196535D02*
X116056846Y-121202915D01*
X115991798Y-121185485D01*
X115902939Y-121126816D01*
X115760082Y-120879380D01*
X115753702Y-120773092D01*
X115771132Y-120708043D01*
X115829801Y-120619185D01*
X115953519Y-120547756D01*
X116059807Y-120541376D01*
X116124856Y-120558806D01*
X116213714Y-120617475D01*
X116356572Y-120864911D01*
X116362951Y-120971199D01*
X116345521Y-121036248D01*
X116286852Y-121125106D01*
X116163134Y-121196535D01*
X116860784Y-120023946D02*
X117194117Y-120601297D01*
X116489630Y-120238232D02*
X116751535Y-120691865D01*
X116840393Y-120750534D01*
X116946681Y-120744154D01*
X117070399Y-120672725D01*
X117129068Y-120583867D01*
X117146498Y-120518818D01*
X117149459Y-119857280D02*
X117479373Y-119666804D01*
X117106510Y-119497176D02*
X117535082Y-120239484D01*
X117623940Y-120298153D01*
X117730228Y-120291773D01*
X117812707Y-120244154D01*
X158983492Y-67228906D02*
X159643321Y-66847954D01*
X159503882Y-67368344D02*
X159122930Y-66708515D01*
X160158583Y-65835652D02*
X159746190Y-66073747D01*
X159943046Y-66509950D01*
X159960476Y-66444901D01*
X160019145Y-66356043D01*
X160225341Y-66236995D01*
X160331629Y-66230616D01*
X160396678Y-66248045D01*
X160485537Y-66306714D01*
X160604584Y-66512911D01*
X160610964Y-66619199D01*
X160593534Y-66684248D01*
X160534865Y-66773106D01*
X160328669Y-66892154D01*
X160222380Y-66898534D01*
X160157332Y-66881104D01*
X160655164Y-65933851D02*
X161194694Y-66392154D01*
X161067557Y-65695756D01*
X161528391Y-71809481D02*
X161028391Y-70943456D01*
X161234588Y-70824408D01*
X161382115Y-70794219D01*
X161512213Y-70829079D01*
X161601071Y-70887748D01*
X161737549Y-71028895D01*
X161808977Y-71152613D01*
X161862976Y-71341380D01*
X161869356Y-71447668D01*
X161834496Y-71577766D01*
X161734588Y-71690434D01*
X161528391Y-71809481D01*
X162518134Y-71238053D02*
X162411846Y-71244433D01*
X162346798Y-71227003D01*
X162257939Y-71168334D01*
X162115082Y-70920898D01*
X162108702Y-70814610D01*
X162126132Y-70749561D01*
X162184801Y-70660703D01*
X162308519Y-70589274D01*
X162414807Y-70582894D01*
X162479856Y-70600324D01*
X162568714Y-70658993D01*
X162711572Y-70906429D01*
X162717951Y-71012717D01*
X162700521Y-71077766D01*
X162641852Y-71166624D01*
X162518134Y-71238053D01*
X163215784Y-70065464D02*
X163549117Y-70642815D01*
X162844630Y-70279750D02*
X163106535Y-70733383D01*
X163195393Y-70792052D01*
X163301681Y-70785672D01*
X163425399Y-70714243D01*
X163484068Y-70625385D01*
X163501498Y-70560336D01*
X163504459Y-69898798D02*
X163834373Y-69708322D01*
X163461510Y-69538694D02*
X163890082Y-70281002D01*
X163978940Y-70339671D01*
X164085228Y-70333291D01*
X164167707Y-70285672D01*
X160945404Y-68939963D02*
X160445404Y-68073938D01*
X160651600Y-67954890D01*
X160799128Y-67924701D01*
X160929225Y-67959561D01*
X161018084Y-68018230D01*
X161154561Y-68159377D01*
X161225990Y-68283095D01*
X161279989Y-68471862D01*
X161286368Y-68578150D01*
X161251509Y-68708248D01*
X161151600Y-68820916D01*
X160945404Y-68939963D01*
X161811429Y-68439963D02*
X161478096Y-67862613D01*
X161311429Y-67573938D02*
X161294000Y-67638987D01*
X161359048Y-67656417D01*
X161376478Y-67591368D01*
X161311429Y-67573938D01*
X161359048Y-67656417D01*
X161890489Y-67624518D02*
X162223822Y-68201868D01*
X161938108Y-67706996D02*
X161955538Y-67641948D01*
X162014207Y-67553089D01*
X162137925Y-67481661D01*
X162244213Y-67475281D01*
X162333071Y-67533950D01*
X162594976Y-67987582D01*
X113324010Y-68753582D02*
X113824010Y-67887557D01*
X114030207Y-68006605D01*
X114130115Y-68119273D01*
X114164975Y-68249370D01*
X114158595Y-68355658D01*
X114104596Y-68544425D01*
X114033168Y-68668143D01*
X113896690Y-68809291D01*
X113807832Y-68867960D01*
X113677734Y-68902819D01*
X113530207Y-68872630D01*
X113324010Y-68753582D01*
X114313754Y-69325011D02*
X114255084Y-69236153D01*
X114237655Y-69171104D01*
X114244034Y-69064816D01*
X114386892Y-68817380D01*
X114475750Y-68758711D01*
X114540799Y-68741281D01*
X114647087Y-68747661D01*
X114770805Y-68819089D01*
X114829474Y-68907948D01*
X114846904Y-68972996D01*
X114840524Y-69079285D01*
X114697667Y-69326720D01*
X114608808Y-69385390D01*
X114543760Y-69402819D01*
X114437471Y-69396440D01*
X114313754Y-69325011D01*
X115678069Y-69342899D02*
X115344736Y-69920249D01*
X115306916Y-69128613D02*
X115045011Y-69582245D01*
X115038631Y-69688534D01*
X115097300Y-69777392D01*
X115221018Y-69848821D01*
X115327306Y-69855200D01*
X115392355Y-69837770D01*
X115966745Y-69509565D02*
X116296659Y-69700042D01*
X116257129Y-69292319D02*
X115828558Y-70034626D01*
X115822178Y-70140915D01*
X115880847Y-70229773D01*
X115963326Y-70277392D01*
X158969023Y-119930582D02*
X159469023Y-119064557D01*
X159675219Y-119183605D01*
X159775128Y-119296273D01*
X159809987Y-119426370D01*
X159803608Y-119532658D01*
X159749609Y-119721425D01*
X159678180Y-119845143D01*
X159541703Y-119986291D01*
X159452845Y-120044960D01*
X159322747Y-120079819D01*
X159175219Y-120049630D01*
X158969023Y-119930582D01*
X159835048Y-120430582D02*
X160168382Y-119853232D01*
X160335048Y-119564557D02*
X160270000Y-119581987D01*
X160287429Y-119647036D01*
X160352478Y-119629606D01*
X160335048Y-119564557D01*
X160287429Y-119647036D01*
X160580775Y-120091327D02*
X160247441Y-120668678D01*
X160533156Y-120173806D02*
X160598204Y-120156376D01*
X160704493Y-120162756D01*
X160828211Y-120234185D01*
X160886880Y-120323043D01*
X160880500Y-120429331D01*
X160618595Y-120882963D01*
X111979023Y-71035582D02*
X112479023Y-70169557D01*
X112685219Y-70288605D01*
X112785128Y-70401273D01*
X112819987Y-70531370D01*
X112813608Y-70637658D01*
X112759609Y-70826425D01*
X112688180Y-70950143D01*
X112551703Y-71091291D01*
X112462845Y-71149960D01*
X112332747Y-71184819D01*
X112185219Y-71154630D01*
X111979023Y-71035582D01*
X112845048Y-71535582D02*
X113178382Y-70958232D01*
X113345048Y-70669557D02*
X113280000Y-70686987D01*
X113297429Y-70752036D01*
X113362478Y-70734606D01*
X113345048Y-70669557D01*
X113297429Y-70752036D01*
X113590775Y-71196327D02*
X113257441Y-71773678D01*
X113543156Y-71278806D02*
X113608204Y-71261376D01*
X113714493Y-71267756D01*
X113838211Y-71339185D01*
X113896880Y-71428043D01*
X113890500Y-71534331D01*
X113628595Y-71987963D01*
X114674824Y-65967001D02*
X115334653Y-66347954D01*
X114814262Y-66487392D02*
X115195215Y-65827563D01*
X116468963Y-66288033D02*
X116056570Y-66049938D01*
X115777235Y-66438521D01*
X115842284Y-66421092D01*
X115948572Y-66427471D01*
X116154769Y-66546519D01*
X116213438Y-66635377D01*
X116230868Y-66700426D01*
X116224488Y-66806714D01*
X116105440Y-67012911D01*
X116016582Y-67071580D01*
X115951533Y-67089010D01*
X115845245Y-67082630D01*
X115639048Y-66963582D01*
X115580379Y-66874724D01*
X115562949Y-66809675D01*
X116757638Y-66454700D02*
X116546313Y-67487392D01*
X117334988Y-66788033D01*
X159928063Y-117298811D02*
X160587892Y-117679763D01*
X160067502Y-117819201D02*
X160448454Y-117159373D01*
X161722202Y-117619843D02*
X161309809Y-117381747D01*
X161030474Y-117770331D01*
X161095523Y-117752901D01*
X161201811Y-117759281D01*
X161408008Y-117878329D01*
X161466677Y-117967187D01*
X161484107Y-118032236D01*
X161477727Y-118138524D01*
X161358679Y-118344720D01*
X161269821Y-118403390D01*
X161204772Y-118420819D01*
X161098484Y-118414440D01*
X160892288Y-118295392D01*
X160833619Y-118206534D01*
X160816189Y-118141485D01*
X161885450Y-118098994D02*
X161758313Y-118795392D01*
X162297843Y-118337089D01*
X156631010Y-121585582D02*
X157131010Y-120719557D01*
X157337207Y-120838605D01*
X157437115Y-120951273D01*
X157471975Y-121081370D01*
X157465595Y-121187658D01*
X157411596Y-121376425D01*
X157340168Y-121500143D01*
X157203690Y-121641291D01*
X157114832Y-121699960D01*
X156984734Y-121734819D01*
X156837207Y-121704630D01*
X156631010Y-121585582D01*
X157620754Y-122157011D02*
X157562084Y-122068153D01*
X157544655Y-122003104D01*
X157551034Y-121896816D01*
X157693892Y-121649380D01*
X157782750Y-121590711D01*
X157847799Y-121573281D01*
X157954087Y-121579661D01*
X158077805Y-121651089D01*
X158136474Y-121739948D01*
X158153904Y-121804996D01*
X158147524Y-121911285D01*
X158004667Y-122158720D01*
X157915808Y-122217390D01*
X157850760Y-122234819D01*
X157744471Y-122228440D01*
X157620754Y-122157011D01*
X158985069Y-122174899D02*
X158651736Y-122752249D01*
X158613916Y-121960613D02*
X158352011Y-122414245D01*
X158345631Y-122520534D01*
X158404300Y-122609392D01*
X158528018Y-122680821D01*
X158634306Y-122687200D01*
X158699355Y-122669770D01*
X159273745Y-122341565D02*
X159603659Y-122532042D01*
X159564129Y-122124319D02*
X159135558Y-122866626D01*
X159129178Y-122972915D01*
X159187847Y-123061773D01*
X159270326Y-123109392D01*
X113771492Y-119552906D02*
X114431321Y-119171954D01*
X114291882Y-119692344D02*
X113910930Y-119032515D01*
X114946583Y-118159652D02*
X114534190Y-118397747D01*
X114731046Y-118833950D01*
X114748476Y-118768901D01*
X114807145Y-118680043D01*
X115013341Y-118560995D01*
X115119629Y-118554616D01*
X115184678Y-118572045D01*
X115273537Y-118630714D01*
X115392584Y-118836911D01*
X115398964Y-118943199D01*
X115381534Y-119008248D01*
X115322865Y-119097106D01*
X115116669Y-119216154D01*
X115010380Y-119222534D01*
X114945332Y-119205104D01*
X115443164Y-118257851D02*
X115982694Y-118716154D01*
X115855557Y-118019756D01*
X138495833Y-68937142D02*
X138448214Y-68984761D01*
X138305357Y-69032380D01*
X138210119Y-69032380D01*
X138067261Y-68984761D01*
X137972023Y-68889523D01*
X137924404Y-68794285D01*
X137876785Y-68603809D01*
X137876785Y-68460952D01*
X137924404Y-68270476D01*
X137972023Y-68175238D01*
X138067261Y-68080000D01*
X138210119Y-68032380D01*
X138305357Y-68032380D01*
X138448214Y-68080000D01*
X138495833Y-68127619D01*
X139448214Y-69032380D02*
X138876785Y-69032380D01*
X139162500Y-69032380D02*
X139162500Y-68032380D01*
X139067261Y-68175238D01*
X138972023Y-68270476D01*
X138876785Y-68318095D01*
X153735833Y-68937142D02*
X153688214Y-68984761D01*
X153545357Y-69032380D01*
X153450119Y-69032380D01*
X153307261Y-68984761D01*
X153212023Y-68889523D01*
X153164404Y-68794285D01*
X153116785Y-68603809D01*
X153116785Y-68460952D01*
X153164404Y-68270476D01*
X153212023Y-68175238D01*
X153307261Y-68080000D01*
X153450119Y-68032380D01*
X153545357Y-68032380D01*
X153688214Y-68080000D01*
X153735833Y-68127619D01*
X154116785Y-68127619D02*
X154164404Y-68080000D01*
X154259642Y-68032380D01*
X154497738Y-68032380D01*
X154592976Y-68080000D01*
X154640595Y-68127619D01*
X154688214Y-68222857D01*
X154688214Y-68318095D01*
X154640595Y-68460952D01*
X154069166Y-69032380D01*
X154688214Y-69032380D01*
X110555833Y-84177142D02*
X110508214Y-84224761D01*
X110365357Y-84272380D01*
X110270119Y-84272380D01*
X110127261Y-84224761D01*
X110032023Y-84129523D01*
X109984404Y-84034285D01*
X109936785Y-83843809D01*
X109936785Y-83700952D01*
X109984404Y-83510476D01*
X110032023Y-83415238D01*
X110127261Y-83320000D01*
X110270119Y-83272380D01*
X110365357Y-83272380D01*
X110508214Y-83320000D01*
X110555833Y-83367619D01*
X110889166Y-83272380D02*
X111508214Y-83272380D01*
X111174880Y-83653333D01*
X111317738Y-83653333D01*
X111412976Y-83700952D01*
X111460595Y-83748571D01*
X111508214Y-83843809D01*
X111508214Y-84081904D01*
X111460595Y-84177142D01*
X111412976Y-84224761D01*
X111317738Y-84272380D01*
X111032023Y-84272380D01*
X110936785Y-84224761D01*
X110889166Y-84177142D01*
X123255833Y-84177142D02*
X123208214Y-84224761D01*
X123065357Y-84272380D01*
X122970119Y-84272380D01*
X122827261Y-84224761D01*
X122732023Y-84129523D01*
X122684404Y-84034285D01*
X122636785Y-83843809D01*
X122636785Y-83700952D01*
X122684404Y-83510476D01*
X122732023Y-83415238D01*
X122827261Y-83320000D01*
X122970119Y-83272380D01*
X123065357Y-83272380D01*
X123208214Y-83320000D01*
X123255833Y-83367619D01*
X124112976Y-83605714D02*
X124112976Y-84272380D01*
X123874880Y-83224761D02*
X123636785Y-83939047D01*
X124255833Y-83939047D01*
X138495833Y-84177142D02*
X138448214Y-84224761D01*
X138305357Y-84272380D01*
X138210119Y-84272380D01*
X138067261Y-84224761D01*
X137972023Y-84129523D01*
X137924404Y-84034285D01*
X137876785Y-83843809D01*
X137876785Y-83700952D01*
X137924404Y-83510476D01*
X137972023Y-83415238D01*
X138067261Y-83320000D01*
X138210119Y-83272380D01*
X138305357Y-83272380D01*
X138448214Y-83320000D01*
X138495833Y-83367619D01*
X139400595Y-83272380D02*
X138924404Y-83272380D01*
X138876785Y-83748571D01*
X138924404Y-83700952D01*
X139019642Y-83653333D01*
X139257738Y-83653333D01*
X139352976Y-83700952D01*
X139400595Y-83748571D01*
X139448214Y-83843809D01*
X139448214Y-84081904D01*
X139400595Y-84177142D01*
X139352976Y-84224761D01*
X139257738Y-84272380D01*
X139019642Y-84272380D01*
X138924404Y-84224761D01*
X138876785Y-84177142D01*
X153735833Y-84177142D02*
X153688214Y-84224761D01*
X153545357Y-84272380D01*
X153450119Y-84272380D01*
X153307261Y-84224761D01*
X153212023Y-84129523D01*
X153164404Y-84034285D01*
X153116785Y-83843809D01*
X153116785Y-83700952D01*
X153164404Y-83510476D01*
X153212023Y-83415238D01*
X153307261Y-83320000D01*
X153450119Y-83272380D01*
X153545357Y-83272380D01*
X153688214Y-83320000D01*
X153735833Y-83367619D01*
X154592976Y-83272380D02*
X154402500Y-83272380D01*
X154307261Y-83320000D01*
X154259642Y-83367619D01*
X154164404Y-83510476D01*
X154116785Y-83700952D01*
X154116785Y-84081904D01*
X154164404Y-84177142D01*
X154212023Y-84224761D01*
X154307261Y-84272380D01*
X154497738Y-84272380D01*
X154592976Y-84224761D01*
X154640595Y-84177142D01*
X154688214Y-84081904D01*
X154688214Y-83843809D01*
X154640595Y-83748571D01*
X154592976Y-83700952D01*
X154497738Y-83653333D01*
X154307261Y-83653333D01*
X154212023Y-83700952D01*
X154164404Y-83748571D01*
X154116785Y-83843809D01*
X166435833Y-84177142D02*
X166388214Y-84224761D01*
X166245357Y-84272380D01*
X166150119Y-84272380D01*
X166007261Y-84224761D01*
X165912023Y-84129523D01*
X165864404Y-84034285D01*
X165816785Y-83843809D01*
X165816785Y-83700952D01*
X165864404Y-83510476D01*
X165912023Y-83415238D01*
X166007261Y-83320000D01*
X166150119Y-83272380D01*
X166245357Y-83272380D01*
X166388214Y-83320000D01*
X166435833Y-83367619D01*
X166769166Y-83272380D02*
X167435833Y-83272380D01*
X167007261Y-84272380D01*
X105475833Y-99417142D02*
X105428214Y-99464761D01*
X105285357Y-99512380D01*
X105190119Y-99512380D01*
X105047261Y-99464761D01*
X104952023Y-99369523D01*
X104904404Y-99274285D01*
X104856785Y-99083809D01*
X104856785Y-98940952D01*
X104904404Y-98750476D01*
X104952023Y-98655238D01*
X105047261Y-98560000D01*
X105190119Y-98512380D01*
X105285357Y-98512380D01*
X105428214Y-98560000D01*
X105475833Y-98607619D01*
X106047261Y-98940952D02*
X105952023Y-98893333D01*
X105904404Y-98845714D01*
X105856785Y-98750476D01*
X105856785Y-98702857D01*
X105904404Y-98607619D01*
X105952023Y-98560000D01*
X106047261Y-98512380D01*
X106237738Y-98512380D01*
X106332976Y-98560000D01*
X106380595Y-98607619D01*
X106428214Y-98702857D01*
X106428214Y-98750476D01*
X106380595Y-98845714D01*
X106332976Y-98893333D01*
X106237738Y-98940952D01*
X106047261Y-98940952D01*
X105952023Y-98988571D01*
X105904404Y-99036190D01*
X105856785Y-99131428D01*
X105856785Y-99321904D01*
X105904404Y-99417142D01*
X105952023Y-99464761D01*
X106047261Y-99512380D01*
X106237738Y-99512380D01*
X106332976Y-99464761D01*
X106380595Y-99417142D01*
X106428214Y-99321904D01*
X106428214Y-99131428D01*
X106380595Y-99036190D01*
X106332976Y-98988571D01*
X106237738Y-98940952D01*
X123255833Y-99417142D02*
X123208214Y-99464761D01*
X123065357Y-99512380D01*
X122970119Y-99512380D01*
X122827261Y-99464761D01*
X122732023Y-99369523D01*
X122684404Y-99274285D01*
X122636785Y-99083809D01*
X122636785Y-98940952D01*
X122684404Y-98750476D01*
X122732023Y-98655238D01*
X122827261Y-98560000D01*
X122970119Y-98512380D01*
X123065357Y-98512380D01*
X123208214Y-98560000D01*
X123255833Y-98607619D01*
X123732023Y-99512380D02*
X123922500Y-99512380D01*
X124017738Y-99464761D01*
X124065357Y-99417142D01*
X124160595Y-99274285D01*
X124208214Y-99083809D01*
X124208214Y-98702857D01*
X124160595Y-98607619D01*
X124112976Y-98560000D01*
X124017738Y-98512380D01*
X123827261Y-98512380D01*
X123732023Y-98560000D01*
X123684404Y-98607619D01*
X123636785Y-98702857D01*
X123636785Y-98940952D01*
X123684404Y-99036190D01*
X123732023Y-99083809D01*
X123827261Y-99131428D01*
X124017738Y-99131428D01*
X124112976Y-99083809D01*
X124160595Y-99036190D01*
X124208214Y-98940952D01*
X138019642Y-99417142D02*
X137972023Y-99464761D01*
X137829166Y-99512380D01*
X137733928Y-99512380D01*
X137591071Y-99464761D01*
X137495833Y-99369523D01*
X137448214Y-99274285D01*
X137400595Y-99083809D01*
X137400595Y-98940952D01*
X137448214Y-98750476D01*
X137495833Y-98655238D01*
X137591071Y-98560000D01*
X137733928Y-98512380D01*
X137829166Y-98512380D01*
X137972023Y-98560000D01*
X138019642Y-98607619D01*
X138972023Y-99512380D02*
X138400595Y-99512380D01*
X138686309Y-99512380D02*
X138686309Y-98512380D01*
X138591071Y-98655238D01*
X138495833Y-98750476D01*
X138400595Y-98798095D01*
X139591071Y-98512380D02*
X139686309Y-98512380D01*
X139781547Y-98560000D01*
X139829166Y-98607619D01*
X139876785Y-98702857D01*
X139924404Y-98893333D01*
X139924404Y-99131428D01*
X139876785Y-99321904D01*
X139829166Y-99417142D01*
X139781547Y-99464761D01*
X139686309Y-99512380D01*
X139591071Y-99512380D01*
X139495833Y-99464761D01*
X139448214Y-99417142D01*
X139400595Y-99321904D01*
X139352976Y-99131428D01*
X139352976Y-98893333D01*
X139400595Y-98702857D01*
X139448214Y-98607619D01*
X139495833Y-98560000D01*
X139591071Y-98512380D01*
X153259642Y-99417142D02*
X153212023Y-99464761D01*
X153069166Y-99512380D01*
X152973928Y-99512380D01*
X152831071Y-99464761D01*
X152735833Y-99369523D01*
X152688214Y-99274285D01*
X152640595Y-99083809D01*
X152640595Y-98940952D01*
X152688214Y-98750476D01*
X152735833Y-98655238D01*
X152831071Y-98560000D01*
X152973928Y-98512380D01*
X153069166Y-98512380D01*
X153212023Y-98560000D01*
X153259642Y-98607619D01*
X154212023Y-99512380D02*
X153640595Y-99512380D01*
X153926309Y-99512380D02*
X153926309Y-98512380D01*
X153831071Y-98655238D01*
X153735833Y-98750476D01*
X153640595Y-98798095D01*
X155164404Y-99512380D02*
X154592976Y-99512380D01*
X154878690Y-99512380D02*
X154878690Y-98512380D01*
X154783452Y-98655238D01*
X154688214Y-98750476D01*
X154592976Y-98798095D01*
X110003442Y-114657142D02*
X109955823Y-114704761D01*
X109812966Y-114752380D01*
X109717728Y-114752380D01*
X109574871Y-114704761D01*
X109479633Y-114609523D01*
X109432014Y-114514285D01*
X109384395Y-114323809D01*
X109384395Y-114180952D01*
X109432014Y-113990476D01*
X109479633Y-113895238D01*
X109574871Y-113800000D01*
X109717728Y-113752380D01*
X109812966Y-113752380D01*
X109955823Y-113800000D01*
X110003442Y-113847619D01*
X110955823Y-114752380D02*
X110384395Y-114752380D01*
X110670109Y-114752380D02*
X110670109Y-113752380D01*
X110574871Y-113895238D01*
X110479633Y-113990476D01*
X110384395Y-114038095D01*
X111289157Y-113752380D02*
X111908204Y-113752380D01*
X111574871Y-114133333D01*
X111717728Y-114133333D01*
X111812966Y-114180952D01*
X111860585Y-114228571D01*
X111908204Y-114323809D01*
X111908204Y-114561904D01*
X111860585Y-114657142D01*
X111812966Y-114704761D01*
X111717728Y-114752380D01*
X111432014Y-114752380D01*
X111336776Y-114704761D01*
X111289157Y-114657142D01*
X138019642Y-114657142D02*
X137972023Y-114704761D01*
X137829166Y-114752380D01*
X137733928Y-114752380D01*
X137591071Y-114704761D01*
X137495833Y-114609523D01*
X137448214Y-114514285D01*
X137400595Y-114323809D01*
X137400595Y-114180952D01*
X137448214Y-113990476D01*
X137495833Y-113895238D01*
X137591071Y-113800000D01*
X137733928Y-113752380D01*
X137829166Y-113752380D01*
X137972023Y-113800000D01*
X138019642Y-113847619D01*
X138972023Y-114752380D02*
X138400595Y-114752380D01*
X138686309Y-114752380D02*
X138686309Y-113752380D01*
X138591071Y-113895238D01*
X138495833Y-113990476D01*
X138400595Y-114038095D01*
X139876785Y-113752380D02*
X139400595Y-113752380D01*
X139352976Y-114228571D01*
X139400595Y-114180952D01*
X139495833Y-114133333D01*
X139733928Y-114133333D01*
X139829166Y-114180952D01*
X139876785Y-114228571D01*
X139924404Y-114323809D01*
X139924404Y-114561904D01*
X139876785Y-114657142D01*
X139829166Y-114704761D01*
X139733928Y-114752380D01*
X139495833Y-114752380D01*
X139400595Y-114704761D01*
X139352976Y-114657142D01*
X153259642Y-114657142D02*
X153212023Y-114704761D01*
X153069166Y-114752380D01*
X152973928Y-114752380D01*
X152831071Y-114704761D01*
X152735833Y-114609523D01*
X152688214Y-114514285D01*
X152640595Y-114323809D01*
X152640595Y-114180952D01*
X152688214Y-113990476D01*
X152735833Y-113895238D01*
X152831071Y-113800000D01*
X152973928Y-113752380D01*
X153069166Y-113752380D01*
X153212023Y-113800000D01*
X153259642Y-113847619D01*
X154212023Y-114752380D02*
X153640595Y-114752380D01*
X153926309Y-114752380D02*
X153926309Y-113752380D01*
X153831071Y-113895238D01*
X153735833Y-113990476D01*
X153640595Y-114038095D01*
X155069166Y-113752380D02*
X154878690Y-113752380D01*
X154783452Y-113800000D01*
X154735833Y-113847619D01*
X154640595Y-113990476D01*
X154592976Y-114180952D01*
X154592976Y-114561904D01*
X154640595Y-114657142D01*
X154688214Y-114704761D01*
X154783452Y-114752380D01*
X154973928Y-114752380D01*
X155069166Y-114704761D01*
X155116785Y-114657142D01*
X155164404Y-114561904D01*
X155164404Y-114323809D01*
X155116785Y-114228571D01*
X155069166Y-114180952D01*
X154973928Y-114133333D01*
X154783452Y-114133333D01*
X154688214Y-114180952D01*
X154640595Y-114228571D01*
X154592976Y-114323809D01*
X168499642Y-114657142D02*
X168452023Y-114704761D01*
X168309166Y-114752380D01*
X168213928Y-114752380D01*
X168071071Y-114704761D01*
X167975833Y-114609523D01*
X167928214Y-114514285D01*
X167880595Y-114323809D01*
X167880595Y-114180952D01*
X167928214Y-113990476D01*
X167975833Y-113895238D01*
X168071071Y-113800000D01*
X168213928Y-113752380D01*
X168309166Y-113752380D01*
X168452023Y-113800000D01*
X168499642Y-113847619D01*
X169452023Y-114752380D02*
X168880595Y-114752380D01*
X169166309Y-114752380D02*
X169166309Y-113752380D01*
X169071071Y-113895238D01*
X168975833Y-113990476D01*
X168880595Y-114038095D01*
X169785357Y-113752380D02*
X170452023Y-113752380D01*
X170023452Y-114752380D01*
X122779642Y-129897142D02*
X122732023Y-129944761D01*
X122589166Y-129992380D01*
X122493928Y-129992380D01*
X122351071Y-129944761D01*
X122255833Y-129849523D01*
X122208214Y-129754285D01*
X122160595Y-129563809D01*
X122160595Y-129420952D01*
X122208214Y-129230476D01*
X122255833Y-129135238D01*
X122351071Y-129040000D01*
X122493928Y-128992380D01*
X122589166Y-128992380D01*
X122732023Y-129040000D01*
X122779642Y-129087619D01*
X123732023Y-129992380D02*
X123160595Y-129992380D01*
X123446309Y-129992380D02*
X123446309Y-128992380D01*
X123351071Y-129135238D01*
X123255833Y-129230476D01*
X123160595Y-129278095D01*
X124303452Y-129420952D02*
X124208214Y-129373333D01*
X124160595Y-129325714D01*
X124112976Y-129230476D01*
X124112976Y-129182857D01*
X124160595Y-129087619D01*
X124208214Y-129040000D01*
X124303452Y-128992380D01*
X124493928Y-128992380D01*
X124589166Y-129040000D01*
X124636785Y-129087619D01*
X124684404Y-129182857D01*
X124684404Y-129230476D01*
X124636785Y-129325714D01*
X124589166Y-129373333D01*
X124493928Y-129420952D01*
X124303452Y-129420952D01*
X124208214Y-129468571D01*
X124160595Y-129516190D01*
X124112976Y-129611428D01*
X124112976Y-129801904D01*
X124160595Y-129897142D01*
X124208214Y-129944761D01*
X124303452Y-129992380D01*
X124493928Y-129992380D01*
X124589166Y-129944761D01*
X124636785Y-129897142D01*
X124684404Y-129801904D01*
X124684404Y-129611428D01*
X124636785Y-129516190D01*
X124589166Y-129468571D01*
X124493928Y-129420952D01*
X138019642Y-129897142D02*
X137972023Y-129944761D01*
X137829166Y-129992380D01*
X137733928Y-129992380D01*
X137591071Y-129944761D01*
X137495833Y-129849523D01*
X137448214Y-129754285D01*
X137400595Y-129563809D01*
X137400595Y-129420952D01*
X137448214Y-129230476D01*
X137495833Y-129135238D01*
X137591071Y-129040000D01*
X137733928Y-128992380D01*
X137829166Y-128992380D01*
X137972023Y-129040000D01*
X138019642Y-129087619D01*
X138972023Y-129992380D02*
X138400595Y-129992380D01*
X138686309Y-129992380D02*
X138686309Y-128992380D01*
X138591071Y-129135238D01*
X138495833Y-129230476D01*
X138400595Y-129278095D01*
X139448214Y-129992380D02*
X139638690Y-129992380D01*
X139733928Y-129944761D01*
X139781547Y-129897142D01*
X139876785Y-129754285D01*
X139924404Y-129563809D01*
X139924404Y-129182857D01*
X139876785Y-129087619D01*
X139829166Y-129040000D01*
X139733928Y-128992380D01*
X139543452Y-128992380D01*
X139448214Y-129040000D01*
X139400595Y-129087619D01*
X139352976Y-129182857D01*
X139352976Y-129420952D01*
X139400595Y-129516190D01*
X139448214Y-129563809D01*
X139543452Y-129611428D01*
X139733928Y-129611428D01*
X139829166Y-129563809D01*
X139876785Y-129516190D01*
X139924404Y-129420952D01*
X153259642Y-129897142D02*
X153212023Y-129944761D01*
X153069166Y-129992380D01*
X152973928Y-129992380D01*
X152831071Y-129944761D01*
X152735833Y-129849523D01*
X152688214Y-129754285D01*
X152640595Y-129563809D01*
X152640595Y-129420952D01*
X152688214Y-129230476D01*
X152735833Y-129135238D01*
X152831071Y-129040000D01*
X152973928Y-128992380D01*
X153069166Y-128992380D01*
X153212023Y-129040000D01*
X153259642Y-129087619D01*
X153640595Y-129087619D02*
X153688214Y-129040000D01*
X153783452Y-128992380D01*
X154021547Y-128992380D01*
X154116785Y-129040000D01*
X154164404Y-129087619D01*
X154212023Y-129182857D01*
X154212023Y-129278095D01*
X154164404Y-129420952D01*
X153592976Y-129992380D01*
X154212023Y-129992380D01*
X154831071Y-128992380D02*
X154926309Y-128992380D01*
X155021547Y-129040000D01*
X155069166Y-129087619D01*
X155116785Y-129182857D01*
X155164404Y-129373333D01*
X155164404Y-129611428D01*
X155116785Y-129801904D01*
X155069166Y-129897142D01*
X155021547Y-129944761D01*
X154926309Y-129992380D01*
X154831071Y-129992380D01*
X154735833Y-129944761D01*
X154688214Y-129897142D01*
X154640595Y-129801904D01*
X154592976Y-129611428D01*
X154592976Y-129373333D01*
X154640595Y-129182857D01*
X154688214Y-129087619D01*
X154735833Y-129040000D01*
X154831071Y-128992380D01*
X171039642Y-99417142D02*
X170992023Y-99464761D01*
X170849166Y-99512380D01*
X170753928Y-99512380D01*
X170611071Y-99464761D01*
X170515833Y-99369523D01*
X170468214Y-99274285D01*
X170420595Y-99083809D01*
X170420595Y-98940952D01*
X170468214Y-98750476D01*
X170515833Y-98655238D01*
X170611071Y-98560000D01*
X170753928Y-98512380D01*
X170849166Y-98512380D01*
X170992023Y-98560000D01*
X171039642Y-98607619D01*
X171992023Y-99512380D02*
X171420595Y-99512380D01*
X171706309Y-99512380D02*
X171706309Y-98512380D01*
X171611071Y-98655238D01*
X171515833Y-98750476D01*
X171420595Y-98798095D01*
X172372976Y-98607619D02*
X172420595Y-98560000D01*
X172515833Y-98512380D01*
X172753928Y-98512380D01*
X172849166Y-98560000D01*
X172896785Y-98607619D01*
X172944404Y-98702857D01*
X172944404Y-98798095D01*
X172896785Y-98940952D01*
X172325357Y-99512380D01*
X172944404Y-99512380D01*
X122779642Y-114657142D02*
X122732023Y-114704761D01*
X122589166Y-114752380D01*
X122493928Y-114752380D01*
X122351071Y-114704761D01*
X122255833Y-114609523D01*
X122208214Y-114514285D01*
X122160595Y-114323809D01*
X122160595Y-114180952D01*
X122208214Y-113990476D01*
X122255833Y-113895238D01*
X122351071Y-113800000D01*
X122493928Y-113752380D01*
X122589166Y-113752380D01*
X122732023Y-113800000D01*
X122779642Y-113847619D01*
X123732023Y-114752380D02*
X123160595Y-114752380D01*
X123446309Y-114752380D02*
X123446309Y-113752380D01*
X123351071Y-113895238D01*
X123255833Y-113990476D01*
X123160595Y-114038095D01*
X124589166Y-114085714D02*
X124589166Y-114752380D01*
X124351071Y-113704761D02*
X124112976Y-114419047D01*
X124732023Y-114419047D01*
X123255833Y-68937142D02*
X123208214Y-68984761D01*
X123065357Y-69032380D01*
X122970119Y-69032380D01*
X122827261Y-68984761D01*
X122732023Y-68889523D01*
X122684404Y-68794285D01*
X122636785Y-68603809D01*
X122636785Y-68460952D01*
X122684404Y-68270476D01*
X122732023Y-68175238D01*
X122827261Y-68080000D01*
X122970119Y-68032380D01*
X123065357Y-68032380D01*
X123208214Y-68080000D01*
X123255833Y-68127619D01*
X123874880Y-68032380D02*
X123970119Y-68032380D01*
X124065357Y-68080000D01*
X124112976Y-68127619D01*
X124160595Y-68222857D01*
X124208214Y-68413333D01*
X124208214Y-68651428D01*
X124160595Y-68841904D01*
X124112976Y-68937142D01*
X124065357Y-68984761D01*
X123970119Y-69032380D01*
X123874880Y-69032380D01*
X123779642Y-68984761D01*
X123732023Y-68937142D01*
X123684404Y-68841904D01*
X123636785Y-68651428D01*
X123636785Y-68413333D01*
X123684404Y-68222857D01*
X123732023Y-68127619D01*
X123779642Y-68080000D01*
X123874880Y-68032380D01*
X119812380Y-61788095D02*
X118812380Y-61788095D01*
X118812380Y-61550000D01*
X118860000Y-61407142D01*
X118955238Y-61311904D01*
X119050476Y-61264285D01*
X119240952Y-61216666D01*
X119383809Y-61216666D01*
X119574285Y-61264285D01*
X119669523Y-61311904D01*
X119764761Y-61407142D01*
X119812380Y-61550000D01*
X119812380Y-61788095D01*
X118812380Y-60597619D02*
X118812380Y-60502380D01*
X118860000Y-60407142D01*
X118907619Y-60359523D01*
X119002857Y-60311904D01*
X119193333Y-60264285D01*
X119431428Y-60264285D01*
X119621904Y-60311904D01*
X119717142Y-60359523D01*
X119764761Y-60407142D01*
X119812380Y-60502380D01*
X119812380Y-60597619D01*
X119764761Y-60692857D01*
X119717142Y-60740476D01*
X119621904Y-60788095D01*
X119431428Y-60835714D01*
X119193333Y-60835714D01*
X119002857Y-60788095D01*
X118907619Y-60740476D01*
X118860000Y-60692857D01*
X118812380Y-60597619D01*
X121712380Y-64914285D02*
X121712380Y-65485714D01*
X121712380Y-65200000D02*
X120712380Y-65200000D01*
X120855238Y-65295238D01*
X120950476Y-65390476D01*
X120998095Y-65485714D01*
X135052380Y-61788095D02*
X134052380Y-61788095D01*
X134052380Y-61550000D01*
X134100000Y-61407142D01*
X134195238Y-61311904D01*
X134290476Y-61264285D01*
X134480952Y-61216666D01*
X134623809Y-61216666D01*
X134814285Y-61264285D01*
X134909523Y-61311904D01*
X135004761Y-61407142D01*
X135052380Y-61550000D01*
X135052380Y-61788095D01*
X135052380Y-60264285D02*
X135052380Y-60835714D01*
X135052380Y-60550000D02*
X134052380Y-60550000D01*
X134195238Y-60645238D01*
X134290476Y-60740476D01*
X134338095Y-60835714D01*
X136952380Y-64914285D02*
X136952380Y-65485714D01*
X136952380Y-65200000D02*
X135952380Y-65200000D01*
X136095238Y-65295238D01*
X136190476Y-65390476D01*
X136238095Y-65485714D01*
X150292380Y-61788095D02*
X149292380Y-61788095D01*
X149292380Y-61550000D01*
X149340000Y-61407142D01*
X149435238Y-61311904D01*
X149530476Y-61264285D01*
X149720952Y-61216666D01*
X149863809Y-61216666D01*
X150054285Y-61264285D01*
X150149523Y-61311904D01*
X150244761Y-61407142D01*
X150292380Y-61550000D01*
X150292380Y-61788095D01*
X149387619Y-60835714D02*
X149340000Y-60788095D01*
X149292380Y-60692857D01*
X149292380Y-60454761D01*
X149340000Y-60359523D01*
X149387619Y-60311904D01*
X149482857Y-60264285D01*
X149578095Y-60264285D01*
X149720952Y-60311904D01*
X150292380Y-60883333D01*
X150292380Y-60264285D01*
X152192380Y-64914285D02*
X152192380Y-65485714D01*
X152192380Y-65200000D02*
X151192380Y-65200000D01*
X151335238Y-65295238D01*
X151430476Y-65390476D01*
X151478095Y-65485714D01*
X107112380Y-76848095D02*
X106112380Y-76848095D01*
X106112380Y-76610000D01*
X106160000Y-76467142D01*
X106255238Y-76371904D01*
X106350476Y-76324285D01*
X106540952Y-76276666D01*
X106683809Y-76276666D01*
X106874285Y-76324285D01*
X106969523Y-76371904D01*
X107064761Y-76467142D01*
X107112380Y-76610000D01*
X107112380Y-76848095D01*
X106112380Y-75943333D02*
X106112380Y-75324285D01*
X106493333Y-75657619D01*
X106493333Y-75514761D01*
X106540952Y-75419523D01*
X106588571Y-75371904D01*
X106683809Y-75324285D01*
X106921904Y-75324285D01*
X107017142Y-75371904D01*
X107064761Y-75419523D01*
X107112380Y-75514761D01*
X107112380Y-75800476D01*
X107064761Y-75895714D01*
X107017142Y-75943333D01*
X109012380Y-79974285D02*
X109012380Y-80545714D01*
X109012380Y-80260000D02*
X108012380Y-80260000D01*
X108155238Y-80355238D01*
X108250476Y-80450476D01*
X108298095Y-80545714D01*
X119812380Y-76848095D02*
X118812380Y-76848095D01*
X118812380Y-76610000D01*
X118860000Y-76467142D01*
X118955238Y-76371904D01*
X119050476Y-76324285D01*
X119240952Y-76276666D01*
X119383809Y-76276666D01*
X119574285Y-76324285D01*
X119669523Y-76371904D01*
X119764761Y-76467142D01*
X119812380Y-76610000D01*
X119812380Y-76848095D01*
X119145714Y-75419523D02*
X119812380Y-75419523D01*
X118764761Y-75657619D02*
X119479047Y-75895714D01*
X119479047Y-75276666D01*
X121712380Y-79974285D02*
X121712380Y-80545714D01*
X121712380Y-80260000D02*
X120712380Y-80260000D01*
X120855238Y-80355238D01*
X120950476Y-80450476D01*
X120998095Y-80545714D01*
X135052380Y-76848095D02*
X134052380Y-76848095D01*
X134052380Y-76610000D01*
X134100000Y-76467142D01*
X134195238Y-76371904D01*
X134290476Y-76324285D01*
X134480952Y-76276666D01*
X134623809Y-76276666D01*
X134814285Y-76324285D01*
X134909523Y-76371904D01*
X135004761Y-76467142D01*
X135052380Y-76610000D01*
X135052380Y-76848095D01*
X134052380Y-75371904D02*
X134052380Y-75848095D01*
X134528571Y-75895714D01*
X134480952Y-75848095D01*
X134433333Y-75752857D01*
X134433333Y-75514761D01*
X134480952Y-75419523D01*
X134528571Y-75371904D01*
X134623809Y-75324285D01*
X134861904Y-75324285D01*
X134957142Y-75371904D01*
X135004761Y-75419523D01*
X135052380Y-75514761D01*
X135052380Y-75752857D01*
X135004761Y-75848095D01*
X134957142Y-75895714D01*
X136952380Y-79974285D02*
X136952380Y-80545714D01*
X136952380Y-80260000D02*
X135952380Y-80260000D01*
X136095238Y-80355238D01*
X136190476Y-80450476D01*
X136238095Y-80545714D01*
X150292380Y-76848095D02*
X149292380Y-76848095D01*
X149292380Y-76610000D01*
X149340000Y-76467142D01*
X149435238Y-76371904D01*
X149530476Y-76324285D01*
X149720952Y-76276666D01*
X149863809Y-76276666D01*
X150054285Y-76324285D01*
X150149523Y-76371904D01*
X150244761Y-76467142D01*
X150292380Y-76610000D01*
X150292380Y-76848095D01*
X149292380Y-75419523D02*
X149292380Y-75610000D01*
X149340000Y-75705238D01*
X149387619Y-75752857D01*
X149530476Y-75848095D01*
X149720952Y-75895714D01*
X150101904Y-75895714D01*
X150197142Y-75848095D01*
X150244761Y-75800476D01*
X150292380Y-75705238D01*
X150292380Y-75514761D01*
X150244761Y-75419523D01*
X150197142Y-75371904D01*
X150101904Y-75324285D01*
X149863809Y-75324285D01*
X149768571Y-75371904D01*
X149720952Y-75419523D01*
X149673333Y-75514761D01*
X149673333Y-75705238D01*
X149720952Y-75800476D01*
X149768571Y-75848095D01*
X149863809Y-75895714D01*
X152192380Y-79974285D02*
X152192380Y-80545714D01*
X152192380Y-80260000D02*
X151192380Y-80260000D01*
X151335238Y-80355238D01*
X151430476Y-80450476D01*
X151478095Y-80545714D01*
X162992380Y-76848095D02*
X161992380Y-76848095D01*
X161992380Y-76610000D01*
X162040000Y-76467142D01*
X162135238Y-76371904D01*
X162230476Y-76324285D01*
X162420952Y-76276666D01*
X162563809Y-76276666D01*
X162754285Y-76324285D01*
X162849523Y-76371904D01*
X162944761Y-76467142D01*
X162992380Y-76610000D01*
X162992380Y-76848095D01*
X161992380Y-75943333D02*
X161992380Y-75276666D01*
X162992380Y-75705238D01*
X164892380Y-79974285D02*
X164892380Y-80545714D01*
X164892380Y-80260000D02*
X163892380Y-80260000D01*
X164035238Y-80355238D01*
X164130476Y-80450476D01*
X164178095Y-80545714D01*
X102032380Y-92268095D02*
X101032380Y-92268095D01*
X101032380Y-92030000D01*
X101080000Y-91887142D01*
X101175238Y-91791904D01*
X101270476Y-91744285D01*
X101460952Y-91696666D01*
X101603809Y-91696666D01*
X101794285Y-91744285D01*
X101889523Y-91791904D01*
X101984761Y-91887142D01*
X102032380Y-92030000D01*
X102032380Y-92268095D01*
X101460952Y-91125238D02*
X101413333Y-91220476D01*
X101365714Y-91268095D01*
X101270476Y-91315714D01*
X101222857Y-91315714D01*
X101127619Y-91268095D01*
X101080000Y-91220476D01*
X101032380Y-91125238D01*
X101032380Y-90934761D01*
X101080000Y-90839523D01*
X101127619Y-90791904D01*
X101222857Y-90744285D01*
X101270476Y-90744285D01*
X101365714Y-90791904D01*
X101413333Y-90839523D01*
X101460952Y-90934761D01*
X101460952Y-91125238D01*
X101508571Y-91220476D01*
X101556190Y-91268095D01*
X101651428Y-91315714D01*
X101841904Y-91315714D01*
X101937142Y-91268095D01*
X101984761Y-91220476D01*
X102032380Y-91125238D01*
X102032380Y-90934761D01*
X101984761Y-90839523D01*
X101937142Y-90791904D01*
X101841904Y-90744285D01*
X101651428Y-90744285D01*
X101556190Y-90791904D01*
X101508571Y-90839523D01*
X101460952Y-90934761D01*
X103932380Y-95394285D02*
X103932380Y-95965714D01*
X103932380Y-95680000D02*
X102932380Y-95680000D01*
X103075238Y-95775238D01*
X103170476Y-95870476D01*
X103218095Y-95965714D01*
X119812380Y-92268095D02*
X118812380Y-92268095D01*
X118812380Y-92030000D01*
X118860000Y-91887142D01*
X118955238Y-91791904D01*
X119050476Y-91744285D01*
X119240952Y-91696666D01*
X119383809Y-91696666D01*
X119574285Y-91744285D01*
X119669523Y-91791904D01*
X119764761Y-91887142D01*
X119812380Y-92030000D01*
X119812380Y-92268095D01*
X119812380Y-91220476D02*
X119812380Y-91030000D01*
X119764761Y-90934761D01*
X119717142Y-90887142D01*
X119574285Y-90791904D01*
X119383809Y-90744285D01*
X119002857Y-90744285D01*
X118907619Y-90791904D01*
X118860000Y-90839523D01*
X118812380Y-90934761D01*
X118812380Y-91125238D01*
X118860000Y-91220476D01*
X118907619Y-91268095D01*
X119002857Y-91315714D01*
X119240952Y-91315714D01*
X119336190Y-91268095D01*
X119383809Y-91220476D01*
X119431428Y-91125238D01*
X119431428Y-90934761D01*
X119383809Y-90839523D01*
X119336190Y-90791904D01*
X119240952Y-90744285D01*
X121712380Y-95394285D02*
X121712380Y-95965714D01*
X121712380Y-95680000D02*
X120712380Y-95680000D01*
X120855238Y-95775238D01*
X120950476Y-95870476D01*
X120998095Y-95965714D01*
X135052380Y-92564285D02*
X134052380Y-92564285D01*
X134052380Y-92326190D01*
X134100000Y-92183333D01*
X134195238Y-92088095D01*
X134290476Y-92040476D01*
X134480952Y-91992857D01*
X134623809Y-91992857D01*
X134814285Y-92040476D01*
X134909523Y-92088095D01*
X135004761Y-92183333D01*
X135052380Y-92326190D01*
X135052380Y-92564285D01*
X135052380Y-91040476D02*
X135052380Y-91611904D01*
X135052380Y-91326190D02*
X134052380Y-91326190D01*
X134195238Y-91421428D01*
X134290476Y-91516666D01*
X134338095Y-91611904D01*
X134052380Y-90421428D02*
X134052380Y-90326190D01*
X134100000Y-90230952D01*
X134147619Y-90183333D01*
X134242857Y-90135714D01*
X134433333Y-90088095D01*
X134671428Y-90088095D01*
X134861904Y-90135714D01*
X134957142Y-90183333D01*
X135004761Y-90230952D01*
X135052380Y-90326190D01*
X135052380Y-90421428D01*
X135004761Y-90516666D01*
X134957142Y-90564285D01*
X134861904Y-90611904D01*
X134671428Y-90659523D01*
X134433333Y-90659523D01*
X134242857Y-90611904D01*
X134147619Y-90564285D01*
X134100000Y-90516666D01*
X134052380Y-90421428D01*
X136952380Y-95214285D02*
X136952380Y-95785714D01*
X136952380Y-95500000D02*
X135952380Y-95500000D01*
X136095238Y-95595238D01*
X136190476Y-95690476D01*
X136238095Y-95785714D01*
X150292380Y-92691285D02*
X149292380Y-92691285D01*
X149292380Y-92453190D01*
X149340000Y-92310333D01*
X149435238Y-92215095D01*
X149530476Y-92167476D01*
X149720952Y-92119857D01*
X149863809Y-92119857D01*
X150054285Y-92167476D01*
X150149523Y-92215095D01*
X150244761Y-92310333D01*
X150292380Y-92453190D01*
X150292380Y-92691285D01*
X150292380Y-91167476D02*
X150292380Y-91738904D01*
X150292380Y-91453190D02*
X149292380Y-91453190D01*
X149435238Y-91548428D01*
X149530476Y-91643666D01*
X149578095Y-91738904D01*
X150292380Y-90215095D02*
X150292380Y-90786523D01*
X150292380Y-90500809D02*
X149292380Y-90500809D01*
X149435238Y-90596047D01*
X149530476Y-90691285D01*
X149578095Y-90786523D01*
X152192380Y-95341285D02*
X152192380Y-95912714D01*
X152192380Y-95627000D02*
X151192380Y-95627000D01*
X151335238Y-95722238D01*
X151430476Y-95817476D01*
X151478095Y-95912714D01*
X168427780Y-92744285D02*
X167427780Y-92744285D01*
X167427780Y-92506190D01*
X167475400Y-92363333D01*
X167570638Y-92268095D01*
X167665876Y-92220476D01*
X167856352Y-92172857D01*
X167999209Y-92172857D01*
X168189685Y-92220476D01*
X168284923Y-92268095D01*
X168380161Y-92363333D01*
X168427780Y-92506190D01*
X168427780Y-92744285D01*
X168427780Y-91220476D02*
X168427780Y-91791904D01*
X168427780Y-91506190D02*
X167427780Y-91506190D01*
X167570638Y-91601428D01*
X167665876Y-91696666D01*
X167713495Y-91791904D01*
X167523019Y-90839523D02*
X167475400Y-90791904D01*
X167427780Y-90696666D01*
X167427780Y-90458571D01*
X167475400Y-90363333D01*
X167523019Y-90315714D01*
X167618257Y-90268095D01*
X167713495Y-90268095D01*
X167856352Y-90315714D01*
X168427780Y-90887142D01*
X168427780Y-90268095D01*
X170327780Y-95394285D02*
X170327780Y-95965714D01*
X170327780Y-95680000D02*
X169327780Y-95680000D01*
X169470638Y-95775238D01*
X169565876Y-95870476D01*
X169613495Y-95965714D01*
X107112380Y-107984285D02*
X106112380Y-107984285D01*
X106112380Y-107746190D01*
X106160000Y-107603333D01*
X106255238Y-107508095D01*
X106350476Y-107460476D01*
X106540952Y-107412857D01*
X106683809Y-107412857D01*
X106874285Y-107460476D01*
X106969523Y-107508095D01*
X107064761Y-107603333D01*
X107112380Y-107746190D01*
X107112380Y-107984285D01*
X107112380Y-106460476D02*
X107112380Y-107031904D01*
X107112380Y-106746190D02*
X106112380Y-106746190D01*
X106255238Y-106841428D01*
X106350476Y-106936666D01*
X106398095Y-107031904D01*
X106112380Y-106127142D02*
X106112380Y-105508095D01*
X106493333Y-105841428D01*
X106493333Y-105698571D01*
X106540952Y-105603333D01*
X106588571Y-105555714D01*
X106683809Y-105508095D01*
X106921904Y-105508095D01*
X107017142Y-105555714D01*
X107064761Y-105603333D01*
X107112380Y-105698571D01*
X107112380Y-105984285D01*
X107064761Y-106079523D01*
X107017142Y-106127142D01*
X109012380Y-110634285D02*
X109012380Y-111205714D01*
X109012380Y-110920000D02*
X108012380Y-110920000D01*
X108155238Y-111015238D01*
X108250476Y-111110476D01*
X108298095Y-111205714D01*
X119812380Y-107984285D02*
X118812380Y-107984285D01*
X118812380Y-107746190D01*
X118860000Y-107603333D01*
X118955238Y-107508095D01*
X119050476Y-107460476D01*
X119240952Y-107412857D01*
X119383809Y-107412857D01*
X119574285Y-107460476D01*
X119669523Y-107508095D01*
X119764761Y-107603333D01*
X119812380Y-107746190D01*
X119812380Y-107984285D01*
X119812380Y-106460476D02*
X119812380Y-107031904D01*
X119812380Y-106746190D02*
X118812380Y-106746190D01*
X118955238Y-106841428D01*
X119050476Y-106936666D01*
X119098095Y-107031904D01*
X119145714Y-105603333D02*
X119812380Y-105603333D01*
X118764761Y-105841428D02*
X119479047Y-106079523D01*
X119479047Y-105460476D01*
X121712380Y-110634285D02*
X121712380Y-111205714D01*
X121712380Y-110920000D02*
X120712380Y-110920000D01*
X120855238Y-111015238D01*
X120950476Y-111110476D01*
X120998095Y-111205714D01*
X135052380Y-107984285D02*
X134052380Y-107984285D01*
X134052380Y-107746190D01*
X134100000Y-107603333D01*
X134195238Y-107508095D01*
X134290476Y-107460476D01*
X134480952Y-107412857D01*
X134623809Y-107412857D01*
X134814285Y-107460476D01*
X134909523Y-107508095D01*
X135004761Y-107603333D01*
X135052380Y-107746190D01*
X135052380Y-107984285D01*
X135052380Y-106460476D02*
X135052380Y-107031904D01*
X135052380Y-106746190D02*
X134052380Y-106746190D01*
X134195238Y-106841428D01*
X134290476Y-106936666D01*
X134338095Y-107031904D01*
X134052380Y-105555714D02*
X134052380Y-106031904D01*
X134528571Y-106079523D01*
X134480952Y-106031904D01*
X134433333Y-105936666D01*
X134433333Y-105698571D01*
X134480952Y-105603333D01*
X134528571Y-105555714D01*
X134623809Y-105508095D01*
X134861904Y-105508095D01*
X134957142Y-105555714D01*
X135004761Y-105603333D01*
X135052380Y-105698571D01*
X135052380Y-105936666D01*
X135004761Y-106031904D01*
X134957142Y-106079523D01*
X136952380Y-110634285D02*
X136952380Y-111205714D01*
X136952380Y-110920000D02*
X135952380Y-110920000D01*
X136095238Y-111015238D01*
X136190476Y-111110476D01*
X136238095Y-111205714D01*
X150292380Y-107984285D02*
X149292380Y-107984285D01*
X149292380Y-107746190D01*
X149340000Y-107603333D01*
X149435238Y-107508095D01*
X149530476Y-107460476D01*
X149720952Y-107412857D01*
X149863809Y-107412857D01*
X150054285Y-107460476D01*
X150149523Y-107508095D01*
X150244761Y-107603333D01*
X150292380Y-107746190D01*
X150292380Y-107984285D01*
X150292380Y-106460476D02*
X150292380Y-107031904D01*
X150292380Y-106746190D02*
X149292380Y-106746190D01*
X149435238Y-106841428D01*
X149530476Y-106936666D01*
X149578095Y-107031904D01*
X149292380Y-105603333D02*
X149292380Y-105793809D01*
X149340000Y-105889047D01*
X149387619Y-105936666D01*
X149530476Y-106031904D01*
X149720952Y-106079523D01*
X150101904Y-106079523D01*
X150197142Y-106031904D01*
X150244761Y-105984285D01*
X150292380Y-105889047D01*
X150292380Y-105698571D01*
X150244761Y-105603333D01*
X150197142Y-105555714D01*
X150101904Y-105508095D01*
X149863809Y-105508095D01*
X149768571Y-105555714D01*
X149720952Y-105603333D01*
X149673333Y-105698571D01*
X149673333Y-105889047D01*
X149720952Y-105984285D01*
X149768571Y-106031904D01*
X149863809Y-106079523D01*
X152192380Y-110634285D02*
X152192380Y-111205714D01*
X152192380Y-110920000D02*
X151192380Y-110920000D01*
X151335238Y-111015238D01*
X151430476Y-111110476D01*
X151478095Y-111205714D01*
X165532380Y-107677285D02*
X164532380Y-107677285D01*
X164532380Y-107439190D01*
X164580000Y-107296333D01*
X164675238Y-107201095D01*
X164770476Y-107153476D01*
X164960952Y-107105857D01*
X165103809Y-107105857D01*
X165294285Y-107153476D01*
X165389523Y-107201095D01*
X165484761Y-107296333D01*
X165532380Y-107439190D01*
X165532380Y-107677285D01*
X165532380Y-106153476D02*
X165532380Y-106724904D01*
X165532380Y-106439190D02*
X164532380Y-106439190D01*
X164675238Y-106534428D01*
X164770476Y-106629666D01*
X164818095Y-106724904D01*
X164532380Y-105820142D02*
X164532380Y-105153476D01*
X165532380Y-105582047D01*
X167432380Y-110327285D02*
X167432380Y-110898714D01*
X167432380Y-110613000D02*
X166432380Y-110613000D01*
X166575238Y-110708238D01*
X166670476Y-110803476D01*
X166718095Y-110898714D01*
X119812380Y-123044285D02*
X118812380Y-123044285D01*
X118812380Y-122806190D01*
X118860000Y-122663333D01*
X118955238Y-122568095D01*
X119050476Y-122520476D01*
X119240952Y-122472857D01*
X119383809Y-122472857D01*
X119574285Y-122520476D01*
X119669523Y-122568095D01*
X119764761Y-122663333D01*
X119812380Y-122806190D01*
X119812380Y-123044285D01*
X119812380Y-121520476D02*
X119812380Y-122091904D01*
X119812380Y-121806190D02*
X118812380Y-121806190D01*
X118955238Y-121901428D01*
X119050476Y-121996666D01*
X119098095Y-122091904D01*
X119240952Y-120949047D02*
X119193333Y-121044285D01*
X119145714Y-121091904D01*
X119050476Y-121139523D01*
X119002857Y-121139523D01*
X118907619Y-121091904D01*
X118860000Y-121044285D01*
X118812380Y-120949047D01*
X118812380Y-120758571D01*
X118860000Y-120663333D01*
X118907619Y-120615714D01*
X119002857Y-120568095D01*
X119050476Y-120568095D01*
X119145714Y-120615714D01*
X119193333Y-120663333D01*
X119240952Y-120758571D01*
X119240952Y-120949047D01*
X119288571Y-121044285D01*
X119336190Y-121091904D01*
X119431428Y-121139523D01*
X119621904Y-121139523D01*
X119717142Y-121091904D01*
X119764761Y-121044285D01*
X119812380Y-120949047D01*
X119812380Y-120758571D01*
X119764761Y-120663333D01*
X119717142Y-120615714D01*
X119621904Y-120568095D01*
X119431428Y-120568095D01*
X119336190Y-120615714D01*
X119288571Y-120663333D01*
X119240952Y-120758571D01*
X121712380Y-125694285D02*
X121712380Y-126265714D01*
X121712380Y-125980000D02*
X120712380Y-125980000D01*
X120855238Y-126075238D01*
X120950476Y-126170476D01*
X120998095Y-126265714D01*
X135052380Y-123224285D02*
X134052380Y-123224285D01*
X134052380Y-122986190D01*
X134100000Y-122843333D01*
X134195238Y-122748095D01*
X134290476Y-122700476D01*
X134480952Y-122652857D01*
X134623809Y-122652857D01*
X134814285Y-122700476D01*
X134909523Y-122748095D01*
X135004761Y-122843333D01*
X135052380Y-122986190D01*
X135052380Y-123224285D01*
X135052380Y-121700476D02*
X135052380Y-122271904D01*
X135052380Y-121986190D02*
X134052380Y-121986190D01*
X134195238Y-122081428D01*
X134290476Y-122176666D01*
X134338095Y-122271904D01*
X135052380Y-121224285D02*
X135052380Y-121033809D01*
X135004761Y-120938571D01*
X134957142Y-120890952D01*
X134814285Y-120795714D01*
X134623809Y-120748095D01*
X134242857Y-120748095D01*
X134147619Y-120795714D01*
X134100000Y-120843333D01*
X134052380Y-120938571D01*
X134052380Y-121129047D01*
X134100000Y-121224285D01*
X134147619Y-121271904D01*
X134242857Y-121319523D01*
X134480952Y-121319523D01*
X134576190Y-121271904D01*
X134623809Y-121224285D01*
X134671428Y-121129047D01*
X134671428Y-120938571D01*
X134623809Y-120843333D01*
X134576190Y-120795714D01*
X134480952Y-120748095D01*
X136952380Y-125874285D02*
X136952380Y-126445714D01*
X136952380Y-126160000D02*
X135952380Y-126160000D01*
X136095238Y-126255238D01*
X136190476Y-126350476D01*
X136238095Y-126445714D01*
X150292380Y-123224285D02*
X149292380Y-123224285D01*
X149292380Y-122986190D01*
X149340000Y-122843333D01*
X149435238Y-122748095D01*
X149530476Y-122700476D01*
X149720952Y-122652857D01*
X149863809Y-122652857D01*
X150054285Y-122700476D01*
X150149523Y-122748095D01*
X150244761Y-122843333D01*
X150292380Y-122986190D01*
X150292380Y-123224285D01*
X149387619Y-122271904D02*
X149340000Y-122224285D01*
X149292380Y-122129047D01*
X149292380Y-121890952D01*
X149340000Y-121795714D01*
X149387619Y-121748095D01*
X149482857Y-121700476D01*
X149578095Y-121700476D01*
X149720952Y-121748095D01*
X150292380Y-122319523D01*
X150292380Y-121700476D01*
X149292380Y-121081428D02*
X149292380Y-120986190D01*
X149340000Y-120890952D01*
X149387619Y-120843333D01*
X149482857Y-120795714D01*
X149673333Y-120748095D01*
X149911428Y-120748095D01*
X150101904Y-120795714D01*
X150197142Y-120843333D01*
X150244761Y-120890952D01*
X150292380Y-120986190D01*
X150292380Y-121081428D01*
X150244761Y-121176666D01*
X150197142Y-121224285D01*
X150101904Y-121271904D01*
X149911428Y-121319523D01*
X149673333Y-121319523D01*
X149482857Y-121271904D01*
X149387619Y-121224285D01*
X149340000Y-121176666D01*
X149292380Y-121081428D01*
X152192380Y-125874285D02*
X152192380Y-126445714D01*
X152192380Y-126160000D02*
X151192380Y-126160000D01*
X151335238Y-126255238D01*
X151430476Y-126350476D01*
X151478095Y-126445714D01*
X114906171Y-59638034D02*
X114847502Y-59549176D01*
X114723784Y-59477747D01*
X114576256Y-59447558D01*
X114446159Y-59482418D01*
X114357300Y-59541087D01*
X114220823Y-59682235D01*
X114149394Y-59805952D01*
X114095395Y-59994719D01*
X114089016Y-60101007D01*
X114123875Y-60231105D01*
X114223784Y-60343773D01*
X114306262Y-60391392D01*
X114453790Y-60421581D01*
X114518838Y-60404151D01*
X114685505Y-60115476D01*
X114520548Y-60020238D01*
X114842373Y-60700916D02*
X115342373Y-59834890D01*
X115337245Y-60986630D01*
X115837245Y-60120605D01*
X115749638Y-61224725D02*
X116249638Y-60358700D01*
X116455834Y-60477747D01*
X116555743Y-60590415D01*
X116590602Y-60720513D01*
X116584223Y-60826801D01*
X116530224Y-61015568D01*
X116458795Y-61139286D01*
X116322318Y-61280434D01*
X116233460Y-61339103D01*
X116103362Y-61373962D01*
X115955834Y-61343773D01*
X115749638Y-61224725D01*
X108415171Y-116040100D02*
X108308882Y-116046480D01*
X108185165Y-116117908D01*
X108085256Y-116230576D01*
X108050397Y-116360674D01*
X108056776Y-116466962D01*
X108110775Y-116655729D01*
X108182204Y-116779447D01*
X108318681Y-116920595D01*
X108407539Y-116979264D01*
X108537637Y-117014123D01*
X108685165Y-116983934D01*
X108767643Y-116936315D01*
X108867552Y-116823647D01*
X108884981Y-116758598D01*
X108718315Y-116469923D01*
X108553357Y-116565161D01*
X109303754Y-116626791D02*
X108803754Y-115760766D01*
X109798626Y-116341077D01*
X109298626Y-115475051D01*
X110211019Y-116102982D02*
X109711019Y-115236956D01*
X109917215Y-115117908D01*
X110064743Y-115087719D01*
X110194840Y-115122579D01*
X110283699Y-115181248D01*
X110420176Y-115322396D01*
X110491605Y-115446113D01*
X110545604Y-115634880D01*
X110551983Y-115741168D01*
X110517124Y-115871266D01*
X110417215Y-115983934D01*
X110211019Y-116102982D01*
X159850171Y-60205691D02*
X159743882Y-60212071D01*
X159620165Y-60283499D01*
X159520256Y-60396167D01*
X159485397Y-60526265D01*
X159491776Y-60632553D01*
X159545775Y-60821320D01*
X159617204Y-60945038D01*
X159753681Y-61086186D01*
X159842539Y-61144855D01*
X159972637Y-61179714D01*
X160120165Y-61149525D01*
X160202643Y-61101906D01*
X160302552Y-60989238D01*
X160319981Y-60924189D01*
X160153315Y-60635514D01*
X159988357Y-60730752D01*
X160738754Y-60792382D02*
X160238754Y-59926357D01*
X161233626Y-60506668D01*
X160733626Y-59640642D01*
X161646019Y-60268573D02*
X161146019Y-59402547D01*
X161352215Y-59283499D01*
X161499743Y-59253310D01*
X161629840Y-59288170D01*
X161718699Y-59346839D01*
X161855176Y-59487987D01*
X161926605Y-59611704D01*
X161980604Y-59800471D01*
X161986983Y-59906759D01*
X161952124Y-60036857D01*
X161852215Y-60149525D01*
X161646019Y-60268573D01*
X165855171Y-114643195D02*
X165796502Y-114554337D01*
X165672784Y-114482908D01*
X165525256Y-114452719D01*
X165395159Y-114487579D01*
X165306300Y-114546248D01*
X165169823Y-114687396D01*
X165098394Y-114811113D01*
X165044395Y-114999880D01*
X165038016Y-115106168D01*
X165072875Y-115236266D01*
X165172784Y-115348934D01*
X165255262Y-115396553D01*
X165402790Y-115426742D01*
X165467838Y-115409312D01*
X165634505Y-115120637D01*
X165469548Y-115025399D01*
X165791373Y-115706077D02*
X166291373Y-114840051D01*
X166286245Y-115991791D01*
X166786245Y-115125766D01*
X166698638Y-116229886D02*
X167198638Y-115363861D01*
X167404834Y-115482908D01*
X167504743Y-115595576D01*
X167539602Y-115725674D01*
X167533223Y-115831962D01*
X167479224Y-116020729D01*
X167407795Y-116144447D01*
X167271318Y-116285595D01*
X167182460Y-116344264D01*
X167052362Y-116379123D01*
X166904834Y-116348934D01*
X166698638Y-116229886D01*
D12*
X138401248Y-65305000D02*
X138923752Y-65305000D01*
X138401248Y-66775000D02*
X138923752Y-66775000D01*
X153641248Y-65305000D02*
X154163752Y-65305000D01*
X153641248Y-66775000D02*
X154163752Y-66775000D01*
X110461248Y-80545000D02*
X110983752Y-80545000D01*
X110461248Y-82015000D02*
X110983752Y-82015000D01*
X123161248Y-82015000D02*
X123683752Y-82015000D01*
X123161248Y-80545000D02*
X123683752Y-80545000D01*
X138401248Y-82015000D02*
X138923752Y-82015000D01*
X138401248Y-80545000D02*
X138923752Y-80545000D01*
X153641248Y-80545000D02*
X154163752Y-80545000D01*
X153641248Y-82015000D02*
X154163752Y-82015000D01*
X166341248Y-82015000D02*
X166863752Y-82015000D01*
X166341248Y-80545000D02*
X166863752Y-80545000D01*
X105381248Y-95785000D02*
X105903752Y-95785000D01*
X105381248Y-97255000D02*
X105903752Y-97255000D01*
X123161248Y-95785000D02*
X123683752Y-95785000D01*
X123161248Y-97255000D02*
X123683752Y-97255000D01*
X138401248Y-97255000D02*
X138923752Y-97255000D01*
X138401248Y-95785000D02*
X138923752Y-95785000D01*
X153641248Y-97255000D02*
X154163752Y-97255000D01*
X153641248Y-95785000D02*
X154163752Y-95785000D01*
X110385048Y-111025000D02*
X110907552Y-111025000D01*
X110385048Y-112495000D02*
X110907552Y-112495000D01*
X138401248Y-111025000D02*
X138923752Y-111025000D01*
X138401248Y-112495000D02*
X138923752Y-112495000D01*
X153641248Y-111025000D02*
X154163752Y-111025000D01*
X153641248Y-112495000D02*
X154163752Y-112495000D01*
X168881248Y-111025000D02*
X169403752Y-111025000D01*
X168881248Y-112495000D02*
X169403752Y-112495000D01*
X123161248Y-127735000D02*
X123683752Y-127735000D01*
X123161248Y-126265000D02*
X123683752Y-126265000D01*
X138401248Y-126265000D02*
X138923752Y-126265000D01*
X138401248Y-127735000D02*
X138923752Y-127735000D01*
X153641248Y-127735000D02*
X154163752Y-127735000D01*
X153641248Y-126265000D02*
X154163752Y-126265000D01*
X171421248Y-97255000D02*
X171943752Y-97255000D01*
X171421248Y-95785000D02*
X171943752Y-95785000D01*
X123161248Y-111025000D02*
X123683752Y-111025000D01*
X123161248Y-112495000D02*
X123683752Y-112495000D01*
X123161248Y-65305000D02*
X123683752Y-65305000D01*
X123161248Y-66775000D02*
X123683752Y-66775000D01*
X125610000Y-57400000D02*
X124460000Y-57400000D01*
X120110000Y-64700000D02*
X120110000Y-57400000D01*
X125610000Y-64700000D02*
X125610000Y-57400000D01*
X140850000Y-57400000D02*
X139700000Y-57400000D01*
X135350000Y-64700000D02*
X135350000Y-57400000D01*
X140850000Y-64700000D02*
X140850000Y-57400000D01*
X156090000Y-57400000D02*
X154940000Y-57400000D01*
X150590000Y-64700000D02*
X150590000Y-57400000D01*
X156090000Y-64700000D02*
X156090000Y-57400000D01*
X107410000Y-79760000D02*
X107410000Y-72460000D01*
X112910000Y-79760000D02*
X112910000Y-72460000D01*
X112910000Y-72460000D02*
X111760000Y-72460000D01*
X125610000Y-79760000D02*
X125610000Y-72460000D01*
X120110000Y-79760000D02*
X120110000Y-72460000D01*
X125610000Y-72460000D02*
X124460000Y-72460000D01*
X135350000Y-79760000D02*
X135350000Y-72460000D01*
X140850000Y-79760000D02*
X140850000Y-72460000D01*
X140850000Y-72460000D02*
X139700000Y-72460000D01*
X150590000Y-79760000D02*
X150590000Y-72460000D01*
X156090000Y-79760000D02*
X156090000Y-72460000D01*
X156090000Y-72460000D02*
X154940000Y-72460000D01*
X168790000Y-72460000D02*
X167640000Y-72460000D01*
X168790000Y-79760000D02*
X168790000Y-72460000D01*
X163290000Y-79760000D02*
X163290000Y-72460000D01*
X102330000Y-95180000D02*
X102330000Y-87880000D01*
X107830000Y-87880000D02*
X106680000Y-87880000D01*
X107830000Y-95180000D02*
X107830000Y-87880000D01*
X120110000Y-95180000D02*
X120110000Y-87880000D01*
X125610000Y-95180000D02*
X125610000Y-87880000D01*
X125610000Y-87880000D02*
X124460000Y-87880000D01*
X140850000Y-95000000D02*
X140850000Y-87700000D01*
X135350000Y-95000000D02*
X135350000Y-87700000D01*
X140850000Y-87700000D02*
X139700000Y-87700000D01*
X156090000Y-87827000D02*
X154940000Y-87827000D01*
X156090000Y-95127000D02*
X156090000Y-87827000D01*
X150590000Y-95127000D02*
X150590000Y-87827000D01*
X174225400Y-95180000D02*
X174225400Y-87880000D01*
X168725400Y-95180000D02*
X168725400Y-87880000D01*
X174225400Y-87880000D02*
X173075400Y-87880000D01*
X112910000Y-110420000D02*
X112910000Y-103120000D01*
X112910000Y-103120000D02*
X111760000Y-103120000D01*
X107410000Y-110420000D02*
X107410000Y-103120000D01*
X125610000Y-110420000D02*
X125610000Y-103120000D01*
X120110000Y-110420000D02*
X120110000Y-103120000D01*
X125610000Y-103120000D02*
X124460000Y-103120000D01*
X135350000Y-110420000D02*
X135350000Y-103120000D01*
X140850000Y-110420000D02*
X140850000Y-103120000D01*
X140850000Y-103120000D02*
X139700000Y-103120000D01*
X156090000Y-103120000D02*
X154940000Y-103120000D01*
X150590000Y-110420000D02*
X150590000Y-103120000D01*
X156090000Y-110420000D02*
X156090000Y-103120000D01*
X165830000Y-110113000D02*
X165830000Y-102813000D01*
X171330000Y-110113000D02*
X171330000Y-102813000D01*
X171330000Y-102813000D02*
X170180000Y-102813000D01*
X125610000Y-118180000D02*
X124460000Y-118180000D01*
X125610000Y-125480000D02*
X125610000Y-118180000D01*
X120110000Y-125480000D02*
X120110000Y-118180000D01*
X135350000Y-125660000D02*
X135350000Y-118360000D01*
X140850000Y-125660000D02*
X140850000Y-118360000D01*
X140850000Y-118360000D02*
X139700000Y-118360000D01*
X156090000Y-118360000D02*
X154940000Y-118360000D01*
X156090000Y-125660000D02*
X156090000Y-118360000D01*
X150590000Y-125660000D02*
X150590000Y-118360000D01*
X114816814Y-64513956D02*
X110976814Y-71165031D01*
X112513186Y-63183956D02*
X108673186Y-69835031D01*
X113813186Y-60932290D02*
X114965000Y-61597290D01*
X108673186Y-69835031D02*
X110976814Y-71165031D01*
X112513186Y-63183956D02*
X114816814Y-64513956D01*
X113148186Y-62084104D02*
X113813186Y-60932290D01*
X112276814Y-118544852D02*
X116116814Y-125195927D01*
X109973186Y-119874852D02*
X113813186Y-126525927D01*
X108673186Y-117623186D02*
X109825000Y-116958186D01*
X113813186Y-126525927D02*
X116116814Y-125195927D01*
X109973186Y-119874852D02*
X112276814Y-118544852D01*
X109338186Y-118775000D02*
X108673186Y-117623186D01*
X163711814Y-62710443D02*
X167551814Y-69361518D01*
X161408186Y-64040443D02*
X165248186Y-70691518D01*
X160108186Y-61788777D02*
X161260000Y-61123777D01*
X165248186Y-70691518D02*
X167551814Y-69361518D01*
X161408186Y-64040443D02*
X163711814Y-62710443D01*
X160773186Y-62940591D02*
X160108186Y-61788777D01*
X165616814Y-119239852D02*
X161776814Y-125890927D01*
X163313186Y-117909852D02*
X159473186Y-124560927D01*
X164613186Y-115658186D02*
X165765000Y-116323186D01*
X159473186Y-124560927D02*
X161776814Y-125890927D01*
X163313186Y-117909852D02*
X165616814Y-119239852D01*
X163948186Y-116810000D02*
X164613186Y-115658186D01*
%LPC*%
D13*
X137625000Y-66040000D03*
X139700000Y-66040000D03*
X152865000Y-66040000D03*
X154940000Y-66040000D03*
X109685000Y-81280000D03*
X111760000Y-81280000D03*
X122385000Y-81280000D03*
X124460000Y-81280000D03*
X137625000Y-81280000D03*
X139700000Y-81280000D03*
X152865000Y-81280000D03*
X154940000Y-81280000D03*
X165565000Y-81280000D03*
X167640000Y-81280000D03*
X104605000Y-96520000D03*
X106680000Y-96520000D03*
X122385000Y-96520000D03*
X124460000Y-96520000D03*
X137625000Y-96520000D03*
X139700000Y-96520000D03*
X152865000Y-96520000D03*
X154940000Y-96520000D03*
X109608800Y-111760000D03*
X111683800Y-111760000D03*
X137625000Y-111760000D03*
X139700000Y-111760000D03*
X152865000Y-111760000D03*
X154940000Y-111760000D03*
X168105000Y-111760000D03*
X170180000Y-111760000D03*
X122385000Y-127000000D03*
X124460000Y-127000000D03*
X137625000Y-127000000D03*
X139700000Y-127000000D03*
X152865000Y-127000000D03*
X154940000Y-127000000D03*
X170645000Y-96520000D03*
X172720000Y-96520000D03*
X122385000Y-111760000D03*
X124460000Y-111760000D03*
X122385000Y-66040000D03*
X124460000Y-66040000D03*
D14*
X121260000Y-63500000D03*
X124460000Y-63500000D03*
X124460000Y-58600000D03*
X121260000Y-58600000D03*
X136500000Y-63500000D03*
X139700000Y-63500000D03*
X139700000Y-58600000D03*
X136500000Y-58600000D03*
X151740000Y-63500000D03*
X154940000Y-63500000D03*
X154940000Y-58600000D03*
X151740000Y-58600000D03*
X108560000Y-78560000D03*
X111760000Y-78560000D03*
X111760000Y-73660000D03*
X108560000Y-73660000D03*
X121260000Y-78560000D03*
X124460000Y-78560000D03*
X124460000Y-73660000D03*
X121260000Y-73660000D03*
X136500000Y-78560000D03*
X139700000Y-78560000D03*
X139700000Y-73660000D03*
X136500000Y-73660000D03*
X151740000Y-78560000D03*
X154940000Y-78560000D03*
X154940000Y-73660000D03*
X151740000Y-73660000D03*
X164440000Y-78560000D03*
X167640000Y-78560000D03*
X167640000Y-73660000D03*
X164440000Y-73660000D03*
X103480000Y-93980000D03*
X106680000Y-93980000D03*
X106680000Y-89080000D03*
X103480000Y-89080000D03*
X121260000Y-93980000D03*
X124460000Y-93980000D03*
X124460000Y-89080000D03*
X121260000Y-89080000D03*
X136500000Y-93800000D03*
X139700000Y-93800000D03*
X139700000Y-88900000D03*
X136500000Y-88900000D03*
X151740000Y-93927000D03*
X154940000Y-93927000D03*
X154940000Y-89027000D03*
X151740000Y-89027000D03*
X169875400Y-93980000D03*
X173075400Y-93980000D03*
X173075400Y-89080000D03*
X169875400Y-89080000D03*
X108560000Y-109220000D03*
X111760000Y-109220000D03*
X111760000Y-104320000D03*
X108560000Y-104320000D03*
X121260000Y-109220000D03*
X124460000Y-109220000D03*
X124460000Y-104320000D03*
X121260000Y-104320000D03*
X136500000Y-109220000D03*
X139700000Y-109220000D03*
X139700000Y-104320000D03*
X136500000Y-104320000D03*
X151740000Y-109220000D03*
X154940000Y-109220000D03*
X154940000Y-104320000D03*
X151740000Y-104320000D03*
X166980000Y-108913000D03*
X170180000Y-108913000D03*
X170180000Y-104013000D03*
X166980000Y-104013000D03*
X121260000Y-124280000D03*
X124460000Y-124280000D03*
X124460000Y-119380000D03*
X121260000Y-119380000D03*
X136500000Y-124460000D03*
X139700000Y-124460000D03*
X139700000Y-119560000D03*
X136500000Y-119560000D03*
X151740000Y-124460000D03*
X154940000Y-124460000D03*
X154940000Y-119560000D03*
X151740000Y-119560000D03*
D15*
X114300000Y-62749104D03*
D16*
X113030000Y-64948809D03*
X111760000Y-67148513D03*
X110490000Y-69348218D03*
D17*
X110490000Y-118110000D03*
D18*
X111760000Y-120309705D03*
X113030000Y-122509409D03*
X114300000Y-124709114D03*
D17*
X161925000Y-62275591D03*
D18*
X163195000Y-64475296D03*
X164465000Y-66675000D03*
X165735000Y-68874705D03*
D15*
X165100000Y-117475000D03*
D16*
X163830000Y-119674705D03*
X162560000Y-121874409D03*
X161290000Y-124074114D03*
M02*
