%FSLAX45Y45*%
G04 Gerber Fmt 4.5, Leading zero omitted, Abs format (unit mm)*
G04 Created by KiCad (PCBNEW 6.0.5-a6ca702e91~116~ubuntu22.04.1) date 2022-07-22 23:50:19*
%MOMM*%
%LPD*%
G01*
G04 APERTURE LIST*
%TA.AperFunction,Profile*%
%ADD10C,0.200000*%
%TD*%
%ADD11C,0.200000*%
%ADD12C,0.040000*%
%ADD13C,0.100000*%
G04 APERTURE END LIST*
D10*
X16094357Y-5454412D02*
X11594357Y-5440684D01*
X16070580Y-13248640D02*
X18332469Y-9358390D01*
X11570580Y-13234912D02*
X16070580Y-13248640D01*
X11594357Y-5440684D02*
X9332469Y-9330934D01*
X9332469Y-9330934D02*
X11570580Y-13234912D01*
X18332469Y-9358390D02*
X16094357Y-5454412D01*
D11*
D12*
X10437180Y-10015540D02*
X10477180Y-10055540D01*
X10477180Y-10015540D02*
X10437180Y-10055540D01*
X10457500Y-10775000D02*
X10497500Y-10815000D01*
X10497500Y-10775000D02*
X10457500Y-10815000D01*
X11727500Y-6965000D02*
X11767500Y-7005000D01*
X11767500Y-6965000D02*
X11727500Y-7005000D01*
X11791000Y-5885500D02*
X11831000Y-5925500D01*
X11831000Y-5885500D02*
X11791000Y-5925500D01*
X11813860Y-9477060D02*
X11853860Y-9517060D01*
X11853860Y-9477060D02*
X11813860Y-9517060D01*
X11857040Y-12471720D02*
X11897040Y-12511720D01*
X11897040Y-12471720D02*
X11857040Y-12511720D01*
X11859580Y-7935280D02*
X11899580Y-7975280D01*
X11899580Y-7935280D02*
X11859580Y-7975280D01*
X11862120Y-11018840D02*
X11902120Y-11058840D01*
X11902120Y-11018840D02*
X11862120Y-11058840D01*
X11890060Y-6324920D02*
X11930060Y-6364920D01*
X11930060Y-6324920D02*
X11890060Y-6364920D01*
X13132120Y-8064820D02*
X13172120Y-8104820D01*
X13172120Y-8064820D02*
X13132120Y-8104820D01*
X13327700Y-9482140D02*
X13367700Y-9522140D01*
X13367700Y-9482140D02*
X13327700Y-9522140D01*
X13348020Y-11001060D02*
X13388020Y-11041060D01*
X13388020Y-11001060D02*
X13348020Y-11041060D01*
X13353100Y-6436680D02*
X13393100Y-6476680D01*
X13393100Y-6436680D02*
X13353100Y-6476680D01*
X13408980Y-12502200D02*
X13448980Y-12542200D01*
X13448980Y-12502200D02*
X13408980Y-12542200D01*
X14671360Y-9548180D02*
X14711360Y-9588180D01*
X14711360Y-9548180D02*
X14671360Y-9588180D01*
X14783120Y-11046780D02*
X14823120Y-11086780D01*
X14823120Y-11046780D02*
X14783120Y-11086780D01*
X14856780Y-7907340D02*
X14896780Y-7947340D01*
X14896780Y-7907340D02*
X14856780Y-7947340D01*
X14859320Y-12514900D02*
X14899320Y-12554900D01*
X14899320Y-12514900D02*
X14859320Y-12554900D01*
X14874560Y-6418900D02*
X14914560Y-6458900D01*
X14914560Y-6418900D02*
X14874560Y-6458900D01*
X15791500Y-7600000D02*
X15831500Y-7640000D01*
X15831500Y-7600000D02*
X15791500Y-7640000D01*
X16218220Y-8105460D02*
X16258220Y-8145460D01*
X16258220Y-8105460D02*
X16218220Y-8145460D01*
X16236000Y-10394000D02*
X16276000Y-10434000D01*
X16276000Y-10394000D02*
X16236000Y-10434000D01*
X16236000Y-11156000D02*
X16276000Y-11196000D01*
X16276000Y-11156000D02*
X16236000Y-11196000D01*
X16436660Y-10947720D02*
X16476660Y-10987720D01*
X16476660Y-10947720D02*
X16436660Y-10987720D01*
X16624620Y-9461820D02*
X16664620Y-9501820D01*
X16664620Y-9461820D02*
X16624620Y-9501820D01*
D13*
X11099000Y-6934822D02*
G75*
G03*
X11099000Y-6934822I-50000J0D01*
G01*
X11099000Y-11811000D02*
G75*
G03*
X11099000Y-11811000I-50000J0D01*
G01*
X11226000Y-6714851D02*
G75*
G03*
X11226000Y-6714851I-50000J0D01*
G01*
X11226000Y-12030970D02*
G75*
G03*
X11226000Y-12030970I-50000J0D01*
G01*
X11353000Y-6494881D02*
G75*
G03*
X11353000Y-6494881I-50000J0D01*
G01*
X11353000Y-12250941D02*
G75*
G03*
X11353000Y-12250941I-50000J0D01*
G01*
X11480000Y-6274910D02*
G75*
G03*
X11480000Y-6274910I-50000J0D01*
G01*
X11480000Y-12470911D02*
G75*
G03*
X11480000Y-12470911I-50000J0D01*
G01*
X16179000Y-12407411D02*
G75*
G03*
X16179000Y-12407411I-50000J0D01*
G01*
X16242500Y-6227559D02*
G75*
G03*
X16242500Y-6227559I-50000J0D01*
G01*
X16306000Y-12187441D02*
G75*
G03*
X16306000Y-12187441I-50000J0D01*
G01*
X16369500Y-6447530D02*
G75*
G03*
X16369500Y-6447530I-50000J0D01*
G01*
X16433000Y-11967470D02*
G75*
G03*
X16433000Y-11967470I-50000J0D01*
G01*
X16496500Y-6667500D02*
G75*
G03*
X16496500Y-6667500I-50000J0D01*
G01*
X16560000Y-11747500D02*
G75*
G03*
X16560000Y-11747500I-50000J0D01*
G01*
X16623500Y-6887470D02*
G75*
G03*
X16623500Y-6887470I-50000J0D01*
G01*
D11*
X9580088Y-13569116D02*
X9580088Y-13369116D01*
X9627707Y-13369116D01*
X9656278Y-13378640D01*
X9675326Y-13397688D01*
X9684850Y-13416735D01*
X9694373Y-13454830D01*
X9694373Y-13483402D01*
X9684850Y-13521497D01*
X9675326Y-13540545D01*
X9656278Y-13559592D01*
X9627707Y-13569116D01*
X9580088Y-13569116D01*
X9780088Y-13569116D02*
X9780088Y-13435783D01*
X9780088Y-13473878D02*
X9789612Y-13454830D01*
X9799135Y-13445307D01*
X9818183Y-13435783D01*
X9837231Y-13435783D01*
X9903897Y-13569116D02*
X9903897Y-13435783D01*
X9903897Y-13369116D02*
X9894373Y-13378640D01*
X9903897Y-13388164D01*
X9913421Y-13378640D01*
X9903897Y-13369116D01*
X9903897Y-13388164D01*
X10027707Y-13569116D02*
X10008659Y-13559592D01*
X9999135Y-13540545D01*
X9999135Y-13369116D01*
X10132469Y-13569116D02*
X10113421Y-13559592D01*
X10103897Y-13540545D01*
X10103897Y-13369116D01*
X10361040Y-13569116D02*
X10361040Y-13369116D01*
X10427707Y-13511973D01*
X10494373Y-13369116D01*
X10494373Y-13569116D01*
X10675326Y-13569116D02*
X10675326Y-13464354D01*
X10665802Y-13445307D01*
X10646754Y-13435783D01*
X10608659Y-13435783D01*
X10589612Y-13445307D01*
X10675326Y-13559592D02*
X10656278Y-13569116D01*
X10608659Y-13569116D01*
X10589612Y-13559592D01*
X10580088Y-13540545D01*
X10580088Y-13521497D01*
X10589612Y-13502449D01*
X10608659Y-13492926D01*
X10656278Y-13492926D01*
X10675326Y-13483402D01*
X10770564Y-13435783D02*
X10770564Y-13635783D01*
X10770564Y-13445307D02*
X10789612Y-13435783D01*
X10827707Y-13435783D01*
X10846754Y-13445307D01*
X10856278Y-13454830D01*
X10865802Y-13473878D01*
X10865802Y-13531021D01*
X10856278Y-13550068D01*
X10846754Y-13559592D01*
X10827707Y-13569116D01*
X10789612Y-13569116D01*
X10770564Y-13559592D01*
X10951516Y-13550068D02*
X10961040Y-13559592D01*
X10951516Y-13569116D01*
X10941993Y-13559592D01*
X10951516Y-13550068D01*
X10951516Y-13569116D01*
X10951516Y-13445307D02*
X10961040Y-13454830D01*
X10951516Y-13464354D01*
X10941993Y-13454830D01*
X10951516Y-13445307D01*
X10951516Y-13464354D01*
D12*
X9282469Y-13878640D02*
X9322469Y-13918640D01*
X9322469Y-13878640D02*
X9282469Y-13918640D01*
D11*
X9618183Y-13789116D02*
X9637231Y-13789116D01*
X9656278Y-13798640D01*
X9665802Y-13808164D01*
X9675326Y-13827211D01*
X9684850Y-13865307D01*
X9684850Y-13912926D01*
X9675326Y-13951021D01*
X9665802Y-13970068D01*
X9656278Y-13979592D01*
X9637231Y-13989116D01*
X9618183Y-13989116D01*
X9599135Y-13979592D01*
X9589612Y-13970068D01*
X9580088Y-13951021D01*
X9570564Y-13912926D01*
X9570564Y-13865307D01*
X9580088Y-13827211D01*
X9589612Y-13808164D01*
X9599135Y-13798640D01*
X9618183Y-13789116D01*
X9770564Y-13970068D02*
X9780088Y-13979592D01*
X9770564Y-13989116D01*
X9761040Y-13979592D01*
X9770564Y-13970068D01*
X9770564Y-13989116D01*
X9951516Y-13855783D02*
X9951516Y-13989116D01*
X9903897Y-13779592D02*
X9856278Y-13922449D01*
X9980088Y-13922449D01*
X10094373Y-13789116D02*
X10113421Y-13789116D01*
X10132469Y-13798640D01*
X10141993Y-13808164D01*
X10151516Y-13827211D01*
X10161040Y-13865307D01*
X10161040Y-13912926D01*
X10151516Y-13951021D01*
X10141993Y-13970068D01*
X10132469Y-13979592D01*
X10113421Y-13989116D01*
X10094373Y-13989116D01*
X10075326Y-13979592D01*
X10065802Y-13970068D01*
X10056278Y-13951021D01*
X10046754Y-13912926D01*
X10046754Y-13865307D01*
X10056278Y-13827211D01*
X10065802Y-13808164D01*
X10075326Y-13798640D01*
X10094373Y-13789116D01*
X10284850Y-13789116D02*
X10303897Y-13789116D01*
X10322945Y-13798640D01*
X10332469Y-13808164D01*
X10341993Y-13827211D01*
X10351516Y-13865307D01*
X10351516Y-13912926D01*
X10341993Y-13951021D01*
X10332469Y-13970068D01*
X10322945Y-13979592D01*
X10303897Y-13989116D01*
X10284850Y-13989116D01*
X10265802Y-13979592D01*
X10256278Y-13970068D01*
X10246754Y-13951021D01*
X10237231Y-13912926D01*
X10237231Y-13865307D01*
X10246754Y-13827211D01*
X10256278Y-13808164D01*
X10265802Y-13798640D01*
X10284850Y-13789116D01*
X10437231Y-13989116D02*
X10437231Y-13855783D01*
X10437231Y-13874830D02*
X10446754Y-13865307D01*
X10465802Y-13855783D01*
X10494373Y-13855783D01*
X10513421Y-13865307D01*
X10522945Y-13884354D01*
X10522945Y-13989116D01*
X10522945Y-13884354D02*
X10532469Y-13865307D01*
X10551516Y-13855783D01*
X10580088Y-13855783D01*
X10599135Y-13865307D01*
X10608659Y-13884354D01*
X10608659Y-13989116D01*
X10703897Y-13989116D02*
X10703897Y-13855783D01*
X10703897Y-13874830D02*
X10713421Y-13865307D01*
X10732469Y-13855783D01*
X10761040Y-13855783D01*
X10780088Y-13865307D01*
X10789612Y-13884354D01*
X10789612Y-13989116D01*
X10789612Y-13884354D02*
X10799135Y-13865307D01*
X10818183Y-13855783D01*
X10846754Y-13855783D01*
X10865802Y-13865307D01*
X10875326Y-13884354D01*
X10875326Y-13989116D01*
X11265802Y-13779592D02*
X11094373Y-14036735D01*
X11522945Y-13789116D02*
X11541992Y-13789116D01*
X11561040Y-13798640D01*
X11570564Y-13808164D01*
X11580088Y-13827211D01*
X11589611Y-13865307D01*
X11589611Y-13912926D01*
X11580088Y-13951021D01*
X11570564Y-13970068D01*
X11561040Y-13979592D01*
X11541992Y-13989116D01*
X11522945Y-13989116D01*
X11503897Y-13979592D01*
X11494373Y-13970068D01*
X11484850Y-13951021D01*
X11475326Y-13912926D01*
X11475326Y-13865307D01*
X11484850Y-13827211D01*
X11494373Y-13808164D01*
X11503897Y-13798640D01*
X11522945Y-13789116D01*
X11675326Y-13970068D02*
X11684850Y-13979592D01*
X11675326Y-13989116D01*
X11665802Y-13979592D01*
X11675326Y-13970068D01*
X11675326Y-13989116D01*
X11808659Y-13789116D02*
X11827707Y-13789116D01*
X11846754Y-13798640D01*
X11856278Y-13808164D01*
X11865802Y-13827211D01*
X11875326Y-13865307D01*
X11875326Y-13912926D01*
X11865802Y-13951021D01*
X11856278Y-13970068D01*
X11846754Y-13979592D01*
X11827707Y-13989116D01*
X11808659Y-13989116D01*
X11789611Y-13979592D01*
X11780088Y-13970068D01*
X11770564Y-13951021D01*
X11761040Y-13912926D01*
X11761040Y-13865307D01*
X11770564Y-13827211D01*
X11780088Y-13808164D01*
X11789611Y-13798640D01*
X11808659Y-13789116D01*
X12065802Y-13989116D02*
X11951516Y-13989116D01*
X12008659Y-13989116D02*
X12008659Y-13789116D01*
X11989611Y-13817688D01*
X11970564Y-13836735D01*
X11951516Y-13846259D01*
X12246754Y-13789116D02*
X12151516Y-13789116D01*
X12141992Y-13884354D01*
X12151516Y-13874830D01*
X12170564Y-13865307D01*
X12218183Y-13865307D01*
X12237231Y-13874830D01*
X12246754Y-13884354D01*
X12256278Y-13903402D01*
X12256278Y-13951021D01*
X12246754Y-13970068D01*
X12237231Y-13979592D01*
X12218183Y-13989116D01*
X12170564Y-13989116D01*
X12151516Y-13979592D01*
X12141992Y-13970068D01*
X12322945Y-13789116D02*
X12456278Y-13789116D01*
X12370564Y-13989116D01*
X12522945Y-13789116D02*
X12522945Y-13827211D01*
X12599135Y-13789116D02*
X12599135Y-13827211D01*
X12894373Y-14065307D02*
X12884850Y-14055783D01*
X12865802Y-14027211D01*
X12856278Y-14008164D01*
X12846754Y-13979592D01*
X12837231Y-13931973D01*
X12837231Y-13893878D01*
X12846754Y-13846259D01*
X12856278Y-13817688D01*
X12865802Y-13798640D01*
X12884850Y-13770068D01*
X12894373Y-13760545D01*
X12961040Y-13808164D02*
X12970564Y-13798640D01*
X12989611Y-13789116D01*
X13037231Y-13789116D01*
X13056278Y-13798640D01*
X13065802Y-13808164D01*
X13075326Y-13827211D01*
X13075326Y-13846259D01*
X13065802Y-13874830D01*
X12951516Y-13989116D01*
X13075326Y-13989116D01*
X13256278Y-13789116D02*
X13161040Y-13789116D01*
X13151516Y-13884354D01*
X13161040Y-13874830D01*
X13180088Y-13865307D01*
X13227707Y-13865307D01*
X13246754Y-13874830D01*
X13256278Y-13884354D01*
X13265802Y-13903402D01*
X13265802Y-13951021D01*
X13256278Y-13970068D01*
X13246754Y-13979592D01*
X13227707Y-13989116D01*
X13180088Y-13989116D01*
X13161040Y-13979592D01*
X13151516Y-13970068D01*
X13503897Y-13989116D02*
X13503897Y-13789116D01*
X13589611Y-13989116D02*
X13589611Y-13884354D01*
X13580088Y-13865307D01*
X13561040Y-13855783D01*
X13532469Y-13855783D01*
X13513421Y-13865307D01*
X13503897Y-13874830D01*
X13713421Y-13989116D02*
X13694373Y-13979592D01*
X13684850Y-13970068D01*
X13675326Y-13951021D01*
X13675326Y-13893878D01*
X13684850Y-13874830D01*
X13694373Y-13865307D01*
X13713421Y-13855783D01*
X13741992Y-13855783D01*
X13761040Y-13865307D01*
X13770564Y-13874830D01*
X13780088Y-13893878D01*
X13780088Y-13951021D01*
X13770564Y-13970068D01*
X13761040Y-13979592D01*
X13741992Y-13989116D01*
X13713421Y-13989116D01*
X13894373Y-13989116D02*
X13875326Y-13979592D01*
X13865802Y-13960545D01*
X13865802Y-13789116D01*
X14046754Y-13979592D02*
X14027707Y-13989116D01*
X13989611Y-13989116D01*
X13970564Y-13979592D01*
X13961040Y-13960545D01*
X13961040Y-13884354D01*
X13970564Y-13865307D01*
X13989611Y-13855783D01*
X14027707Y-13855783D01*
X14046754Y-13865307D01*
X14056278Y-13884354D01*
X14056278Y-13903402D01*
X13961040Y-13922449D01*
X14132469Y-13979592D02*
X14151516Y-13989116D01*
X14189611Y-13989116D01*
X14208659Y-13979592D01*
X14218183Y-13960545D01*
X14218183Y-13951021D01*
X14208659Y-13931973D01*
X14189611Y-13922449D01*
X14161040Y-13922449D01*
X14141992Y-13912926D01*
X14132469Y-13893878D01*
X14132469Y-13884354D01*
X14141992Y-13865307D01*
X14161040Y-13855783D01*
X14189611Y-13855783D01*
X14208659Y-13865307D01*
X14284850Y-14065307D02*
X14294373Y-14055783D01*
X14313421Y-14027211D01*
X14322945Y-14008164D01*
X14332469Y-13979592D01*
X14341992Y-13931973D01*
X14341992Y-13893878D01*
X14332469Y-13846259D01*
X14322945Y-13817688D01*
X14313421Y-13798640D01*
X14294373Y-13770068D01*
X14284850Y-13760545D01*
D13*
X9322469Y-14162640D02*
G75*
G03*
X9322469Y-14162640I-50000J0D01*
G01*
D11*
X9684850Y-14253116D02*
X9570564Y-14253116D01*
X9627707Y-14253116D02*
X9627707Y-14053116D01*
X9608659Y-14081688D01*
X9589612Y-14100735D01*
X9570564Y-14110259D01*
X9770564Y-14234068D02*
X9780088Y-14243592D01*
X9770564Y-14253116D01*
X9761040Y-14243592D01*
X9770564Y-14234068D01*
X9770564Y-14253116D01*
X9903897Y-14053116D02*
X9922945Y-14053116D01*
X9941993Y-14062640D01*
X9951516Y-14072164D01*
X9961040Y-14091211D01*
X9970564Y-14129307D01*
X9970564Y-14176926D01*
X9961040Y-14215021D01*
X9951516Y-14234068D01*
X9941993Y-14243592D01*
X9922945Y-14253116D01*
X9903897Y-14253116D01*
X9884850Y-14243592D01*
X9875326Y-14234068D01*
X9865802Y-14215021D01*
X9856278Y-14176926D01*
X9856278Y-14129307D01*
X9865802Y-14091211D01*
X9875326Y-14072164D01*
X9884850Y-14062640D01*
X9903897Y-14053116D01*
X10094373Y-14053116D02*
X10113421Y-14053116D01*
X10132469Y-14062640D01*
X10141993Y-14072164D01*
X10151516Y-14091211D01*
X10161040Y-14129307D01*
X10161040Y-14176926D01*
X10151516Y-14215021D01*
X10141993Y-14234068D01*
X10132469Y-14243592D01*
X10113421Y-14253116D01*
X10094373Y-14253116D01*
X10075326Y-14243592D01*
X10065802Y-14234068D01*
X10056278Y-14215021D01*
X10046754Y-14176926D01*
X10046754Y-14129307D01*
X10056278Y-14091211D01*
X10065802Y-14072164D01*
X10075326Y-14062640D01*
X10094373Y-14053116D01*
X10284850Y-14053116D02*
X10303897Y-14053116D01*
X10322945Y-14062640D01*
X10332469Y-14072164D01*
X10341993Y-14091211D01*
X10351516Y-14129307D01*
X10351516Y-14176926D01*
X10341993Y-14215021D01*
X10332469Y-14234068D01*
X10322945Y-14243592D01*
X10303897Y-14253116D01*
X10284850Y-14253116D01*
X10265802Y-14243592D01*
X10256278Y-14234068D01*
X10246754Y-14215021D01*
X10237231Y-14176926D01*
X10237231Y-14129307D01*
X10246754Y-14091211D01*
X10256278Y-14072164D01*
X10265802Y-14062640D01*
X10284850Y-14053116D01*
X10437231Y-14253116D02*
X10437231Y-14119783D01*
X10437231Y-14138830D02*
X10446754Y-14129307D01*
X10465802Y-14119783D01*
X10494373Y-14119783D01*
X10513421Y-14129307D01*
X10522945Y-14148354D01*
X10522945Y-14253116D01*
X10522945Y-14148354D02*
X10532469Y-14129307D01*
X10551516Y-14119783D01*
X10580088Y-14119783D01*
X10599135Y-14129307D01*
X10608659Y-14148354D01*
X10608659Y-14253116D01*
X10703897Y-14253116D02*
X10703897Y-14119783D01*
X10703897Y-14138830D02*
X10713421Y-14129307D01*
X10732469Y-14119783D01*
X10761040Y-14119783D01*
X10780088Y-14129307D01*
X10789612Y-14148354D01*
X10789612Y-14253116D01*
X10789612Y-14148354D02*
X10799135Y-14129307D01*
X10818183Y-14119783D01*
X10846754Y-14119783D01*
X10865802Y-14129307D01*
X10875326Y-14148354D01*
X10875326Y-14253116D01*
X11265802Y-14043592D02*
X11094373Y-14300735D01*
X11522945Y-14053116D02*
X11541992Y-14053116D01*
X11561040Y-14062640D01*
X11570564Y-14072164D01*
X11580088Y-14091211D01*
X11589611Y-14129307D01*
X11589611Y-14176926D01*
X11580088Y-14215021D01*
X11570564Y-14234068D01*
X11561040Y-14243592D01*
X11541992Y-14253116D01*
X11522945Y-14253116D01*
X11503897Y-14243592D01*
X11494373Y-14234068D01*
X11484850Y-14215021D01*
X11475326Y-14176926D01*
X11475326Y-14129307D01*
X11484850Y-14091211D01*
X11494373Y-14072164D01*
X11503897Y-14062640D01*
X11522945Y-14053116D01*
X11675326Y-14234068D02*
X11684850Y-14243592D01*
X11675326Y-14253116D01*
X11665802Y-14243592D01*
X11675326Y-14234068D01*
X11675326Y-14253116D01*
X11808659Y-14053116D02*
X11827707Y-14053116D01*
X11846754Y-14062640D01*
X11856278Y-14072164D01*
X11865802Y-14091211D01*
X11875326Y-14129307D01*
X11875326Y-14176926D01*
X11865802Y-14215021D01*
X11856278Y-14234068D01*
X11846754Y-14243592D01*
X11827707Y-14253116D01*
X11808659Y-14253116D01*
X11789611Y-14243592D01*
X11780088Y-14234068D01*
X11770564Y-14215021D01*
X11761040Y-14176926D01*
X11761040Y-14129307D01*
X11770564Y-14091211D01*
X11780088Y-14072164D01*
X11789611Y-14062640D01*
X11808659Y-14053116D01*
X11941992Y-14053116D02*
X12065802Y-14053116D01*
X11999135Y-14129307D01*
X12027707Y-14129307D01*
X12046754Y-14138830D01*
X12056278Y-14148354D01*
X12065802Y-14167402D01*
X12065802Y-14215021D01*
X12056278Y-14234068D01*
X12046754Y-14243592D01*
X12027707Y-14253116D01*
X11970564Y-14253116D01*
X11951516Y-14243592D01*
X11941992Y-14234068D01*
X12161040Y-14253116D02*
X12199135Y-14253116D01*
X12218183Y-14243592D01*
X12227707Y-14234068D01*
X12246754Y-14205497D01*
X12256278Y-14167402D01*
X12256278Y-14091211D01*
X12246754Y-14072164D01*
X12237231Y-14062640D01*
X12218183Y-14053116D01*
X12180088Y-14053116D01*
X12161040Y-14062640D01*
X12151516Y-14072164D01*
X12141992Y-14091211D01*
X12141992Y-14138830D01*
X12151516Y-14157878D01*
X12161040Y-14167402D01*
X12180088Y-14176926D01*
X12218183Y-14176926D01*
X12237231Y-14167402D01*
X12246754Y-14157878D01*
X12256278Y-14138830D01*
X12427707Y-14119783D02*
X12427707Y-14253116D01*
X12380088Y-14043592D02*
X12332469Y-14186449D01*
X12456278Y-14186449D01*
X12522945Y-14053116D02*
X12522945Y-14091211D01*
X12599135Y-14053116D02*
X12599135Y-14091211D01*
X12894373Y-14329307D02*
X12884850Y-14319783D01*
X12865802Y-14291211D01*
X12856278Y-14272164D01*
X12846754Y-14243592D01*
X12837231Y-14195973D01*
X12837231Y-14157878D01*
X12846754Y-14110259D01*
X12856278Y-14081688D01*
X12865802Y-14062640D01*
X12884850Y-14034068D01*
X12894373Y-14024545D01*
X13075326Y-14253116D02*
X12961040Y-14253116D01*
X13018183Y-14253116D02*
X13018183Y-14053116D01*
X12999135Y-14081688D01*
X12980088Y-14100735D01*
X12961040Y-14110259D01*
X13246754Y-14053116D02*
X13208659Y-14053116D01*
X13189611Y-14062640D01*
X13180088Y-14072164D01*
X13161040Y-14100735D01*
X13151516Y-14138830D01*
X13151516Y-14215021D01*
X13161040Y-14234068D01*
X13170564Y-14243592D01*
X13189611Y-14253116D01*
X13227707Y-14253116D01*
X13246754Y-14243592D01*
X13256278Y-14234068D01*
X13265802Y-14215021D01*
X13265802Y-14167402D01*
X13256278Y-14148354D01*
X13246754Y-14138830D01*
X13227707Y-14129307D01*
X13189611Y-14129307D01*
X13170564Y-14138830D01*
X13161040Y-14148354D01*
X13151516Y-14167402D01*
X13503897Y-14253116D02*
X13503897Y-14053116D01*
X13589611Y-14253116D02*
X13589611Y-14148354D01*
X13580088Y-14129307D01*
X13561040Y-14119783D01*
X13532469Y-14119783D01*
X13513421Y-14129307D01*
X13503897Y-14138830D01*
X13713421Y-14253116D02*
X13694373Y-14243592D01*
X13684850Y-14234068D01*
X13675326Y-14215021D01*
X13675326Y-14157878D01*
X13684850Y-14138830D01*
X13694373Y-14129307D01*
X13713421Y-14119783D01*
X13741992Y-14119783D01*
X13761040Y-14129307D01*
X13770564Y-14138830D01*
X13780088Y-14157878D01*
X13780088Y-14215021D01*
X13770564Y-14234068D01*
X13761040Y-14243592D01*
X13741992Y-14253116D01*
X13713421Y-14253116D01*
X13894373Y-14253116D02*
X13875326Y-14243592D01*
X13865802Y-14224545D01*
X13865802Y-14053116D01*
X14046754Y-14243592D02*
X14027707Y-14253116D01*
X13989611Y-14253116D01*
X13970564Y-14243592D01*
X13961040Y-14224545D01*
X13961040Y-14148354D01*
X13970564Y-14129307D01*
X13989611Y-14119783D01*
X14027707Y-14119783D01*
X14046754Y-14129307D01*
X14056278Y-14148354D01*
X14056278Y-14167402D01*
X13961040Y-14186449D01*
X14132469Y-14243592D02*
X14151516Y-14253116D01*
X14189611Y-14253116D01*
X14208659Y-14243592D01*
X14218183Y-14224545D01*
X14218183Y-14215021D01*
X14208659Y-14195973D01*
X14189611Y-14186449D01*
X14161040Y-14186449D01*
X14141992Y-14176926D01*
X14132469Y-14157878D01*
X14132469Y-14148354D01*
X14141992Y-14129307D01*
X14161040Y-14119783D01*
X14189611Y-14119783D01*
X14208659Y-14129307D01*
X14284850Y-14329307D02*
X14294373Y-14319783D01*
X14313421Y-14291211D01*
X14322945Y-14272164D01*
X14332469Y-14243592D01*
X14341992Y-14195973D01*
X14341992Y-14157878D01*
X14332469Y-14110259D01*
X14322945Y-14081688D01*
X14313421Y-14062640D01*
X14294373Y-14034068D01*
X14284850Y-14024545D01*
M02*
