G04 #@! TF.GenerationSoftware,KiCad,Pcbnew,6.0.5-a6ca702e91~116~ubuntu22.04.1*
G04 #@! TF.CreationDate,2022-07-22T23:48:50-06:00*
G04 #@! TF.ProjectId,catan_board,63617461-6e5f-4626-9f61-72642e6b6963,rev?*
G04 #@! TF.SameCoordinates,Original*
G04 #@! TF.FileFunction,Copper,L2,Bot*
G04 #@! TF.FilePolarity,Positive*
%FSLAX46Y46*%
G04 Gerber Fmt 4.6, Leading zero omitted, Abs format (unit mm)*
G04 Created by KiCad (PCBNEW 6.0.5-a6ca702e91~116~ubuntu22.04.1) date 2022-07-22 23:48:50*
%MOMM*%
%LPD*%
G01*
G04 APERTURE LIST*
G04 Aperture macros list*
%AMHorizOval*
0 Thick line with rounded ends*
0 $1 width*
0 $2 $3 position (X,Y) of the first rounded end (center of the circle)*
0 $4 $5 position (X,Y) of the second rounded end (center of the circle)*
0 Add line between two ends*
20,1,$1,$2,$3,$4,$5,0*
0 Add two circle primitives to create the rounded ends*
1,1,$1,$2,$3*
1,1,$1,$4,$5*%
%AMRotRect*
0 Rectangle, with rotation*
0 The origin of the aperture is its center*
0 $1 length*
0 $2 width*
0 $3 Rotation angle, in degrees counterclockwise*
0 Add horizontal line*
21,1,$1,$2,0,0,$3*%
G04 Aperture macros list end*
G04 #@! TA.AperFunction,ComponentPad*
%ADD10RotRect,1.700000X1.700000X330.000000*%
G04 #@! TD*
G04 #@! TA.AperFunction,ComponentPad*
%ADD11HorizOval,1.700000X0.000000X0.000000X0.000000X0.000000X0*%
G04 #@! TD*
G04 #@! TA.AperFunction,ComponentPad*
%ADD12RotRect,1.700000X1.700000X30.000000*%
G04 #@! TD*
G04 #@! TA.AperFunction,ComponentPad*
%ADD13HorizOval,1.700000X0.000000X0.000000X0.000000X0.000000X0*%
G04 #@! TD*
G04 #@! TA.AperFunction,ViaPad*
%ADD14C,0.800000*%
G04 #@! TD*
G04 #@! TA.AperFunction,Conductor*
%ADD15C,0.250000*%
G04 #@! TD*
G04 APERTURE END LIST*
D10*
X114300000Y-62749104D03*
D11*
X113030000Y-64948809D03*
X111760000Y-67148513D03*
X110490000Y-69348218D03*
D12*
X110490000Y-118110000D03*
D13*
X111760000Y-120309705D03*
X113030000Y-122509409D03*
X114300000Y-124709114D03*
D12*
X161925000Y-62275591D03*
D13*
X163195000Y-64475296D03*
X164465000Y-66675000D03*
X165735000Y-68874705D03*
D10*
X165100000Y-117475000D03*
D11*
X163830000Y-119674705D03*
X162560000Y-121874409D03*
X161290000Y-124074114D03*
D14*
X118821200Y-110388400D03*
X119100600Y-63449200D03*
X148031200Y-110667800D03*
X118770400Y-124917200D03*
X133680200Y-110210600D03*
X133731000Y-64566800D03*
X104775000Y-107950000D03*
X118795800Y-79552800D03*
X148945600Y-64389000D03*
X148767800Y-79273400D03*
X148793200Y-125349000D03*
X146913600Y-95681800D03*
X164566600Y-109677200D03*
X162382200Y-81254600D03*
X118338600Y-94970600D03*
X134289800Y-125222000D03*
X104571800Y-100355400D03*
X133477000Y-95021400D03*
X131521200Y-80848200D03*
X166446200Y-94818200D03*
X118110000Y-59055000D03*
X162560000Y-111760000D03*
X162560000Y-104140000D03*
X158115000Y-76200000D03*
X117475000Y-69850000D03*
D15*
X118110000Y-64770000D02*
X118110000Y-59055000D01*
X113665000Y-69215000D02*
X118110000Y-64770000D01*
X113531782Y-69348218D02*
X113665000Y-69215000D01*
X160020000Y-71120000D02*
X164465000Y-66675000D01*
X160065591Y-119380000D02*
X160020000Y-119380000D01*
X110490000Y-69348218D02*
X113531782Y-69348218D01*
X160020000Y-119380000D02*
X160020000Y-71120000D01*
X114300000Y-70116436D02*
X114300000Y-124709114D01*
X162560000Y-121874409D02*
X160065591Y-119380000D01*
X113531782Y-69348218D02*
X114300000Y-70116436D01*
X162560000Y-104140000D02*
X162560000Y-111760000D01*
X158115000Y-76200000D02*
X158115000Y-120899114D01*
X158115000Y-76200000D02*
X158115000Y-70485000D01*
X158115000Y-120899114D02*
X161290000Y-124074114D01*
X158115000Y-70485000D02*
X157480000Y-69850000D01*
X157480000Y-69850000D02*
X117475000Y-69850000D01*
G04 #@! TA.AperFunction,Conductor*
G36*
X138886715Y-54985330D02*
G01*
X160575693Y-55051495D01*
X160643753Y-55071704D01*
X160684620Y-55114827D01*
X182701343Y-93518994D01*
X182717870Y-93588040D01*
X182700959Y-93644993D01*
X163852397Y-126062871D01*
X160450335Y-131914119D01*
X160398803Y-131962955D01*
X160341024Y-131976785D01*
X137762682Y-131907906D01*
X116073680Y-131841741D01*
X116005620Y-131821532D01*
X115964753Y-131778409D01*
X107957110Y-117810533D01*
X108815282Y-117810533D01*
X108816756Y-117819389D01*
X108816756Y-117819391D01*
X108834723Y-117927337D01*
X108839196Y-117954214D01*
X108864437Y-118011443D01*
X109762571Y-119567057D01*
X109799512Y-119617531D01*
X109805615Y-119622553D01*
X109805617Y-119622555D01*
X109822296Y-119636279D01*
X109911987Y-119710082D01*
X109920238Y-119713610D01*
X109920240Y-119713611D01*
X109965710Y-119733052D01*
X110045916Y-119767345D01*
X110054825Y-119768415D01*
X110054828Y-119768416D01*
X110146278Y-119779402D01*
X110190533Y-119784718D01*
X110199389Y-119783244D01*
X110199391Y-119783244D01*
X110252358Y-119774428D01*
X110316152Y-119763810D01*
X110386631Y-119772356D01*
X110441303Y-119817650D01*
X110462807Y-119885312D01*
X110458255Y-119921773D01*
X110422863Y-120049390D01*
X110420933Y-120059505D01*
X110398302Y-120271279D01*
X110398050Y-120281568D01*
X110410309Y-120494182D01*
X110411745Y-120504402D01*
X110458565Y-120712151D01*
X110461644Y-120721980D01*
X110469314Y-120740869D01*
X110478151Y-120751992D01*
X110491683Y-120748674D01*
X111852970Y-119962735D01*
X112773108Y-119431494D01*
X112782839Y-119421288D01*
X112778979Y-119411648D01*
X112692806Y-119316945D01*
X112685273Y-119309920D01*
X112518139Y-119177927D01*
X112509552Y-119172222D01*
X112323117Y-119069304D01*
X112313705Y-119065074D01*
X112112959Y-118993985D01*
X112102997Y-118991354D01*
X112086105Y-118988345D01*
X112022547Y-118956708D01*
X111986183Y-118895731D01*
X111988558Y-118824774D01*
X112010903Y-118784237D01*
X112090082Y-118688013D01*
X112147345Y-118554084D01*
X112164718Y-118409467D01*
X112154920Y-118350598D01*
X112142101Y-118273576D01*
X112142100Y-118273573D01*
X112140804Y-118265786D01*
X112115563Y-118208557D01*
X111217429Y-116652943D01*
X111180488Y-116602469D01*
X111174385Y-116597447D01*
X111174383Y-116597445D01*
X111074946Y-116515623D01*
X111074947Y-116515623D01*
X111068013Y-116509918D01*
X111059762Y-116506390D01*
X111059760Y-116506389D01*
X110949382Y-116459196D01*
X110934084Y-116452655D01*
X110925175Y-116451585D01*
X110925172Y-116451584D01*
X110833722Y-116440598D01*
X110789467Y-116435282D01*
X110780611Y-116436756D01*
X110780609Y-116436756D01*
X110653576Y-116457899D01*
X110653573Y-116457900D01*
X110645786Y-116459196D01*
X110588557Y-116484437D01*
X109032943Y-117382571D01*
X108982469Y-117419512D01*
X108889918Y-117531987D01*
X108832655Y-117665916D01*
X108815282Y-117810533D01*
X107957110Y-117810533D01*
X93948031Y-93374242D01*
X93931504Y-93305196D01*
X93948415Y-93248242D01*
X94055966Y-93063264D01*
X107863850Y-69314913D01*
X109127251Y-69314913D01*
X109127548Y-69320066D01*
X109127548Y-69320069D01*
X109135486Y-69457742D01*
X109140110Y-69537933D01*
X109141247Y-69542979D01*
X109141248Y-69542985D01*
X109163824Y-69643158D01*
X109189222Y-69755857D01*
X109225312Y-69844736D01*
X109271157Y-69957639D01*
X109273266Y-69962834D01*
X109308121Y-70019712D01*
X109382814Y-70141600D01*
X109389987Y-70153306D01*
X109536250Y-70322156D01*
X109708126Y-70464850D01*
X109901000Y-70577556D01*
X110109692Y-70657248D01*
X110114760Y-70658279D01*
X110114763Y-70658280D01*
X110209975Y-70677651D01*
X110328597Y-70701785D01*
X110333772Y-70701975D01*
X110333774Y-70701975D01*
X110546673Y-70709782D01*
X110546677Y-70709782D01*
X110551837Y-70709971D01*
X110556957Y-70709315D01*
X110556959Y-70709315D01*
X110768288Y-70682243D01*
X110768289Y-70682243D01*
X110773416Y-70681586D01*
X110786532Y-70677651D01*
X110982429Y-70618879D01*
X110982434Y-70618877D01*
X110987384Y-70617392D01*
X111187994Y-70519114D01*
X111369860Y-70389391D01*
X111403235Y-70356133D01*
X111523518Y-70236269D01*
X111528096Y-70231707D01*
X111533215Y-70224584D01*
X111655435Y-70054495D01*
X111658453Y-70050295D01*
X111660746Y-70045655D01*
X111662446Y-70042826D01*
X111714674Y-69994736D01*
X111770451Y-69981718D01*
X113217188Y-69981718D01*
X113285309Y-70001720D01*
X113306283Y-70018623D01*
X113629595Y-70341935D01*
X113663621Y-70404247D01*
X113666500Y-70431030D01*
X113666500Y-121115280D01*
X113646498Y-121183401D01*
X113592842Y-121229894D01*
X113522568Y-121239998D01*
X113498440Y-121234053D01*
X113486696Y-121229894D01*
X113459487Y-121220259D01*
X113383087Y-121193204D01*
X113383083Y-121193203D01*
X113378212Y-121191478D01*
X113373119Y-121190571D01*
X113373116Y-121190570D01*
X113163373Y-121153209D01*
X113163367Y-121153208D01*
X113158284Y-121152303D01*
X113103360Y-121151632D01*
X113060314Y-121151106D01*
X112992442Y-121130273D01*
X112946608Y-121076053D01*
X112937364Y-121005661D01*
X112948896Y-120969288D01*
X113024670Y-120815972D01*
X113028469Y-120806377D01*
X113090376Y-120602620D01*
X113092555Y-120592539D01*
X113120590Y-120379592D01*
X113121109Y-120372917D01*
X113122572Y-120313069D01*
X113122378Y-120306351D01*
X113104781Y-120092309D01*
X113103096Y-120082129D01*
X113051214Y-119875580D01*
X113051062Y-119875134D01*
X113043462Y-119866033D01*
X113030798Y-119869303D01*
X111667030Y-120656675D01*
X110747314Y-121187672D01*
X110738300Y-121197126D01*
X110744488Y-121211578D01*
X110803217Y-121279377D01*
X110810579Y-121286587D01*
X110974434Y-121422621D01*
X110982881Y-121428536D01*
X111166756Y-121535984D01*
X111176042Y-121540434D01*
X111375001Y-121616408D01*
X111384899Y-121619284D01*
X111593595Y-121661743D01*
X111603823Y-121662962D01*
X111730211Y-121667597D01*
X111797553Y-121690081D01*
X111842049Y-121745405D01*
X111849571Y-121816002D01*
X111839884Y-121846557D01*
X111750688Y-122038714D01*
X111690989Y-122253979D01*
X111667251Y-122476104D01*
X111667548Y-122481257D01*
X111667548Y-122481260D01*
X111677820Y-122659401D01*
X111680110Y-122699124D01*
X111681247Y-122704170D01*
X111681248Y-122704176D01*
X111697482Y-122776208D01*
X111729222Y-122917048D01*
X111813266Y-123124025D01*
X111863679Y-123206292D01*
X111885801Y-123242391D01*
X111929987Y-123314497D01*
X112076250Y-123483347D01*
X112248126Y-123626041D01*
X112441000Y-123738747D01*
X112649692Y-123818439D01*
X112654760Y-123819470D01*
X112654763Y-123819471D01*
X112762379Y-123841366D01*
X112868597Y-123862976D01*
X112873772Y-123863166D01*
X112873774Y-123863166D01*
X112999982Y-123867794D01*
X113067324Y-123890279D01*
X113111820Y-123945602D01*
X113119342Y-124016199D01*
X113109653Y-124046759D01*
X113066046Y-124140704D01*
X113020688Y-124238419D01*
X112960989Y-124453684D01*
X112937251Y-124675809D01*
X112937548Y-124680962D01*
X112937548Y-124680965D01*
X112943011Y-124775704D01*
X112950110Y-124898829D01*
X112951247Y-124903875D01*
X112951248Y-124903881D01*
X112971119Y-124992053D01*
X112999222Y-125116753D01*
X113083266Y-125323730D01*
X113199987Y-125514202D01*
X113346250Y-125683052D01*
X113518126Y-125825746D01*
X113711000Y-125938452D01*
X113919692Y-126018144D01*
X113924760Y-126019175D01*
X113924763Y-126019176D01*
X114032017Y-126040997D01*
X114138597Y-126062681D01*
X114143772Y-126062871D01*
X114143774Y-126062871D01*
X114356673Y-126070678D01*
X114356677Y-126070678D01*
X114361837Y-126070867D01*
X114366957Y-126070211D01*
X114366959Y-126070211D01*
X114578288Y-126043139D01*
X114578289Y-126043139D01*
X114583416Y-126042482D01*
X114588366Y-126040997D01*
X114792429Y-125979775D01*
X114792434Y-125979773D01*
X114797384Y-125978288D01*
X114997994Y-125880010D01*
X115179860Y-125750287D01*
X115338096Y-125592603D01*
X115397594Y-125509803D01*
X115465435Y-125415391D01*
X115468453Y-125411191D01*
X115483227Y-125381299D01*
X115565136Y-125215567D01*
X115565137Y-125215565D01*
X115567430Y-125210925D01*
X115632370Y-124997183D01*
X115661529Y-124775704D01*
X115661611Y-124772354D01*
X115663074Y-124712479D01*
X115663074Y-124712475D01*
X115663156Y-124709114D01*
X115644852Y-124486475D01*
X115590431Y-124269816D01*
X115501354Y-124064954D01*
X115380014Y-123877391D01*
X115229670Y-123712165D01*
X115225619Y-123708966D01*
X115225615Y-123708962D01*
X115058414Y-123576914D01*
X115058410Y-123576912D01*
X115054359Y-123573712D01*
X115049835Y-123571215D01*
X115049831Y-123571212D01*
X114998608Y-123542936D01*
X114948636Y-123492504D01*
X114933500Y-123432627D01*
X114933500Y-70195203D01*
X114934027Y-70184020D01*
X114935702Y-70176527D01*
X114934723Y-70145366D01*
X114933562Y-70108450D01*
X114933500Y-70104491D01*
X114933500Y-70076580D01*
X114932995Y-70072580D01*
X114932062Y-70060737D01*
X114930922Y-70024465D01*
X114930673Y-70016546D01*
X114925022Y-69997094D01*
X114921014Y-69977742D01*
X114919467Y-69965499D01*
X114918474Y-69957639D01*
X114915556Y-69950268D01*
X114902200Y-69916533D01*
X114898355Y-69905306D01*
X114897721Y-69903123D01*
X114886018Y-69862843D01*
X114881984Y-69856021D01*
X114881981Y-69856015D01*
X114878424Y-69850000D01*
X116561496Y-69850000D01*
X116562186Y-69856565D01*
X116578201Y-70008936D01*
X116581458Y-70039928D01*
X116640473Y-70221556D01*
X116643776Y-70227278D01*
X116643777Y-70227279D01*
X116649077Y-70236458D01*
X116735960Y-70386944D01*
X116863747Y-70528866D01*
X116962843Y-70600864D01*
X117000193Y-70628000D01*
X117018248Y-70641118D01*
X117024276Y-70643802D01*
X117024278Y-70643803D01*
X117186681Y-70716109D01*
X117192712Y-70718794D01*
X117286113Y-70738647D01*
X117373056Y-70757128D01*
X117373061Y-70757128D01*
X117379513Y-70758500D01*
X117570487Y-70758500D01*
X117576939Y-70757128D01*
X117576944Y-70757128D01*
X117663887Y-70738647D01*
X117757288Y-70718794D01*
X117763319Y-70716109D01*
X117925722Y-70643803D01*
X117925724Y-70643802D01*
X117931752Y-70641118D01*
X117949808Y-70628000D01*
X118074830Y-70537165D01*
X118086253Y-70528866D01*
X118090668Y-70523963D01*
X118095580Y-70519540D01*
X118096705Y-70520789D01*
X118150014Y-70487949D01*
X118183200Y-70483500D01*
X157165406Y-70483500D01*
X157233527Y-70503502D01*
X157254501Y-70520405D01*
X157444595Y-70710499D01*
X157478621Y-70772811D01*
X157481500Y-70799594D01*
X157481500Y-75497476D01*
X157461498Y-75565597D01*
X157449142Y-75581779D01*
X157375960Y-75663056D01*
X157280473Y-75828444D01*
X157221458Y-76010072D01*
X157201496Y-76200000D01*
X157221458Y-76389928D01*
X157280473Y-76571556D01*
X157375960Y-76736944D01*
X157449137Y-76818215D01*
X157479853Y-76882221D01*
X157481500Y-76902524D01*
X157481500Y-120820347D01*
X157480973Y-120831530D01*
X157479298Y-120839023D01*
X157479547Y-120846949D01*
X157479547Y-120846950D01*
X157481438Y-120907100D01*
X157481500Y-120911059D01*
X157481500Y-120938970D01*
X157481997Y-120942904D01*
X157481997Y-120942905D01*
X157482005Y-120942970D01*
X157482938Y-120954807D01*
X157484327Y-120999003D01*
X157489978Y-121018453D01*
X157493987Y-121037814D01*
X157494603Y-121042686D01*
X157496526Y-121057911D01*
X157499445Y-121065282D01*
X157499445Y-121065284D01*
X157512804Y-121099026D01*
X157516649Y-121110256D01*
X157528982Y-121152707D01*
X157533015Y-121159526D01*
X157533017Y-121159531D01*
X157539293Y-121170142D01*
X157547988Y-121187890D01*
X157555448Y-121206731D01*
X157560110Y-121213147D01*
X157560110Y-121213148D01*
X157581436Y-121242501D01*
X157587952Y-121252421D01*
X157596011Y-121266047D01*
X157610458Y-121290476D01*
X157624779Y-121304797D01*
X157637619Y-121319830D01*
X157649528Y-121336221D01*
X157655634Y-121341272D01*
X157683605Y-121364412D01*
X157692384Y-121372402D01*
X159939777Y-123619796D01*
X159973803Y-123682108D01*
X159972100Y-123742560D01*
X159950989Y-123818684D01*
X159927251Y-124040809D01*
X159927548Y-124045962D01*
X159927548Y-124045965D01*
X159933011Y-124140704D01*
X159940110Y-124263829D01*
X159941247Y-124268875D01*
X159941248Y-124268881D01*
X159941459Y-124269816D01*
X159989222Y-124481753D01*
X160073266Y-124688730D01*
X160189987Y-124879202D01*
X160336250Y-125048052D01*
X160508126Y-125190746D01*
X160701000Y-125303452D01*
X160705825Y-125305294D01*
X160705826Y-125305295D01*
X160778612Y-125333089D01*
X160909692Y-125383144D01*
X160914760Y-125384175D01*
X160914763Y-125384176D01*
X161022017Y-125405997D01*
X161128597Y-125427681D01*
X161133772Y-125427871D01*
X161133774Y-125427871D01*
X161346673Y-125435678D01*
X161346677Y-125435678D01*
X161351837Y-125435867D01*
X161356957Y-125435211D01*
X161356959Y-125435211D01*
X161568288Y-125408139D01*
X161568289Y-125408139D01*
X161573416Y-125407482D01*
X161578366Y-125405997D01*
X161782429Y-125344775D01*
X161782434Y-125344773D01*
X161787384Y-125343288D01*
X161987994Y-125245010D01*
X162169860Y-125115287D01*
X162328096Y-124957603D01*
X162387594Y-124874803D01*
X162455435Y-124780391D01*
X162458453Y-124776191D01*
X162491605Y-124709114D01*
X162555136Y-124580567D01*
X162555137Y-124580565D01*
X162557430Y-124575925D01*
X162622370Y-124362183D01*
X162651529Y-124140704D01*
X162653156Y-124074114D01*
X162634852Y-123851475D01*
X162580431Y-123634816D01*
X162491354Y-123429954D01*
X162488541Y-123425605D01*
X162486101Y-123421055D01*
X162488343Y-123419853D01*
X162471033Y-123361964D01*
X162490695Y-123293745D01*
X162544119Y-123246985D01*
X162601646Y-123235422D01*
X162616671Y-123235973D01*
X162616676Y-123235973D01*
X162621837Y-123236162D01*
X162626957Y-123235506D01*
X162626959Y-123235506D01*
X162838288Y-123208434D01*
X162838289Y-123208434D01*
X162843416Y-123207777D01*
X162848366Y-123206292D01*
X163052429Y-123145070D01*
X163052434Y-123145068D01*
X163057384Y-123143583D01*
X163257994Y-123045305D01*
X163439860Y-122915582D01*
X163598096Y-122757898D01*
X163616249Y-122732636D01*
X163725435Y-122580686D01*
X163728453Y-122576486D01*
X163775517Y-122481260D01*
X163825136Y-122380862D01*
X163825137Y-122380860D01*
X163827430Y-122376220D01*
X163892370Y-122162478D01*
X163921529Y-121940999D01*
X163923156Y-121874409D01*
X163904852Y-121651770D01*
X163850431Y-121435111D01*
X163761354Y-121230249D01*
X163758541Y-121225900D01*
X163756101Y-121221350D01*
X163758136Y-121220259D01*
X163740700Y-121161450D01*
X163760524Y-121093277D01*
X163814057Y-121046643D01*
X163871320Y-121035204D01*
X163886652Y-121035767D01*
X163896936Y-121035300D01*
X164108185Y-121008239D01*
X164118262Y-121006097D01*
X164322255Y-120944896D01*
X164331842Y-120941138D01*
X164523095Y-120847444D01*
X164531945Y-120842169D01*
X164705328Y-120718497D01*
X164713200Y-120711844D01*
X164849000Y-120576515D01*
X164855781Y-120564149D01*
X164850651Y-120557271D01*
X163922970Y-120021675D01*
X162560758Y-119235201D01*
X162547053Y-119231876D01*
X162541532Y-119238897D01*
X162492864Y-119414387D01*
X162490933Y-119424505D01*
X162468302Y-119636279D01*
X162468050Y-119646568D01*
X162480309Y-119859182D01*
X162481745Y-119869402D01*
X162528565Y-120077151D01*
X162531645Y-120086980D01*
X162611770Y-120284308D01*
X162616414Y-120293502D01*
X162634792Y-120323491D01*
X162653331Y-120392024D01*
X162631875Y-120459701D01*
X162577237Y-120505035D01*
X162525821Y-120515318D01*
X162470081Y-120514637D01*
X162470079Y-120514637D01*
X162464911Y-120514574D01*
X162244091Y-120548364D01*
X162231532Y-120552469D01*
X162160568Y-120554619D01*
X162103294Y-120521798D01*
X160690405Y-119108909D01*
X160656379Y-119046597D01*
X160653500Y-119019814D01*
X160653500Y-118786202D01*
X162806096Y-118786202D01*
X162811917Y-118793621D01*
X163737030Y-119327735D01*
X165097673Y-120113302D01*
X165111378Y-120116627D01*
X165117450Y-120108905D01*
X165160378Y-119967612D01*
X165162555Y-119957542D01*
X165190590Y-119744592D01*
X165191109Y-119737917D01*
X165192572Y-119678069D01*
X165192378Y-119671351D01*
X165174781Y-119457309D01*
X165173096Y-119447129D01*
X165132118Y-119283989D01*
X165134922Y-119213048D01*
X165175635Y-119154884D01*
X165241330Y-119127965D01*
X165275006Y-119129003D01*
X165342942Y-119140310D01*
X165390609Y-119148244D01*
X165390611Y-119148244D01*
X165399467Y-119149718D01*
X165443722Y-119144402D01*
X165535172Y-119133416D01*
X165535175Y-119133415D01*
X165544084Y-119132345D01*
X165618417Y-119100563D01*
X165669760Y-119078611D01*
X165669762Y-119078610D01*
X165678013Y-119075082D01*
X165745179Y-119019814D01*
X165784383Y-118987555D01*
X165784385Y-118987553D01*
X165790488Y-118982531D01*
X165827429Y-118932057D01*
X166725563Y-117376443D01*
X166750804Y-117319214D01*
X166774718Y-117175533D01*
X166757345Y-117030916D01*
X166700082Y-116896987D01*
X166607531Y-116784512D01*
X166557057Y-116747571D01*
X165001443Y-115849437D01*
X164944214Y-115824196D01*
X164936427Y-115822900D01*
X164936424Y-115822899D01*
X164809391Y-115801756D01*
X164809389Y-115801756D01*
X164800533Y-115800282D01*
X164756278Y-115805598D01*
X164664828Y-115816584D01*
X164664825Y-115816585D01*
X164655916Y-115817655D01*
X164640618Y-115824196D01*
X164530240Y-115871389D01*
X164530238Y-115871390D01*
X164521987Y-115874918D01*
X164515053Y-115880623D01*
X164515054Y-115880623D01*
X164415617Y-115962445D01*
X164415615Y-115962447D01*
X164409512Y-115967469D01*
X164372571Y-116017943D01*
X163474437Y-117573557D01*
X163449196Y-117630786D01*
X163447900Y-117638573D01*
X163447899Y-117638576D01*
X163426756Y-117765609D01*
X163425282Y-117774467D01*
X163442655Y-117919084D01*
X163499918Y-118053013D01*
X163505620Y-118059942D01*
X163578052Y-118147967D01*
X163605890Y-118213278D01*
X163593999Y-118283272D01*
X163546154Y-118335726D01*
X163514122Y-118348885D01*
X163514208Y-118349148D01*
X163510649Y-118350311D01*
X163509951Y-118350598D01*
X163509290Y-118350755D01*
X163306868Y-118416917D01*
X163297359Y-118420914D01*
X163108463Y-118519247D01*
X163099738Y-118524741D01*
X162929433Y-118652610D01*
X162921726Y-118659453D01*
X162812571Y-118773677D01*
X162806096Y-118786202D01*
X160653500Y-118786202D01*
X160653500Y-111760000D01*
X161646496Y-111760000D01*
X161666458Y-111949928D01*
X161725473Y-112131556D01*
X161820960Y-112296944D01*
X161948747Y-112438866D01*
X162103248Y-112551118D01*
X162109276Y-112553802D01*
X162109278Y-112553803D01*
X162271681Y-112626109D01*
X162277712Y-112628794D01*
X162371112Y-112648647D01*
X162458056Y-112667128D01*
X162458061Y-112667128D01*
X162464513Y-112668500D01*
X162655487Y-112668500D01*
X162661939Y-112667128D01*
X162661944Y-112667128D01*
X162748888Y-112648647D01*
X162842288Y-112628794D01*
X162848319Y-112626109D01*
X163010722Y-112553803D01*
X163010724Y-112553802D01*
X163016752Y-112551118D01*
X163171253Y-112438866D01*
X163299040Y-112296944D01*
X163394527Y-112131556D01*
X163453542Y-111949928D01*
X163473504Y-111760000D01*
X163453542Y-111570072D01*
X163394527Y-111388444D01*
X163299040Y-111223056D01*
X163225863Y-111141785D01*
X163195147Y-111077779D01*
X163193500Y-111057476D01*
X163193500Y-104842524D01*
X163213502Y-104774403D01*
X163225858Y-104758221D01*
X163299040Y-104676944D01*
X163394527Y-104511556D01*
X163453542Y-104329928D01*
X163473504Y-104140000D01*
X163453542Y-103950072D01*
X163394527Y-103768444D01*
X163299040Y-103603056D01*
X163171253Y-103461134D01*
X163016752Y-103348882D01*
X163010724Y-103346198D01*
X163010722Y-103346197D01*
X162848319Y-103273891D01*
X162848318Y-103273891D01*
X162842288Y-103271206D01*
X162748887Y-103251353D01*
X162661944Y-103232872D01*
X162661939Y-103232872D01*
X162655487Y-103231500D01*
X162464513Y-103231500D01*
X162458061Y-103232872D01*
X162458056Y-103232872D01*
X162371113Y-103251353D01*
X162277712Y-103271206D01*
X162271682Y-103273891D01*
X162271681Y-103273891D01*
X162109278Y-103346197D01*
X162109276Y-103346198D01*
X162103248Y-103348882D01*
X161948747Y-103461134D01*
X161820960Y-103603056D01*
X161725473Y-103768444D01*
X161666458Y-103950072D01*
X161646496Y-104140000D01*
X161666458Y-104329928D01*
X161725473Y-104511556D01*
X161820960Y-104676944D01*
X161894137Y-104758215D01*
X161924853Y-104822221D01*
X161926500Y-104842524D01*
X161926500Y-111057476D01*
X161906498Y-111125597D01*
X161894142Y-111141779D01*
X161820960Y-111223056D01*
X161725473Y-111388444D01*
X161666458Y-111570072D01*
X161646496Y-111760000D01*
X160653500Y-111760000D01*
X160653500Y-71434594D01*
X160673502Y-71366473D01*
X160690405Y-71345499D01*
X164009549Y-68026355D01*
X164071861Y-67992329D01*
X164123762Y-67991979D01*
X164303597Y-68028567D01*
X164308772Y-68028757D01*
X164308774Y-68028757D01*
X164434982Y-68033385D01*
X164502324Y-68055870D01*
X164546820Y-68111193D01*
X164554342Y-68181790D01*
X164544653Y-68212350D01*
X164490575Y-68328853D01*
X164455688Y-68404010D01*
X164395989Y-68619275D01*
X164372251Y-68841400D01*
X164372548Y-68846553D01*
X164372548Y-68846556D01*
X164378102Y-68942872D01*
X164385110Y-69064420D01*
X164386247Y-69069466D01*
X164386248Y-69069472D01*
X164406119Y-69157644D01*
X164434222Y-69282344D01*
X164518266Y-69489321D01*
X164548055Y-69537933D01*
X164615115Y-69647364D01*
X164634987Y-69679793D01*
X164781250Y-69848643D01*
X164953126Y-69991337D01*
X165146000Y-70104043D01*
X165150825Y-70105885D01*
X165150826Y-70105886D01*
X165218405Y-70131692D01*
X165354692Y-70183735D01*
X165359760Y-70184766D01*
X165359763Y-70184767D01*
X165467017Y-70206588D01*
X165573597Y-70228272D01*
X165578772Y-70228462D01*
X165578774Y-70228462D01*
X165791673Y-70236269D01*
X165791677Y-70236269D01*
X165796837Y-70236458D01*
X165801957Y-70235802D01*
X165801959Y-70235802D01*
X166013288Y-70208730D01*
X166013289Y-70208730D01*
X166018416Y-70208073D01*
X166027219Y-70205432D01*
X166227429Y-70145366D01*
X166227434Y-70145364D01*
X166232384Y-70143879D01*
X166432994Y-70045601D01*
X166614860Y-69915878D01*
X166773096Y-69758194D01*
X166807189Y-69710749D01*
X166900435Y-69580982D01*
X166903453Y-69576782D01*
X166920157Y-69542985D01*
X167000136Y-69381158D01*
X167000137Y-69381156D01*
X167002430Y-69376516D01*
X167067370Y-69162774D01*
X167096529Y-68941295D01*
X167098156Y-68874705D01*
X167079852Y-68652066D01*
X167025431Y-68435407D01*
X166936354Y-68230545D01*
X166859142Y-68111193D01*
X166817822Y-68047322D01*
X166817820Y-68047319D01*
X166815014Y-68042982D01*
X166664670Y-67877756D01*
X166660619Y-67874557D01*
X166660615Y-67874553D01*
X166493414Y-67742505D01*
X166493410Y-67742503D01*
X166489359Y-67739303D01*
X166293789Y-67631343D01*
X166288920Y-67629619D01*
X166288916Y-67629617D01*
X166088087Y-67558500D01*
X166088083Y-67558499D01*
X166083212Y-67556774D01*
X166078119Y-67555867D01*
X166078116Y-67555866D01*
X165868373Y-67518505D01*
X165868367Y-67518504D01*
X165863284Y-67517599D01*
X165765869Y-67516409D01*
X165697998Y-67495576D01*
X165652164Y-67441356D01*
X165642919Y-67370964D01*
X165654451Y-67334591D01*
X165730136Y-67181453D01*
X165730137Y-67181451D01*
X165732430Y-67176811D01*
X165797370Y-66963069D01*
X165826529Y-66741590D01*
X165826611Y-66738240D01*
X165828074Y-66678365D01*
X165828074Y-66678361D01*
X165828156Y-66675000D01*
X165809852Y-66452361D01*
X165755431Y-66235702D01*
X165666354Y-66030840D01*
X165626906Y-65969862D01*
X165547822Y-65847617D01*
X165547820Y-65847614D01*
X165545014Y-65843277D01*
X165394670Y-65678051D01*
X165390619Y-65674852D01*
X165390615Y-65674848D01*
X165223414Y-65542800D01*
X165223410Y-65542798D01*
X165219359Y-65539598D01*
X165023789Y-65431638D01*
X165018920Y-65429914D01*
X165018916Y-65429912D01*
X164818087Y-65358795D01*
X164818083Y-65358794D01*
X164813212Y-65357069D01*
X164808119Y-65356162D01*
X164808116Y-65356161D01*
X164598373Y-65318800D01*
X164598367Y-65318799D01*
X164593284Y-65317894D01*
X164538360Y-65317223D01*
X164495314Y-65316697D01*
X164427442Y-65295864D01*
X164381608Y-65241644D01*
X164372364Y-65171252D01*
X164383896Y-65134879D01*
X164459670Y-64981563D01*
X164463469Y-64971968D01*
X164525376Y-64768211D01*
X164527555Y-64758130D01*
X164555590Y-64545183D01*
X164556109Y-64538508D01*
X164557572Y-64478660D01*
X164557378Y-64471942D01*
X164539781Y-64257900D01*
X164538096Y-64247720D01*
X164486214Y-64041171D01*
X164486062Y-64040725D01*
X164478462Y-64031624D01*
X164465798Y-64034894D01*
X163102030Y-64822266D01*
X162182314Y-65353263D01*
X162173300Y-65362717D01*
X162179488Y-65377169D01*
X162238217Y-65444968D01*
X162245579Y-65452178D01*
X162409434Y-65588212D01*
X162417881Y-65594127D01*
X162601756Y-65701575D01*
X162611042Y-65706025D01*
X162810001Y-65781999D01*
X162819899Y-65784875D01*
X163028595Y-65827334D01*
X163038823Y-65828553D01*
X163165211Y-65833188D01*
X163232553Y-65855672D01*
X163277049Y-65910996D01*
X163284571Y-65981593D01*
X163274884Y-66012148D01*
X163185688Y-66204305D01*
X163125989Y-66419570D01*
X163102251Y-66641695D01*
X163102548Y-66646848D01*
X163102548Y-66646851D01*
X163108011Y-66741590D01*
X163115110Y-66864715D01*
X163116247Y-66869761D01*
X163116248Y-66869767D01*
X163148453Y-67012668D01*
X163143917Y-67083520D01*
X163114631Y-67129464D01*
X159627747Y-70616348D01*
X159619461Y-70623888D01*
X159612982Y-70628000D01*
X159607557Y-70633777D01*
X159566357Y-70677651D01*
X159563602Y-70680493D01*
X159543865Y-70700230D01*
X159541385Y-70703427D01*
X159533682Y-70712447D01*
X159503414Y-70744679D01*
X159499595Y-70751625D01*
X159499593Y-70751628D01*
X159493652Y-70762434D01*
X159482801Y-70778953D01*
X159470386Y-70794959D01*
X159467241Y-70802228D01*
X159467238Y-70802232D01*
X159452826Y-70835537D01*
X159447609Y-70846187D01*
X159426305Y-70884940D01*
X159424334Y-70892615D01*
X159424334Y-70892616D01*
X159421267Y-70904562D01*
X159414863Y-70923266D01*
X159406819Y-70941855D01*
X159405580Y-70949678D01*
X159405577Y-70949688D01*
X159399901Y-70985524D01*
X159397495Y-70997144D01*
X159386500Y-71039970D01*
X159386500Y-71060224D01*
X159384949Y-71079934D01*
X159381780Y-71099943D01*
X159382526Y-71107835D01*
X159385941Y-71143961D01*
X159386500Y-71155819D01*
X159386500Y-119308207D01*
X159384268Y-119331816D01*
X159382725Y-119339906D01*
X159383223Y-119347817D01*
X159386251Y-119395951D01*
X159386500Y-119403862D01*
X159386500Y-119419856D01*
X159388506Y-119435730D01*
X159389248Y-119443590D01*
X159392775Y-119499650D01*
X159395225Y-119507191D01*
X159395321Y-119507487D01*
X159400494Y-119530631D01*
X159400532Y-119530935D01*
X159400533Y-119530940D01*
X159401526Y-119538797D01*
X159404442Y-119546162D01*
X159404443Y-119546166D01*
X159422199Y-119591011D01*
X159424871Y-119598430D01*
X159442236Y-119651875D01*
X159446486Y-119658571D01*
X159446486Y-119658572D01*
X159446650Y-119658831D01*
X159457415Y-119679958D01*
X159457529Y-119680246D01*
X159457532Y-119680251D01*
X159460448Y-119687617D01*
X159465104Y-119694025D01*
X159465107Y-119694031D01*
X159493458Y-119733052D01*
X159497901Y-119739589D01*
X159528000Y-119787018D01*
X159533778Y-119792444D01*
X159533779Y-119792445D01*
X159534007Y-119792659D01*
X159549688Y-119810446D01*
X159554528Y-119817107D01*
X159560637Y-119822161D01*
X159560638Y-119822162D01*
X159597796Y-119852903D01*
X159603730Y-119858134D01*
X159638898Y-119891158D01*
X159638901Y-119891160D01*
X159644679Y-119896586D01*
X159651903Y-119900558D01*
X159671506Y-119913881D01*
X159671746Y-119914080D01*
X159671753Y-119914084D01*
X159677856Y-119919133D01*
X159714460Y-119936357D01*
X159716444Y-119937291D01*
X159751891Y-119962204D01*
X161209777Y-121420091D01*
X161243803Y-121482403D01*
X161242100Y-121542855D01*
X161220989Y-121618979D01*
X161197251Y-121841104D01*
X161197548Y-121846257D01*
X161197548Y-121846260D01*
X161203011Y-121940999D01*
X161210110Y-122064124D01*
X161211247Y-122069170D01*
X161211248Y-122069176D01*
X161231119Y-122157348D01*
X161259222Y-122282048D01*
X161343266Y-122489025D01*
X161345966Y-122493431D01*
X161345968Y-122493435D01*
X161364202Y-122523191D01*
X161382740Y-122591725D01*
X161361283Y-122659401D01*
X161306644Y-122704734D01*
X161255230Y-122715016D01*
X161237972Y-122714805D01*
X161200080Y-122714342D01*
X161200078Y-122714342D01*
X161194911Y-122714279D01*
X160974091Y-122748069D01*
X160961532Y-122752174D01*
X160890568Y-122754324D01*
X160833294Y-122721503D01*
X158785405Y-120673614D01*
X158751379Y-120611302D01*
X158748500Y-120584519D01*
X158748500Y-76902524D01*
X158768502Y-76834403D01*
X158780858Y-76818221D01*
X158854040Y-76736944D01*
X158949527Y-76571556D01*
X159008542Y-76389928D01*
X159028504Y-76200000D01*
X159008542Y-76010072D01*
X158949527Y-75828444D01*
X158854040Y-75663056D01*
X158780863Y-75581785D01*
X158750147Y-75517779D01*
X158748500Y-75497476D01*
X158748500Y-70563768D01*
X158749027Y-70552585D01*
X158750702Y-70545092D01*
X158748562Y-70477001D01*
X158748500Y-70473044D01*
X158748500Y-70445144D01*
X158747996Y-70441153D01*
X158747063Y-70429311D01*
X158746276Y-70404247D01*
X158745674Y-70385111D01*
X158740021Y-70365652D01*
X158736012Y-70346293D01*
X158735461Y-70341935D01*
X158733474Y-70326203D01*
X158730558Y-70318837D01*
X158730556Y-70318831D01*
X158717200Y-70285098D01*
X158713355Y-70273868D01*
X158703230Y-70239017D01*
X158703230Y-70239016D01*
X158701019Y-70231407D01*
X158690705Y-70213966D01*
X158682008Y-70196213D01*
X158678981Y-70188568D01*
X158674552Y-70177383D01*
X158648563Y-70141612D01*
X158642047Y-70131692D01*
X158628302Y-70108450D01*
X158619542Y-70093638D01*
X158605221Y-70079317D01*
X158592380Y-70064283D01*
X158585132Y-70054307D01*
X158580472Y-70047893D01*
X158546407Y-70019712D01*
X158537626Y-70011722D01*
X157983647Y-69457742D01*
X157976113Y-69449463D01*
X157972000Y-69442982D01*
X157922348Y-69396356D01*
X157919507Y-69393602D01*
X157899770Y-69373865D01*
X157896573Y-69371385D01*
X157887551Y-69363680D01*
X157861100Y-69338841D01*
X157855321Y-69333414D01*
X157848375Y-69329595D01*
X157848372Y-69329593D01*
X157837566Y-69323652D01*
X157821047Y-69312801D01*
X157815048Y-69308148D01*
X157805041Y-69300386D01*
X157797772Y-69297241D01*
X157797768Y-69297238D01*
X157764463Y-69282826D01*
X157753813Y-69277609D01*
X157715060Y-69256305D01*
X157695437Y-69251267D01*
X157676734Y-69244863D01*
X157665420Y-69239967D01*
X157665419Y-69239967D01*
X157658145Y-69236819D01*
X157650322Y-69235580D01*
X157650312Y-69235577D01*
X157614476Y-69229901D01*
X157602856Y-69227495D01*
X157567711Y-69218472D01*
X157567710Y-69218472D01*
X157560030Y-69216500D01*
X157539776Y-69216500D01*
X157520065Y-69214949D01*
X157507886Y-69213020D01*
X157500057Y-69211780D01*
X157492165Y-69212526D01*
X157456039Y-69215941D01*
X157444181Y-69216500D01*
X118183200Y-69216500D01*
X118115079Y-69196498D01*
X118095853Y-69180157D01*
X118095580Y-69180460D01*
X118090668Y-69176037D01*
X118086253Y-69171134D01*
X117985490Y-69097925D01*
X117937094Y-69062763D01*
X117937093Y-69062762D01*
X117931752Y-69058882D01*
X117925724Y-69056198D01*
X117925722Y-69056197D01*
X117763319Y-68983891D01*
X117763318Y-68983891D01*
X117757288Y-68981206D01*
X117663888Y-68961353D01*
X117576944Y-68942872D01*
X117576939Y-68942872D01*
X117570487Y-68941500D01*
X117379513Y-68941500D01*
X117373061Y-68942872D01*
X117373056Y-68942872D01*
X117286112Y-68961353D01*
X117192712Y-68981206D01*
X117186682Y-68983891D01*
X117186681Y-68983891D01*
X117024278Y-69056197D01*
X117024276Y-69056198D01*
X117018248Y-69058882D01*
X117012907Y-69062762D01*
X117012906Y-69062763D01*
X117003672Y-69069472D01*
X116863747Y-69171134D01*
X116859326Y-69176044D01*
X116859325Y-69176045D01*
X116743947Y-69304186D01*
X116735960Y-69313056D01*
X116640473Y-69478444D01*
X116581458Y-69660072D01*
X116580768Y-69666633D01*
X116580768Y-69666635D01*
X116566498Y-69802404D01*
X116561496Y-69850000D01*
X114878424Y-69850000D01*
X114875706Y-69845404D01*
X114867010Y-69827654D01*
X114862472Y-69816192D01*
X114862469Y-69816187D01*
X114859552Y-69808819D01*
X114833573Y-69773061D01*
X114827057Y-69763143D01*
X114808575Y-69731893D01*
X114804542Y-69725073D01*
X114790218Y-69710749D01*
X114777376Y-69695714D01*
X114765472Y-69679329D01*
X114731406Y-69651147D01*
X114722627Y-69643158D01*
X114516782Y-69437313D01*
X114482756Y-69375001D01*
X114487821Y-69304186D01*
X114516782Y-69259123D01*
X118502247Y-65273657D01*
X118510537Y-65266113D01*
X118517018Y-65262000D01*
X118563659Y-65212332D01*
X118566413Y-65209491D01*
X118586134Y-65189770D01*
X118588612Y-65186575D01*
X118596318Y-65177553D01*
X118621158Y-65151101D01*
X118626586Y-65145321D01*
X118636346Y-65127568D01*
X118647199Y-65111045D01*
X118654753Y-65101306D01*
X118659613Y-65095041D01*
X118677176Y-65054457D01*
X118682383Y-65043827D01*
X118703695Y-65005060D01*
X118705666Y-64997383D01*
X118705668Y-64997378D01*
X118708732Y-64985442D01*
X118715138Y-64966730D01*
X118720033Y-64955419D01*
X118723181Y-64948145D01*
X118724421Y-64940317D01*
X118724423Y-64940310D01*
X118730099Y-64904476D01*
X118732505Y-64892856D01*
X118741528Y-64857711D01*
X118741528Y-64857710D01*
X118743500Y-64850030D01*
X118743500Y-64829776D01*
X118745051Y-64810065D01*
X118746980Y-64797886D01*
X118748220Y-64790057D01*
X118744059Y-64746038D01*
X118743500Y-64734181D01*
X118743500Y-61976124D01*
X160250282Y-61976124D01*
X160251756Y-61984980D01*
X160251756Y-61984982D01*
X160264012Y-62058616D01*
X160274196Y-62119805D01*
X160299437Y-62177034D01*
X161197571Y-63732648D01*
X161234512Y-63783122D01*
X161240615Y-63788144D01*
X161240617Y-63788146D01*
X161318738Y-63852428D01*
X161346987Y-63875673D01*
X161355238Y-63879201D01*
X161355240Y-63879202D01*
X161406583Y-63901154D01*
X161480916Y-63932936D01*
X161489825Y-63934006D01*
X161489828Y-63934007D01*
X161581278Y-63944993D01*
X161625533Y-63950309D01*
X161634389Y-63948835D01*
X161634391Y-63948835D01*
X161687358Y-63940019D01*
X161751152Y-63929401D01*
X161821631Y-63937947D01*
X161876303Y-63983241D01*
X161897807Y-64050903D01*
X161893255Y-64087364D01*
X161857863Y-64214981D01*
X161855933Y-64225096D01*
X161833302Y-64436870D01*
X161833050Y-64447159D01*
X161845309Y-64659773D01*
X161846745Y-64669993D01*
X161893565Y-64877742D01*
X161896644Y-64887571D01*
X161904314Y-64906460D01*
X161913151Y-64917583D01*
X161926683Y-64914265D01*
X163287970Y-64128326D01*
X164208108Y-63597085D01*
X164217839Y-63586879D01*
X164213979Y-63577239D01*
X164127806Y-63482536D01*
X164120273Y-63475511D01*
X163953139Y-63343518D01*
X163944552Y-63337813D01*
X163758117Y-63234895D01*
X163748705Y-63230665D01*
X163547959Y-63159576D01*
X163537997Y-63156945D01*
X163521105Y-63153936D01*
X163457547Y-63122299D01*
X163421183Y-63061322D01*
X163423558Y-62990365D01*
X163445903Y-62949828D01*
X163525082Y-62853604D01*
X163582345Y-62719675D01*
X163590650Y-62650547D01*
X163598647Y-62583972D01*
X163599718Y-62575058D01*
X163598244Y-62566200D01*
X163577101Y-62439167D01*
X163577100Y-62439164D01*
X163575804Y-62431377D01*
X163550563Y-62374148D01*
X162652429Y-60818534D01*
X162615488Y-60768060D01*
X162609385Y-60763038D01*
X162609383Y-60763036D01*
X162509946Y-60681214D01*
X162509947Y-60681214D01*
X162503013Y-60675509D01*
X162494762Y-60671981D01*
X162494760Y-60671980D01*
X162384382Y-60624787D01*
X162369084Y-60618246D01*
X162360175Y-60617176D01*
X162360172Y-60617175D01*
X162268722Y-60606189D01*
X162224467Y-60600873D01*
X162215611Y-60602347D01*
X162215609Y-60602347D01*
X162088576Y-60623490D01*
X162088573Y-60623491D01*
X162080786Y-60624787D01*
X162023557Y-60650028D01*
X160467943Y-61548162D01*
X160417469Y-61585103D01*
X160324918Y-61697578D01*
X160267655Y-61831507D01*
X160250282Y-61976124D01*
X118743500Y-61976124D01*
X118743500Y-59757524D01*
X118763502Y-59689403D01*
X118775858Y-59673221D01*
X118849040Y-59591944D01*
X118944527Y-59426556D01*
X119003542Y-59244928D01*
X119023504Y-59055000D01*
X119003542Y-58865072D01*
X118944527Y-58683444D01*
X118849040Y-58518056D01*
X118721253Y-58376134D01*
X118566752Y-58263882D01*
X118560724Y-58261198D01*
X118560722Y-58261197D01*
X118398319Y-58188891D01*
X118398318Y-58188891D01*
X118392288Y-58186206D01*
X118298887Y-58166353D01*
X118211944Y-58147872D01*
X118211939Y-58147872D01*
X118205487Y-58146500D01*
X118014513Y-58146500D01*
X118008061Y-58147872D01*
X118008056Y-58147872D01*
X117921113Y-58166353D01*
X117827712Y-58186206D01*
X117821682Y-58188891D01*
X117821681Y-58188891D01*
X117659278Y-58261197D01*
X117659276Y-58261198D01*
X117653248Y-58263882D01*
X117498747Y-58376134D01*
X117370960Y-58518056D01*
X117275473Y-58683444D01*
X117216458Y-58865072D01*
X117196496Y-59055000D01*
X117216458Y-59244928D01*
X117275473Y-59426556D01*
X117370960Y-59591944D01*
X117444137Y-59673215D01*
X117474853Y-59737221D01*
X117476500Y-59757524D01*
X117476500Y-64455405D01*
X117456498Y-64523526D01*
X117439595Y-64544500D01*
X113306282Y-68677813D01*
X113243970Y-68711839D01*
X113217187Y-68714718D01*
X112125785Y-68714718D01*
X112057664Y-68694716D01*
X112011171Y-68641060D01*
X112001067Y-68570786D01*
X112030561Y-68506206D01*
X112089577Y-68468032D01*
X112252429Y-68419174D01*
X112252434Y-68419172D01*
X112257384Y-68417687D01*
X112457994Y-68319409D01*
X112639860Y-68189686D01*
X112798096Y-68032002D01*
X112816249Y-68006740D01*
X112925435Y-67854790D01*
X112928453Y-67850590D01*
X113027430Y-67650324D01*
X113092370Y-67436582D01*
X113121529Y-67215103D01*
X113123156Y-67148513D01*
X113104852Y-66925874D01*
X113050431Y-66709215D01*
X112961354Y-66504353D01*
X112958541Y-66500004D01*
X112956101Y-66495454D01*
X112958136Y-66494363D01*
X112940700Y-66435554D01*
X112960524Y-66367381D01*
X113014057Y-66320747D01*
X113071320Y-66309308D01*
X113086652Y-66309871D01*
X113096936Y-66309404D01*
X113308185Y-66282343D01*
X113318262Y-66280201D01*
X113522255Y-66219000D01*
X113531842Y-66215242D01*
X113723095Y-66121548D01*
X113731945Y-66116273D01*
X113905328Y-65992601D01*
X113913200Y-65985948D01*
X114049000Y-65850619D01*
X114055781Y-65838253D01*
X114050651Y-65831375D01*
X113122970Y-65295779D01*
X111760758Y-64509305D01*
X111747053Y-64505980D01*
X111741532Y-64513001D01*
X111692864Y-64688491D01*
X111690933Y-64698609D01*
X111668302Y-64910383D01*
X111668050Y-64920672D01*
X111680309Y-65133286D01*
X111681745Y-65143506D01*
X111728565Y-65351255D01*
X111731645Y-65361084D01*
X111811770Y-65558412D01*
X111816414Y-65567606D01*
X111834792Y-65597595D01*
X111853331Y-65666128D01*
X111831875Y-65733805D01*
X111777237Y-65779139D01*
X111725821Y-65789422D01*
X111670081Y-65788741D01*
X111670079Y-65788741D01*
X111664911Y-65788678D01*
X111444091Y-65822468D01*
X111231756Y-65891870D01*
X111033607Y-65995020D01*
X111029474Y-65998123D01*
X111029471Y-65998125D01*
X110865087Y-66121548D01*
X110854965Y-66129148D01*
X110851393Y-66132886D01*
X110753140Y-66235702D01*
X110700629Y-66290651D01*
X110697715Y-66294923D01*
X110697714Y-66294924D01*
X110687518Y-66309871D01*
X110574743Y-66475193D01*
X110559003Y-66509103D01*
X110497456Y-66641695D01*
X110480688Y-66677818D01*
X110420989Y-66893083D01*
X110397251Y-67115208D01*
X110397548Y-67120361D01*
X110397548Y-67120364D01*
X110403011Y-67215103D01*
X110410110Y-67338228D01*
X110411247Y-67343274D01*
X110411248Y-67343280D01*
X110417487Y-67370964D01*
X110459222Y-67556152D01*
X110497461Y-67650324D01*
X110534892Y-67742505D01*
X110543266Y-67763129D01*
X110545966Y-67767535D01*
X110545968Y-67767539D01*
X110564202Y-67797295D01*
X110582740Y-67865829D01*
X110561283Y-67933505D01*
X110506644Y-67978838D01*
X110455230Y-67989120D01*
X110437972Y-67988909D01*
X110400080Y-67988446D01*
X110400078Y-67988446D01*
X110394911Y-67988383D01*
X110174091Y-68022173D01*
X109961756Y-68091575D01*
X109763607Y-68194725D01*
X109759474Y-68197828D01*
X109759471Y-68197830D01*
X109589100Y-68325748D01*
X109584965Y-68328853D01*
X109581393Y-68332591D01*
X109483140Y-68435407D01*
X109430629Y-68490356D01*
X109304743Y-68674898D01*
X109287596Y-68711839D01*
X109227456Y-68841400D01*
X109210688Y-68877523D01*
X109150989Y-69092788D01*
X109127251Y-69314913D01*
X107863850Y-69314913D01*
X110919010Y-64060306D01*
X112006096Y-64060306D01*
X112011917Y-64067725D01*
X112937030Y-64601839D01*
X114297673Y-65387406D01*
X114311378Y-65390731D01*
X114317450Y-65383009D01*
X114360378Y-65241716D01*
X114362555Y-65231646D01*
X114390590Y-65018696D01*
X114391109Y-65012021D01*
X114392572Y-64952173D01*
X114392378Y-64945455D01*
X114374781Y-64731413D01*
X114373096Y-64721233D01*
X114332118Y-64558093D01*
X114334922Y-64487152D01*
X114375635Y-64428988D01*
X114441330Y-64402069D01*
X114475006Y-64403107D01*
X114542942Y-64414414D01*
X114590609Y-64422348D01*
X114590611Y-64422348D01*
X114599467Y-64423822D01*
X114643722Y-64418506D01*
X114735172Y-64407520D01*
X114735175Y-64407519D01*
X114744084Y-64406449D01*
X114818417Y-64374667D01*
X114869760Y-64352715D01*
X114869762Y-64352714D01*
X114878013Y-64349186D01*
X114906262Y-64325941D01*
X114984383Y-64261659D01*
X114984385Y-64261657D01*
X114990488Y-64256635D01*
X115027429Y-64206161D01*
X115925563Y-62650547D01*
X115950804Y-62593318D01*
X115953844Y-62575058D01*
X115973244Y-62458495D01*
X115973244Y-62458493D01*
X115974718Y-62449637D01*
X115966024Y-62377268D01*
X115958416Y-62313932D01*
X115958415Y-62313929D01*
X115957345Y-62305020D01*
X115900082Y-62171091D01*
X115807531Y-62058616D01*
X115757057Y-62021675D01*
X114201443Y-61123541D01*
X114144214Y-61098300D01*
X114136427Y-61097004D01*
X114136424Y-61097003D01*
X114009391Y-61075860D01*
X114009389Y-61075860D01*
X114000533Y-61074386D01*
X113956278Y-61079702D01*
X113864828Y-61090688D01*
X113864825Y-61090689D01*
X113855916Y-61091759D01*
X113840618Y-61098300D01*
X113730240Y-61145493D01*
X113730238Y-61145494D01*
X113721987Y-61149022D01*
X113715053Y-61154727D01*
X113715054Y-61154727D01*
X113615617Y-61236549D01*
X113615615Y-61236551D01*
X113609512Y-61241573D01*
X113572571Y-61292047D01*
X112674437Y-62847661D01*
X112649196Y-62904890D01*
X112647900Y-62912677D01*
X112647899Y-62912680D01*
X112632863Y-63003020D01*
X112625282Y-63048571D01*
X112626353Y-63057485D01*
X112637940Y-63153936D01*
X112642655Y-63193188D01*
X112699918Y-63327117D01*
X112713414Y-63343518D01*
X112778052Y-63422071D01*
X112805890Y-63487382D01*
X112793999Y-63557376D01*
X112746154Y-63609830D01*
X112714122Y-63622989D01*
X112714208Y-63623252D01*
X112710649Y-63624415D01*
X112709951Y-63624702D01*
X112709290Y-63624859D01*
X112506868Y-63691021D01*
X112497359Y-63695018D01*
X112308463Y-63793351D01*
X112299738Y-63798845D01*
X112129433Y-63926714D01*
X112121726Y-63933557D01*
X112012571Y-64047781D01*
X112006096Y-64060306D01*
X110919010Y-64060306D01*
X116199040Y-54979116D01*
X116250571Y-54930281D01*
X116308350Y-54916451D01*
X138886715Y-54985330D01*
G37*
G04 #@! TD.AperFunction*
M02*
