%FSLAX45Y45*%
G04 Gerber Fmt 4.5, Leading zero omitted, Abs format (unit mm)*
G04 Created by KiCad (PCBNEW 6.0.5-a6ca702e91~116~ubuntu22.04.1) date 2022-07-22 23:50:19*
%MOMM*%
%LPD*%
G01*
G04 APERTURE LIST*
%TA.AperFunction,Profile*%
%ADD10C,0.200000*%
%TD*%
%ADD11C,0.200000*%
G04 APERTURE END LIST*
D10*
X16094357Y-5454412D02*
X11594357Y-5440684D01*
X16070580Y-13248640D02*
X18332469Y-9358390D01*
X11570580Y-13234912D02*
X16070580Y-13248640D01*
X11594357Y-5440684D02*
X9332469Y-9330934D01*
X9332469Y-9330934D02*
X11570580Y-13234912D01*
X18332469Y-9358390D02*
X16094357Y-5454412D01*
D11*
X9580088Y-13569116D02*
X9580088Y-13369116D01*
X9627707Y-13369116D01*
X9656278Y-13378640D01*
X9675326Y-13397688D01*
X9684850Y-13416735D01*
X9694373Y-13454830D01*
X9694373Y-13483402D01*
X9684850Y-13521497D01*
X9675326Y-13540545D01*
X9656278Y-13559592D01*
X9627707Y-13569116D01*
X9580088Y-13569116D01*
X9780088Y-13569116D02*
X9780088Y-13435783D01*
X9780088Y-13473878D02*
X9789612Y-13454830D01*
X9799135Y-13445307D01*
X9818183Y-13435783D01*
X9837231Y-13435783D01*
X9903897Y-13569116D02*
X9903897Y-13435783D01*
X9903897Y-13369116D02*
X9894373Y-13378640D01*
X9903897Y-13388164D01*
X9913421Y-13378640D01*
X9903897Y-13369116D01*
X9903897Y-13388164D01*
X10027707Y-13569116D02*
X10008659Y-13559592D01*
X9999135Y-13540545D01*
X9999135Y-13369116D01*
X10132469Y-13569116D02*
X10113421Y-13559592D01*
X10103897Y-13540545D01*
X10103897Y-13369116D01*
X10361040Y-13569116D02*
X10361040Y-13369116D01*
X10427707Y-13511973D01*
X10494373Y-13369116D01*
X10494373Y-13569116D01*
X10675326Y-13569116D02*
X10675326Y-13464354D01*
X10665802Y-13445307D01*
X10646754Y-13435783D01*
X10608659Y-13435783D01*
X10589612Y-13445307D01*
X10675326Y-13559592D02*
X10656278Y-13569116D01*
X10608659Y-13569116D01*
X10589612Y-13559592D01*
X10580088Y-13540545D01*
X10580088Y-13521497D01*
X10589612Y-13502449D01*
X10608659Y-13492926D01*
X10656278Y-13492926D01*
X10675326Y-13483402D01*
X10770564Y-13435783D02*
X10770564Y-13635783D01*
X10770564Y-13445307D02*
X10789612Y-13435783D01*
X10827707Y-13435783D01*
X10846754Y-13445307D01*
X10856278Y-13454830D01*
X10865802Y-13473878D01*
X10865802Y-13531021D01*
X10856278Y-13550068D01*
X10846754Y-13559592D01*
X10827707Y-13569116D01*
X10789612Y-13569116D01*
X10770564Y-13559592D01*
X10951516Y-13550068D02*
X10961040Y-13559592D01*
X10951516Y-13569116D01*
X10941993Y-13559592D01*
X10951516Y-13550068D01*
X10951516Y-13569116D01*
X10951516Y-13445307D02*
X10961040Y-13454830D01*
X10951516Y-13464354D01*
X10941993Y-13454830D01*
X10951516Y-13445307D01*
X10951516Y-13464354D01*
M02*
