G04 #@! TF.GenerationSoftware,KiCad,Pcbnew,6.0.5-a6ca702e91~116~ubuntu22.04.1*
G04 #@! TF.CreationDate,2022-07-22T23:48:50-06:00*
G04 #@! TF.ProjectId,catan_board,63617461-6e5f-4626-9f61-72642e6b6963,rev?*
G04 #@! TF.SameCoordinates,Original*
G04 #@! TF.FileFunction,Soldermask,Top*
G04 #@! TF.FilePolarity,Negative*
%FSLAX46Y46*%
G04 Gerber Fmt 4.6, Leading zero omitted, Abs format (unit mm)*
G04 Created by KiCad (PCBNEW 6.0.5-a6ca702e91~116~ubuntu22.04.1) date 2022-07-22 23:48:50*
%MOMM*%
%LPD*%
G01*
G04 APERTURE LIST*
G04 Aperture macros list*
%AMRoundRect*
0 Rectangle with rounded corners*
0 $1 Rounding radius*
0 $2 $3 $4 $5 $6 $7 $8 $9 X,Y pos of 4 corners*
0 Add a 4 corners polygon primitive as box body*
4,1,4,$2,$3,$4,$5,$6,$7,$8,$9,$2,$3,0*
0 Add four circle primitives for the rounded corners*
1,1,$1+$1,$2,$3*
1,1,$1+$1,$4,$5*
1,1,$1+$1,$6,$7*
1,1,$1+$1,$8,$9*
0 Add four rect primitives between the rounded corners*
20,1,$1+$1,$2,$3,$4,$5,0*
20,1,$1+$1,$4,$5,$6,$7,0*
20,1,$1+$1,$6,$7,$8,$9,0*
20,1,$1+$1,$8,$9,$2,$3,0*%
%AMHorizOval*
0 Thick line with rounded ends*
0 $1 width*
0 $2 $3 position (X,Y) of the first rounded end (center of the circle)*
0 $4 $5 position (X,Y) of the second rounded end (center of the circle)*
0 Add line between two ends*
20,1,$1,$2,$3,$4,$5,0*
0 Add two circle primitives to create the rounded ends*
1,1,$1,$2,$3*
1,1,$1,$4,$5*%
%AMRotRect*
0 Rectangle, with rotation*
0 The origin of the aperture is its center*
0 $1 length*
0 $2 width*
0 $3 Rotation angle, in degrees counterclockwise*
0 Add horizontal line*
21,1,$1,$2,0,0,$3*%
G04 Aperture macros list end*
%ADD10RoundRect,0.250000X-0.337500X-0.475000X0.337500X-0.475000X0.337500X0.475000X-0.337500X0.475000X0*%
%ADD11R,1.000000X1.500000*%
%ADD12RotRect,1.700000X1.700000X330.000000*%
%ADD13HorizOval,1.700000X0.000000X0.000000X0.000000X0.000000X0*%
%ADD14RotRect,1.700000X1.700000X30.000000*%
%ADD15HorizOval,1.700000X0.000000X0.000000X0.000000X0.000000X0*%
G04 APERTURE END LIST*
D10*
X137625000Y-66040000D03*
X139700000Y-66040000D03*
X152865000Y-66040000D03*
X154940000Y-66040000D03*
X109685000Y-81280000D03*
X111760000Y-81280000D03*
X122385000Y-81280000D03*
X124460000Y-81280000D03*
X137625000Y-81280000D03*
X139700000Y-81280000D03*
X152865000Y-81280000D03*
X154940000Y-81280000D03*
X165565000Y-81280000D03*
X167640000Y-81280000D03*
X104605000Y-96520000D03*
X106680000Y-96520000D03*
X122385000Y-96520000D03*
X124460000Y-96520000D03*
X137625000Y-96520000D03*
X139700000Y-96520000D03*
X152865000Y-96520000D03*
X154940000Y-96520000D03*
X109608800Y-111760000D03*
X111683800Y-111760000D03*
X137625000Y-111760000D03*
X139700000Y-111760000D03*
X152865000Y-111760000D03*
X154940000Y-111760000D03*
X168105000Y-111760000D03*
X170180000Y-111760000D03*
X122385000Y-127000000D03*
X124460000Y-127000000D03*
X137625000Y-127000000D03*
X139700000Y-127000000D03*
X152865000Y-127000000D03*
X154940000Y-127000000D03*
X170645000Y-96520000D03*
X172720000Y-96520000D03*
X122385000Y-111760000D03*
X124460000Y-111760000D03*
X122385000Y-66040000D03*
X124460000Y-66040000D03*
D11*
X121260000Y-63500000D03*
X124460000Y-63500000D03*
X124460000Y-58600000D03*
X121260000Y-58600000D03*
X136500000Y-63500000D03*
X139700000Y-63500000D03*
X139700000Y-58600000D03*
X136500000Y-58600000D03*
X151740000Y-63500000D03*
X154940000Y-63500000D03*
X154940000Y-58600000D03*
X151740000Y-58600000D03*
X108560000Y-78560000D03*
X111760000Y-78560000D03*
X111760000Y-73660000D03*
X108560000Y-73660000D03*
X121260000Y-78560000D03*
X124460000Y-78560000D03*
X124460000Y-73660000D03*
X121260000Y-73660000D03*
X136500000Y-78560000D03*
X139700000Y-78560000D03*
X139700000Y-73660000D03*
X136500000Y-73660000D03*
X151740000Y-78560000D03*
X154940000Y-78560000D03*
X154940000Y-73660000D03*
X151740000Y-73660000D03*
X164440000Y-78560000D03*
X167640000Y-78560000D03*
X167640000Y-73660000D03*
X164440000Y-73660000D03*
X103480000Y-93980000D03*
X106680000Y-93980000D03*
X106680000Y-89080000D03*
X103480000Y-89080000D03*
X121260000Y-93980000D03*
X124460000Y-93980000D03*
X124460000Y-89080000D03*
X121260000Y-89080000D03*
X136500000Y-93800000D03*
X139700000Y-93800000D03*
X139700000Y-88900000D03*
X136500000Y-88900000D03*
X151740000Y-93927000D03*
X154940000Y-93927000D03*
X154940000Y-89027000D03*
X151740000Y-89027000D03*
X169875400Y-93980000D03*
X173075400Y-93980000D03*
X173075400Y-89080000D03*
X169875400Y-89080000D03*
X108560000Y-109220000D03*
X111760000Y-109220000D03*
X111760000Y-104320000D03*
X108560000Y-104320000D03*
X121260000Y-109220000D03*
X124460000Y-109220000D03*
X124460000Y-104320000D03*
X121260000Y-104320000D03*
X136500000Y-109220000D03*
X139700000Y-109220000D03*
X139700000Y-104320000D03*
X136500000Y-104320000D03*
X151740000Y-109220000D03*
X154940000Y-109220000D03*
X154940000Y-104320000D03*
X151740000Y-104320000D03*
X166980000Y-108913000D03*
X170180000Y-108913000D03*
X170180000Y-104013000D03*
X166980000Y-104013000D03*
X121260000Y-124280000D03*
X124460000Y-124280000D03*
X124460000Y-119380000D03*
X121260000Y-119380000D03*
X136500000Y-124460000D03*
X139700000Y-124460000D03*
X139700000Y-119560000D03*
X136500000Y-119560000D03*
X151740000Y-124460000D03*
X154940000Y-124460000D03*
X154940000Y-119560000D03*
X151740000Y-119560000D03*
D12*
X114300000Y-62749104D03*
D13*
X113030000Y-64948809D03*
X111760000Y-67148513D03*
X110490000Y-69348218D03*
D14*
X110490000Y-118110000D03*
D15*
X111760000Y-120309705D03*
X113030000Y-122509409D03*
X114300000Y-124709114D03*
D14*
X161925000Y-62275591D03*
D15*
X163195000Y-64475296D03*
X164465000Y-66675000D03*
X165735000Y-68874705D03*
D12*
X165100000Y-117475000D03*
D13*
X163830000Y-119674705D03*
X162560000Y-121874409D03*
X161290000Y-124074114D03*
M02*
